<svg width="187" height="40" viewBox="0 0 187 40" fill="none" xmlns="http://www.w3.org/2000/svg">
<rect width="187" height="40" fill="#313131"/>
<path d="M26.646 23.212H29.936V24.5H25.05V14.77H26.646V23.212ZM35.7087 24.598C34.8034 24.598 33.968 24.388 33.2027 23.968C32.4467 23.5387 31.8447 22.946 31.3967 22.19C30.958 21.4247 30.7387 20.566 30.7387 19.614C30.7387 18.662 30.958 17.808 31.3967 17.052C31.8447 16.296 32.4467 15.708 33.2027 15.288C33.968 14.8587 34.8034 14.644 35.7087 14.644C36.6234 14.644 37.4587 14.8587 38.2147 15.288C38.98 15.708 39.582 16.296 40.0207 17.052C40.4594 17.808 40.6787 18.662 40.6787 19.614C40.6787 20.566 40.4594 21.4247 40.0207 22.19C39.582 22.946 38.98 23.5387 38.2147 23.968C37.4587 24.388 36.6234 24.598 35.7087 24.598ZM35.7087 23.212C36.3527 23.212 36.9267 23.0673 37.4307 22.778C37.9347 22.4793 38.3267 22.0593 38.6067 21.518C38.896 20.9673 39.0407 20.3327 39.0407 19.614C39.0407 18.8953 38.896 18.2653 38.6067 17.724C38.3267 17.1827 37.9347 16.7673 37.4307 16.478C36.9267 16.1887 36.3527 16.044 35.7087 16.044C35.0647 16.044 34.4907 16.1887 33.9867 16.478C33.4827 16.7673 33.086 17.1827 32.7967 17.724C32.5167 18.2653 32.3767 18.8953 32.3767 19.614C32.3767 20.3327 32.5167 20.9673 32.7967 21.518C33.086 22.0593 33.4827 22.4793 33.9867 22.778C34.4907 23.0673 35.0647 23.212 35.7087 23.212ZM49.2912 17.57C49.0392 17.0847 48.6892 16.7207 48.2412 16.478C47.7932 16.226 47.2752 16.1 46.6872 16.1C46.0432 16.1 45.4692 16.2447 44.9652 16.534C44.4612 16.8233 44.0646 17.234 43.7752 17.766C43.4952 18.298 43.3552 18.914 43.3552 19.614C43.3552 20.314 43.4952 20.9347 43.7752 21.476C44.0646 22.008 44.4612 22.4187 44.9652 22.708C45.4692 22.9973 46.0432 23.142 46.6872 23.142C47.5552 23.142 48.2599 22.8993 48.8012 22.414C49.3426 21.9287 49.6739 21.2707 49.7952 20.44H46.1412V19.166H51.5032V20.412C51.4006 21.168 51.1299 21.8633 50.6912 22.498C50.2619 23.1327 49.6972 23.6413 48.9972 24.024C48.3066 24.3973 47.5366 24.584 46.6872 24.584C45.7726 24.584 44.9372 24.374 44.1812 23.954C43.4252 23.5247 42.8232 22.932 42.3752 22.176C41.9366 21.42 41.7172 20.566 41.7172 19.614C41.7172 18.662 41.9366 17.808 42.3752 17.052C42.8232 16.296 43.4252 15.708 44.1812 15.288C44.9466 14.8587 45.7819 14.644 46.6872 14.644C47.7232 14.644 48.6426 14.9007 49.4452 15.414C50.2572 15.918 50.8452 16.6367 51.2092 17.57H49.2912ZM57.5153 24.598C56.61 24.598 55.7747 24.388 55.0093 23.968C54.2533 23.5387 53.6513 22.946 53.2033 22.19C52.7647 21.4247 52.5453 20.566 52.5453 19.614C52.5453 18.662 52.7647 17.808 53.2033 17.052C53.6513 16.296 54.2533 15.708 55.0093 15.288C55.7747 14.8587 56.61 14.644 57.5153 14.644C58.43 14.644 59.2653 14.8587 60.0213 15.288C60.7867 15.708 61.3887 16.296 61.8273 17.052C62.266 17.808 62.4853 18.662 62.4853 19.614C62.4853 20.566 62.266 21.4247 61.8273 22.19C61.3887 22.946 60.7867 23.5387 60.0213 23.968C59.2653 24.388 58.43 24.598 57.5153 24.598ZM57.5153 23.212C58.1593 23.212 58.7333 23.0673 59.2373 22.778C59.7413 22.4793 60.1333 22.0593 60.4133 21.518C60.7027 20.9673 60.8473 20.3327 60.8473 19.614C60.8473 18.8953 60.7027 18.2653 60.4133 17.724C60.1333 17.1827 59.7413 16.7673 59.2373 16.478C58.7333 16.1887 58.1593 16.044 57.5153 16.044C56.8713 16.044 56.2973 16.1887 55.7933 16.478C55.2893 16.7673 54.8927 17.1827 54.6033 17.724C54.3233 18.2653 54.1833 18.8953 54.1833 19.614C54.1833 20.3327 54.3233 20.9673 54.6033 21.518C54.8927 22.0593 55.2893 22.4793 55.7933 22.778C56.2973 23.0673 56.8713 23.212 57.5153 23.212ZM74.4966 17.668C74.4966 18.1627 74.3799 18.6293 74.1466 19.068C73.9132 19.5067 73.5399 19.866 73.0266 20.146C72.5132 20.4167 71.8552 20.552 71.0526 20.552H69.2886V24.5H67.6926V14.77H71.0526C71.7992 14.77 72.4292 14.9007 72.9426 15.162C73.4652 15.414 73.8526 15.7593 74.1046 16.198C74.3659 16.6367 74.4966 17.1267 74.4966 17.668ZM71.0526 19.25C71.6592 19.25 72.1119 19.1147 72.4106 18.844C72.7092 18.564 72.8586 18.172 72.8586 17.668C72.8586 16.604 72.2566 16.072 71.0526 16.072H69.2886V19.25H71.0526ZM77.6148 23.212H80.9048V24.5H76.0188V14.77H77.6148V23.212ZM88.1055 22.512H84.0315L83.3315 24.5H81.6655L85.1515 14.756H86.9995L90.4855 24.5H88.8055L88.1055 22.512ZM87.6575 21.21L86.0755 16.688L84.4795 21.21H87.6575ZM91.4692 19.614C91.4692 18.662 91.6885 17.808 92.1272 17.052C92.5752 16.296 93.1772 15.708 93.9332 15.288C94.6985 14.8587 95.5338 14.644 96.4392 14.644C97.4752 14.644 98.3945 14.9007 99.1972 15.414C100.009 15.918 100.597 16.6367 100.961 17.57H99.0432C98.7912 17.0567 98.4412 16.674 97.9932 16.422C97.5452 16.17 97.0272 16.044 96.4392 16.044C95.7952 16.044 95.2212 16.1887 94.7172 16.478C94.2132 16.7673 93.8165 17.1827 93.5272 17.724C93.2472 18.2653 93.1072 18.8953 93.1072 19.614C93.1072 20.3327 93.2472 20.9627 93.5272 21.504C93.8165 22.0453 94.2132 22.4653 94.7172 22.764C95.2212 23.0533 95.7952 23.198 96.4392 23.198C97.0272 23.198 97.5452 23.072 97.9932 22.82C98.4412 22.568 98.7912 22.1853 99.0432 21.672H100.961C100.597 22.6053 100.009 23.324 99.1972 23.828C98.3945 24.332 97.4752 24.584 96.4392 24.584C95.5245 24.584 94.6892 24.374 93.9332 23.954C93.1772 23.5247 92.5752 22.932 92.1272 22.176C91.6885 21.42 91.4692 20.566 91.4692 19.614ZM104.425 16.058V18.914H107.785V20.216H104.425V23.198H108.205V24.5H102.829V14.756H108.205V16.058H104.425ZM117.941 14.77V24.5H116.345V20.244H111.767V24.5H110.171V14.77H111.767V18.942H116.345V14.77H117.941ZM124.48 24.598C123.575 24.598 122.74 24.388 121.974 23.968C121.218 23.5387 120.616 22.946 120.168 22.19C119.73 21.4247 119.51 20.566 119.51 19.614C119.51 18.662 119.73 17.808 120.168 17.052C120.616 16.296 121.218 15.708 121.974 15.288C122.74 14.8587 123.575 14.644 124.48 14.644C125.395 14.644 126.23 14.8587 126.986 15.288C127.752 15.708 128.354 16.296 128.792 17.052C129.231 17.808 129.45 18.662 129.45 19.614C129.45 20.566 129.231 21.4247 128.792 22.19C128.354 22.946 127.752 23.5387 126.986 23.968C126.23 24.388 125.395 24.598 124.48 24.598ZM124.48 23.212C125.124 23.212 125.698 23.0673 126.202 22.778C126.706 22.4793 127.098 22.0593 127.378 21.518C127.668 20.9673 127.812 20.3327 127.812 19.614C127.812 18.8953 127.668 18.2653 127.378 17.724C127.098 17.1827 126.706 16.7673 126.202 16.478C125.698 16.1887 125.124 16.044 124.48 16.044C123.836 16.044 123.262 16.1887 122.758 16.478C122.254 16.7673 121.858 17.1827 121.568 17.724C121.288 18.2653 121.148 18.8953 121.148 19.614C121.148 20.3327 121.288 20.9673 121.568 21.518C121.858 22.0593 122.254 22.4793 122.758 22.778C123.262 23.0673 123.836 23.212 124.48 23.212ZM132.617 23.212H135.907V24.5H131.021V14.77H132.617V23.212ZM140.419 14.77C141.455 14.77 142.361 14.9707 143.135 15.372C143.919 15.764 144.521 16.3333 144.941 17.08C145.371 17.8173 145.585 18.6807 145.585 19.67C145.585 20.6593 145.371 21.518 144.941 22.246C144.521 22.974 143.919 23.534 143.135 23.926C142.361 24.3087 141.455 24.5 140.419 24.5H137.241V14.77H140.419ZM140.419 23.198C141.558 23.198 142.431 22.89 143.037 22.274C143.644 21.658 143.947 20.79 143.947 19.67C143.947 18.5407 143.644 17.6587 143.037 17.024C142.431 16.3893 141.558 16.072 140.419 16.072H138.837V23.198H140.419ZM148.763 16.058V18.914H152.123V20.216H148.763V23.198H152.543V24.5H147.167V14.756H152.543V16.058H148.763ZM159.563 24.5L157.323 20.608H156.105V24.5H154.509V14.77H157.869C158.616 14.77 159.246 14.9007 159.759 15.162C160.282 15.4233 160.669 15.7733 160.921 16.212C161.182 16.6507 161.313 17.1407 161.313 17.682C161.313 18.3167 161.126 18.8953 160.753 19.418C160.389 19.9313 159.824 20.2813 159.059 20.468L161.467 24.5H159.563ZM156.105 19.334H157.869C158.466 19.334 158.914 19.1847 159.213 18.886C159.521 18.5873 159.675 18.186 159.675 17.682C159.675 17.178 159.526 16.786 159.227 16.506C158.928 16.2167 158.476 16.072 157.869 16.072H156.105V19.334Z" fill="white"/>
</svg>
