<svg width="40" height="40" viewBox="0 0 40 40" fill="none" xmlns="http://www.w3.org/2000/svg">
<path d="M36.2 25.4402L27.52 28.1602C27.6 27.9602 27.64 27.7602 27.64 27.5202C27.68 26.9602 27.48 26.4002 27.08 25.9602C26.64 25.4802 26.04 25.2402 25.4 25.2402H19.84L15.04 23.4802C13.88 23.0402 12.64 22.8402 11.36 22.8402H9.07999V33.8002H9.99999C10.36 33.8002 10.72 33.8802 11.08 34.0002L21.36 37.6402C21.68 37.7602 22 37.8002 22.32 37.8002C22.8 37.8002 23.28 37.6802 23.72 37.4402L37.96 29.3202C38.44 29.0802 38.8 28.6802 39.04 28.2002C39.08 28.1602 39.08 28.1202 39.08 28.1202C39.28 27.6002 39.24 27.0002 39 26.4802C38.52 25.4002 37.24 24.9602 36.2 25.4402ZM6.63999 19.6802H2.39999C1.51999 19.6802 0.799988 20.4002 0.799988 21.2802V35.1602C0.799988 36.0402 1.51999 36.7602 2.39999 36.7602H6.63999C7.51999 36.7602 8.23999 36.0402 8.23999 35.1602V21.3202C8.27999 20.4002 7.55999 19.6802 6.63999 19.6802ZM26.32 7.20016L28.12 8.84016V2.16016H23.96V8.80016L25.76 7.16016C25.84 7.08016 25.92 7.04016 26.04 7.04016C26.16 7.08016 26.24 7.12016 26.32 7.20016Z" fill="black"/>
<path d="M17.96 2.16016C16.64 2.16016 15.52 3.24016 15.52 4.60016V20.8002C15.52 22.1202 16.6 23.2402 17.96 23.2402H34.4C35.64 23.1202 36.6 22.0802 36.6 20.8402V4.60016C36.6 3.28016 35.52 2.16016 34.16 2.16016H28.96V9.72015C28.96 9.88015 28.88 10.0402 28.72 10.0802C28.68 10.1202 28.6 10.1202 28.56 10.1202C28.48 10.1202 28.36 10.0802 28.28 10.0002L26.08 8.00015L23.88 10.0002C23.76 10.1202 23.6 10.1202 23.44 10.0802C23.28 10.0002 23.2 9.88015 23.2 9.72015V2.16016H17.96ZM24.44 18.7602H18.8C18.56 18.7602 18.4 18.5602 18.4 18.3602C18.4 18.1602 18.56 17.9602 18.8 17.9602H24.44C24.68 17.9602 24.84 18.1602 24.84 18.3602C24.84 18.5602 24.68 18.7602 24.44 18.7602ZM24.44 14.7202C24.68 14.7202 24.84 14.8802 24.84 15.1202C24.84 15.3602 24.68 15.5202 24.44 15.5202H18.8C18.56 15.5202 18.4 15.3602 18.4 15.1202C18.4 14.8802 18.56 14.7202 18.8 14.7202H24.44Z" fill="black"/>
</svg>
