<svg width="40" height="40" viewBox="0 0 40 40" fill="none" xmlns="http://www.w3.org/2000/svg">
<path fill-rule="evenodd" clip-rule="evenodd" d="M23.5219 6.26578C24.8212 6.59827 26.0664 7.11463 27.2197 7.79922L31.8484 4.44797L35.5521 8.15172L32.2008 12.7805C32.8851 13.9338 33.4014 15.179 33.734 16.4782L39.375 17.381V22.6189L33.7342 23.5218C33.4017 24.8211 32.8854 26.0663 32.2008 27.2196L35.552 31.8483L31.8483 35.552L27.2196 32.2007C26.0662 32.8851 24.8211 33.4013 23.5219 33.7338L22.619 39.375H17.3811L16.4782 33.7342C15.1789 33.4017 13.9337 32.8854 12.7804 32.2008L8.15172 35.552L4.44797 31.8483L7.7993 27.2196C7.11496 26.0662 6.59869 24.8211 6.26609 23.5219L0.625 22.6189V17.381L6.26617 16.478C6.59861 15.1787 7.11483 13.9336 7.79922 12.7802L4.44789 8.15156L8.15164 4.44781L12.7802 7.79891C13.9335 7.1144 15.1788 6.5981 16.4781 6.26562L17.381 0.625H22.6189L23.5219 6.26578ZM20 10.5539C14.783 10.5539 10.5539 14.783 10.5539 20C10.5539 25.217 14.783 29.4461 20 29.4461C25.217 29.4461 29.4461 25.217 29.4461 20C29.4461 14.783 25.217 10.5539 20 10.5539ZM14.3382 20.6427L18.0613 24.3657C18.6041 24.9085 19.4843 24.9085 20.0271 24.3657C22.6939 21.699 23.1368 21.1977 25.7909 18.517C26.3307 17.9741 26.3284 17.0965 25.7855 16.5566C25.2427 16.0168 24.365 16.0192 23.8252 16.562L19.042 21.4148L16.304 18.6768C15.7612 18.134 14.881 18.134 14.3382 18.6768C13.7953 19.2197 13.7953 20.0998 14.3382 20.6427Z" fill="black"/>
</svg>
