<svg width="34" height="30" viewBox="0 0 34 30" fill="none" xmlns="http://www.w3.org/2000/svg">
<path d="M17 0C17 0 6.69001 8.9 0.928344 13.72C0.745005 13.8797 0.597293 14.0762 0.494791 14.2968C0.392288 14.5173 0.337283 14.7569 0.333344 15C0.333344 15.442 0.508938 15.8659 0.821499 16.1785C1.13406 16.4911 1.55798 16.6667 2.00001 16.6667H5.33334V28.3333C5.33334 28.7754 5.50894 29.1993 5.8215 29.5118C6.13406 29.8244 6.55798 30 7.00001 30H12C12.442 30 12.866 29.8244 13.1785 29.5118C13.4911 29.1993 13.6667 28.7754 13.6667 28.3333V21.6667H20.3333V28.3333C20.3333 28.7754 20.5089 29.1993 20.8215 29.5118C21.1341 29.8244 21.558 30 22 30H27C27.442 30 27.866 29.8244 28.1785 29.5118C28.4911 29.1993 28.6667 28.7754 28.6667 28.3333V16.6667H32C32.442 16.6667 32.866 16.4911 33.1785 16.1785C33.4911 15.8659 33.6667 15.442 33.6667 15C33.6643 14.7522 33.6057 14.5082 33.4951 14.2864C33.3845 14.0646 33.2249 13.871 33.0283 13.72C27.3067 8.9 17 0 17 0Z" fill="black"/>
</svg>
