<svg width="40" height="40" viewBox="0 0 40 40" fill="none" xmlns="http://www.w3.org/2000/svg">
<g clip-path="url(#clip0_623_2703)">
<path d="M19.1119 0H1.0025C0.641875 0 0.3475 0.295625 0.3475 0.655625V9.59938C0.3475 9.96 0.6425 10.2544 1.0025 10.2544H19.1125C19.4731 10.2544 19.7681 9.96 19.7681 9.59938V0.655625C19.7675 0.295625 19.4725 0 19.1119 0ZM10.0575 9.12125C7.85625 9.12125 6.06688 7.3325 6.06688 5.13063C6.06688 2.92875 7.85562 1.13375 10.0575 1.13375C12.2594 1.13375 14.0475 2.92875 14.0475 5.13063C14.0475 7.3325 12.2587 9.12125 10.0575 9.12125Z" fill="black"/>
<path d="M10.0575 2.44531C8.57687 2.44531 7.3775 3.65094 7.3775 5.13156C7.3775 6.60531 8.57687 7.81094 10.0575 7.81094C11.5381 7.81094 12.7369 6.60531 12.7369 5.13156C12.7369 3.65094 11.5381 2.44531 10.0575 2.44531ZM11.0731 6.13406C11.0206 6.25219 10.9487 6.35031 10.8562 6.43531C10.7581 6.52094 10.6469 6.58594 10.5156 6.63844C10.385 6.68406 10.2344 6.71719 10.0769 6.72969L10.0244 7.26719C10.0175 7.28031 10.0175 7.29281 10.0112 7.30656C10.0044 7.31281 9.99125 7.32594 9.97812 7.33281C9.965 7.33906 9.93875 7.33906 9.91312 7.34594C9.8875 7.35281 9.85375 7.35281 9.80812 7.35281C9.75562 7.35281 9.71 7.35281 9.67687 7.34594C9.64375 7.33906 9.62437 7.33281 9.605 7.32656C9.58562 7.31344 9.57187 7.30031 9.56562 7.28719C9.55875 7.27406 9.55875 7.25406 9.56562 7.23469L9.61812 6.72969C9.54625 6.71656 9.47375 6.70344 9.415 6.69031C9.34937 6.67031 9.29062 6.65719 9.23812 6.63781C9.18562 6.61844 9.14 6.59844 9.10687 6.57844C9.0675 6.55281 9.035 6.53281 9.02187 6.51969C9.00187 6.50031 8.98875 6.46719 8.97625 6.43406C8.96937 6.39469 8.96312 6.33594 8.96312 6.26406C8.96312 6.20469 8.97 6.15906 8.97 6.12656C8.97687 6.08719 8.97687 6.06094 8.98937 6.04094C8.99625 6.01469 9.00875 6.00156 9.0225 5.99531C9.02875 5.98844 9.04875 5.98219 9.06187 5.98219C9.08812 5.98219 9.11437 5.99531 9.16 6.02156C9.19937 6.04781 9.25125 6.07406 9.3175 6.10656C9.3825 6.13281 9.46125 6.16594 9.56 6.19219C9.65125 6.21156 9.75625 6.22531 9.8875 6.22531C10.0837 6.22531 10.2281 6.19219 10.3194 6.12031C10.4175 6.04156 10.4631 5.95031 10.4631 5.82531C10.4631 5.74656 10.4437 5.68156 10.4044 5.62906C10.365 5.57656 10.3062 5.53094 10.24 5.49094C10.1681 5.45156 10.0894 5.41906 10.0044 5.38594C9.91875 5.35344 9.83437 5.32094 9.7425 5.28844C9.65062 5.25531 9.55875 5.20906 9.47312 5.16406C9.38812 5.11781 9.30937 5.05906 9.24437 4.99344C9.1725 4.92156 9.12 4.83656 9.08 4.74469C9.03437 4.64719 9.015 4.52281 9.015 4.38469C9.015 4.26031 9.04125 4.14906 9.08 4.04406C9.11937 3.93906 9.185 3.84781 9.26375 3.77531C9.3425 3.69656 9.43375 3.63156 9.55187 3.58469C9.66375 3.53906 9.79437 3.50656 9.93875 3.48656L9.99062 2.98219C9.99062 2.96906 9.9975 2.96219 10.0037 2.94906C10.0106 2.94219 10.0169 2.92969 10.0369 2.92281C10.05 2.91594 10.0694 2.90969 10.1019 2.90969C10.1281 2.90281 10.1606 2.90281 10.2069 2.90281C10.2594 2.90281 10.2981 2.90281 10.3312 2.90969C10.3706 2.91594 10.3962 2.92281 10.4162 2.92906C10.4294 2.94219 10.4425 2.95531 10.4494 2.96844C10.4562 2.98156 10.4562 3.00156 10.4562 3.02094L10.4037 3.49281C10.4562 3.49969 10.5019 3.51219 10.5544 3.51906C10.6062 3.53219 10.6525 3.54531 10.6981 3.56469C10.7437 3.57781 10.7831 3.59781 10.8225 3.61031C10.8619 3.63031 10.8875 3.64344 10.9012 3.66281C10.9144 3.67594 10.9269 3.68906 10.9337 3.70219C10.9406 3.71531 10.9469 3.73469 10.9469 3.75469C10.9531 3.77406 10.9531 3.79969 10.96 3.83281V4.06344C10.9531 4.09656 10.9469 4.12281 10.9406 4.14219C10.9337 4.15531 10.9275 4.16844 10.9212 4.17469C10.9144 4.18156 10.9019 4.18156 10.8881 4.18156C10.8687 4.18156 10.8356 4.17469 10.7969 4.14906C10.7512 4.12969 10.7056 4.10281 10.6394 4.07719C10.5806 4.05781 10.5081 4.03094 10.43 4.01156C10.3512 3.98531 10.2656 3.97844 10.1675 3.97844C10.0825 3.97844 10.0037 3.98531 9.945 4.00531C9.88 4.01844 9.83375 4.04469 9.79437 4.07031C9.755 4.10281 9.72937 4.13531 9.70937 4.18156C9.69 4.22094 9.68312 4.26719 9.68312 4.31969C9.68312 4.39844 9.7025 4.46344 9.7425 4.51594C9.78812 4.56781 9.84 4.61406 9.9125 4.65344C9.9775 4.69281 10.0562 4.73219 10.1481 4.75844C10.2337 4.79156 10.325 4.82344 10.4169 4.86344C10.5081 4.89594 10.5937 4.93531 10.6856 4.98094C10.7712 5.02656 10.85 5.08531 10.9219 5.15094C10.9869 5.22281 11.0394 5.30156 11.0856 5.39969C11.125 5.49781 11.145 5.60969 11.145 5.74719C11.145 5.89156 11.1256 6.02281 11.0731 6.13406ZM37.4056 24.9447L37.2881 24.8397C37.29 24.8441 37.2925 24.8459 37.295 24.8484C37.2994 24.8553 37.3037 24.8616 37.3081 24.8659L34.8187 23.0116C34.7856 22.9922 34.7531 22.9591 34.7206 22.9328L31.0644 20.2078L22.4081 26.6284L22.4012 26.6353H22.4731H39.5675H39.6531V26.6284L37.4056 24.9447ZM23.0625 40.0009H27.2037V32.3228C27.2037 31.9622 27.4919 31.6672 27.8587 31.6672H34.1881C34.5487 31.6672 34.8437 31.9622 34.8437 32.3228V40.0009H38.9775V27.9459H23.0625V40.0009Z" fill="black"/>
<path d="M33.5331 32.9766H28.5144V39.9997H33.5331V32.9766Z" fill="black"/>
<path d="M24.4062 4.25203H31.6331C31.7444 4.25203 34.3125 4.28516 34.3125 6.82078H34.3194C34.2406 7.40391 34.2338 8.82516 34.2862 12.7683L32.7637 11.2383C32.5081 10.9814 32.0931 10.9802 31.8375 11.2358C31.5806 11.4908 31.5794 11.9052 31.835 12.1614L34.5037 14.8445C34.5687 14.9102 34.6481 14.9583 34.7338 14.9908C34.7662 15.0052 34.7987 15.0183 34.8369 15.0239C34.8781 15.0295 34.915 15.0345 34.955 15.0358C34.9594 15.0358 34.9637 15.0383 34.9681 15.0383C34.97 15.0383 34.9731 15.0383 34.975 15.0383C35.0394 15.0377 35.0987 15.0177 35.1594 14.9989C35.195 14.9877 35.2287 14.9777 35.2619 14.9602C35.3269 14.927 35.3906 14.8889 35.4425 14.8345L38 12.152C38.2494 11.8895 38.24 11.4752 37.9781 11.2258C37.7156 10.977 37.3012 10.9858 37.0519 11.247L35.5975 12.7727C35.5975 12.7714 35.5975 12.7708 35.5975 12.7689C35.5712 10.3252 35.5581 7.46266 35.6044 6.99078C35.6175 6.93828 35.6237 6.87891 35.6237 6.82078C35.6237 3.75453 33.0162 2.94141 31.6337 2.94141H24.4062C24.0462 2.94141 23.7512 3.23703 23.7512 3.59703C23.7512 3.95703 24.0462 4.25203 24.4062 4.25203ZM16.92 32.6202H9.69312C9.58375 32.6202 7.0125 32.5908 7.0125 30.0514H7.0075C7.08187 29.4733 7.08937 28.042 7.03562 24.1008L8.56125 25.6345C8.81625 25.8902 9.23125 25.8927 9.4875 25.6377C9.74437 25.382 9.74562 24.9677 9.49062 24.7114L6.82625 22.0333C6.7675 21.9739 6.69875 21.9264 6.61937 21.8927C6.61625 21.8914 6.61375 21.8877 6.61 21.8864C6.58187 21.8745 6.54625 21.8752 6.51625 21.8683C6.4625 21.8545 6.41125 21.8364 6.34938 21.8345L6.34812 21.8352L6.34687 21.8345C6.30125 21.8352 6.26062 21.8527 6.21812 21.8627C6.17687 21.872 6.13313 21.8733 6.09437 21.8895C6.01437 21.9245 5.94375 21.9752 5.88437 22.0364C5.88375 22.0377 5.8825 22.0377 5.8825 22.0377L3.325 24.7202C3.07562 24.9827 3.085 25.397 3.3475 25.6464C3.47437 25.767 3.63687 25.8277 3.79937 25.8277C3.97187 25.8277 4.14562 25.7602 4.27375 25.6252L5.7225 24.1039C5.75187 26.5452 5.76875 29.4089 5.72375 29.882C5.70937 29.9364 5.70125 29.9927 5.70125 30.0508C5.70125 33.1189 8.3125 33.9302 9.6925 33.9302H16.9194C17.2812 33.9302 17.575 33.637 17.575 33.2745C17.5756 32.9133 17.2819 32.6202 16.92 32.6202Z" fill="black"/>
</g>
<defs>
<clipPath id="clip0_623_2703">
<rect width="40" height="40" fill="white"/>
</clipPath>
</defs>
</svg>
