<svg width="48" height="48" viewBox="0 0 48 48" fill="none" xmlns="http://www.w3.org/2000/svg">
<rect x="1" y="1" width="46" height="46" rx="23" fill="white"/>
<rect x="1" y="1" width="46" height="46" rx="23" stroke="#AFCEFF" strokeWidth="2"/>
<rect width="24" height="24" transform="matrix(-4.37114e-08 -1 -1 4.37114e-08 34 36)" fill="white"/>
<g clip-path="url(#clip0_464_621)">
<path d="M25.6221 33.6042L16.3042 24.7388C16.1936 24.6332 16.115 24.5189 16.0686 24.3958C16.0221 24.2726 15.9993 24.1407 16 24C16 23.8593 16.0232 23.7274 16.0697 23.6042C16.1161 23.4811 16.1943 23.3668 16.3042 23.2612L25.6221 14.3694C25.8802 14.1231 26.2028 14 26.5899 14C26.977 14 27.3088 14.1319 27.5853 14.3958C27.8618 14.6596 28 14.9675 28 15.3193C28 15.6711 27.8618 15.9789 27.5853 16.2427L19.4562 24L27.5853 31.7573C27.8433 32.0035 27.9724 32.3071 27.9724 32.6681C27.9724 33.029 27.8341 33.3411 27.5576 33.6042C27.2811 33.8681 26.9585 34 26.5899 34C26.2212 34 25.8986 33.8681 25.6221 33.6042Z" fill="#AFCEFF"/>
</g>
<defs>
<clipPath id="clip0_464_621">
<rect width="20" height="20" fill="white" transform="matrix(-4.37114e-08 -1 -1 4.37114e-08 32 34)"/>
</clipPath>
</defs>
</svg>
