<svg width="48" height="48" viewBox="0 0 48 48" fill="none" xmlns="http://www.w3.org/2000/svg">
<rect x="-1" y="1" width="46" height="46" rx="23" transform="matrix(-1 0 0 1 46 0)" fill="white"/>
<rect x="-1" y="1" width="46" height="46" rx="23" transform="matrix(-1 0 0 1 46 0)" stroke="#AFCEFF" strokeWidth="2"/>
<rect width="24" height="24" transform="translate(14 36) rotate(-90)" fill="white"/>
<g clip-path="url(#clip0_464_628)">
<path d="M22.3779 33.6042L31.6958 24.7388C31.8064 24.6332 31.885 24.5189 31.9314 24.3958C31.9779 24.2726 32.0007 24.1407 32 24C32 23.8593 31.9768 23.7274 31.9303 23.6042C31.8839 23.4811 31.8057 23.3668 31.6958 23.2612L22.3779 14.3694C22.1198 14.1231 21.7972 14 21.4101 14C21.023 14 20.6912 14.1319 20.4147 14.3958C20.1382 14.6596 20 14.9675 20 15.3193C20 15.6711 20.1382 15.9789 20.4147 16.2427L28.5438 24L20.4147 31.7573C20.1567 32.0035 20.0276 32.3071 20.0276 32.6681C20.0276 33.029 20.1659 33.3411 20.4424 33.6042C20.7189 33.8681 21.0415 34 21.4101 34C21.7788 34 22.1014 33.8681 22.3779 33.6042Z" fill="#AFCEFF"/>
</g>
<defs>
<clipPath id="clip0_464_628">
<rect width="20" height="20" fill="white" transform="translate(16 34) rotate(-90)"/>
</clipPath>
</defs>
</svg>
