<?xml version="1.0" encoding="UTF-8"?>
<svg version="1.1" xmlns="http://www.w3.org/2000/svg" width="512" height="512">
<path d="M0 0 C0.95003906 0.43957031 1.90007812 0.87914062 2.87890625 1.33203125 C12.05189353 5.96525772 19.82104403 12.68923636 27.6796875 19.23046875 C28.44539062 19.85566406 29.21109375 20.48085938 30 21.125 C30.639375 21.66382813 31.27875 22.20265625 31.9375 22.7578125 C36.82054867 25.69873954 42.88158865 25.14113279 48.41699219 25.12597656 C49.65242264 25.12877876 49.65242264 25.12877876 50.91281128 25.13163757 C52.69373005 25.13562695 54.47465389 25.13771506 56.25557709 25.13809967 C60.05367614 25.14153587 63.85160716 25.16292419 67.64964676 25.18333054 C74.71046479 25.22123394 81.77109964 25.25261806 88.83203125 25.25048828 C93.75401764 25.24969831 98.67538228 25.27318324 103.59720612 25.3123703 C105.46452281 25.32278533 107.33191165 25.32438771 109.19924164 25.31671906 C127.76627636 25.24807753 127.76627636 25.24807753 136 31 C136.9075 31.556875 137.815 32.11375 138.75 32.6875 C145.872739 40.00809286 148.31546377 47.78339098 148.39160156 57.73168945 C148.27372901 64.11046325 146.59888135 68.70135544 143 74 C142.443125 74.9075 141.88625 75.815 141.3125 76.75 C135.64863628 82.26078632 128.78740377 86.11617616 120.84042358 86.13803101 C119.77229431 86.14348434 118.70416504 86.14893768 117.60366821 86.15455627 C115.84571426 86.15611977 115.84571426 86.15611977 114.05224609 86.15771484 C112.81780762 86.16279556 111.58336914 86.16787628 110.31152344 86.17311096 C107.62527407 86.1838263 104.93907658 86.19282406 102.25281906 86.19923019 C97.99904011 86.20992375 93.74534033 86.23017419 89.49160767 86.25234985 C77.39499559 86.31422212 65.29838753 86.36821266 53.20166016 86.40136719 C46.52136488 86.41975671 39.84120175 86.44874948 33.16100371 86.4893719 C29.6289533 86.51037501 26.09706898 86.52588955 22.56495285 86.52817917 C18.61787107 86.53074069 14.67111352 86.55627711 10.72412109 86.58349609 C8.98438522 86.57898689 8.98438522 86.57898689 7.20950317 86.5743866 C-0.43957 86.65258687 -7.91611272 86.91611272 -13.5625 92.5625 C-15.50064173 97.19718675 -15.76475212 101.04923625 -15 106 C-13.59529962 109.35906612 -12.53336463 111.22661951 -9.22977161 112.89284706 C-2.54198771 115.2681112 3.71592996 115.42494648 10.76489258 115.38818359 C12.01489548 115.39344055 13.26489838 115.39869751 14.55278015 115.40411377 C17.95809751 115.41500306 21.36286303 115.41252318 24.76814866 115.40297651 C28.34997131 115.39533069 31.93177191 115.40243956 35.51359558 115.40713501 C41.52969545 115.41258045 47.54568456 115.40543514 53.56176758 115.39111328 C60.48902124 115.37481134 67.41600961 115.38006218 74.34325677 115.3965925 C80.31642302 115.41026879 86.28951004 115.41209654 92.26268691 115.40427649 C95.81878762 115.39963065 99.37476427 115.39888847 102.9308567 115.40888596 C106.90298136 115.4192743 110.87481648 115.40481856 114.84692383 115.38818359 C116.00523712 115.39425629 117.16355042 115.40032898 118.35696411 115.40658569 C130.71092136 115.31134725 141.88947582 113.19016205 150.83105469 104.1484375 C152.58801007 102.14958967 154.24058147 100.10002663 155.875 98 C156.7731543 96.87851562 156.7731543 96.87851562 157.68945312 95.734375 C159.47345437 93.50009868 161.23924753 91.2526226 163 89 C163.95033016 87.7915167 164.90083657 86.58317197 165.8515625 85.375 C167.1759757 83.68911926 168.49851205 82.00191032 169.81591797 80.31054688 C173.46299118 75.63910446 177.21981002 71.06409329 181 66.5 C185.25428323 61.3625462 189.46041321 56.19739739 193.5625 50.9375 C199.59657646 43.20031045 205.79644252 35.60151693 212 28 C213.7291945 25.87998022 215.45782726 23.75951369 217.18481445 21.63769531 C218.30121733 20.26698544 219.41951029 18.89781257 220.53979492 17.53027344 C223.37853955 14.05312592 226.07520762 10.5273151 228.6875 6.875 C232.80441869 1.488956 238.62240762 -1.87413587 245 -4 C256.16259803 -4.76507694 264.60094317 -4.3157226 273.75 2.6875 C279.45378529 7.90049447 282.58634664 14.64354939 283.30859375 22.25 C283.37240234 24.10625 283.37240234 24.10625 283.4375 26 C283.49808594 27.216875 283.55867188 28.43375 283.62109375 29.6875 C282.93605942 39.67838801 275.27120952 48.91285978 269.625 56.75 C268.20619169 58.75239049 266.78959459 60.75634925 265.375 62.76171875 C264.2921875 64.29578369 264.2921875 64.29578369 263.1875 65.86083984 C259.58027953 71.03736226 256.10424235 76.29947733 252.625 81.5625 C247.79108103 88.85864419 242.8765442 96.05279252 237.7421875 103.140625 C231.66825687 111.60957978 225.92066364 120.31556896 220.07470703 128.94238281 C215.56881428 135.58298069 211.03076999 142.20154801 206.4921875 148.81982422 C204.99058133 151.01376124 203.49475895 153.21154975 202 155.41015625 C197.20467513 162.44967388 192.36300243 169.37511464 187 176 C186.2575 176.99 185.515 177.98 184.75 179 C174.5052803 191.00190463 158.91130922 199.44778802 144 204 C143.21545598 204.24823674 142.43091196 204.49647348 141.62259388 204.75223255 C130.42158278 207.83442751 119.20514018 207.39907033 107.67651367 207.34057617 C105.32979849 207.33972881 102.98308252 207.34020717 100.6363678 207.34190369 C94.29842621 207.3427608 87.9606566 207.32518107 81.62275481 207.30418181 C75.66037432 207.28727659 69.69799326 207.28430694 63.73559336 207.2812262 C51.93526897 207.27467972 40.13500722 207.25476784 28.3347168 207.22631836 C16.87996735 207.19873087 5.425235 207.17752033 -6.02954102 207.16479492 C-6.73703056 207.16400675 -7.4445201 207.16321858 -8.17344872 207.16240653 C-11.72313932 207.15849107 -15.27283005 207.15470003 -18.82252085 207.15097082 C-48.21505424 207.11993115 -77.60752645 207.06691997 -107 207 C-107.25694251 181.17479339 -107.45092816 155.34977826 -107.56993389 129.52355099 C-107.62665897 117.53194901 -107.70399535 105.54114111 -107.82983398 93.55004883 C-107.9394612 83.09875305 -108.01043702 72.64803229 -108.03497344 62.19617754 C-108.04931735 56.6614273 -108.08302951 51.12832205 -108.16303062 45.59409904 C-108.23773563 40.38400094 -108.26072176 35.17622383 -108.24418449 29.96564102 C-108.24720925 28.0543474 -108.26907443 26.14297571 -108.31126022 24.23214531 C-108.6144187 9.79127186 -108.6144187 9.79127186 -104.60175514 5.33903694 C-101.781756 3.50305862 -99.13801444 2.19535767 -96 1 C-95.32217311 0.67131392 -94.64434622 0.34262785 -93.94597912 0.00398159 C-64.37718981 -14.32037839 -29.52734847 -13.67836329 0 0 Z " fill="#374151" transform="translate(229,275)"/>
<path d="M0 0 C5.2356892 3.00094381 9.23750292 6.81635383 13.34765625 11.19921875 C15.26253435 13.2389088 17.18431475 15.06718672 19.3125 16.875 C23.31715338 20.30291831 27.15586635 23.89467075 31 27.5 C35.98979603 32.177054 41.01497397 36.80429903 46.11328125 41.36328125 C50.7667705 45.55359272 55.35187642 49.81846168 59.94726562 54.07226562 C62.6921749 56.61266478 65.43959647 59.15034042 68.1875 61.6875 C68.72536133 62.18411133 69.26322266 62.68072266 69.81738281 63.19238281 C74.91409756 67.89586098 80.02596073 72.58270456 85.14111328 77.26611328 C87.63664407 79.55142496 90.13074527 81.8382958 92.625 84.125 C93.62499325 85.04167404 94.62499324 85.9583407 95.625 86.875 C101.625 92.375 107.625 97.875 113.625 103.375 C114.36737915 104.05550415 114.36737915 104.05550415 115.12475586 104.74975586 C116.12559668 105.66720685 117.12641045 106.58468736 118.12719727 107.50219727 C120.61411261 109.78210551 123.10148315 112.06151293 125.58984375 114.33984375 C131.32755956 119.59438349 137.05245017 124.86246288 142.76708984 130.14208984 C146.40058642 133.4978393 150.04115756 136.84571613 153.6875 140.1875 C154.17428223 140.63448242 154.66106445 141.08146484 155.16259766 141.54199219 C157.70816418 143.87760638 160.2628856 146.20205137 162.83203125 148.51171875 C179.93437215 163.92577845 179.93437215 163.92577845 180.94140625 175.15234375 C181.29006692 186.41070929 179.20998247 193.62465259 171.5625 201.8984375 C165.47784814 207.32064743 158.5175711 208.84768358 150.5625 209 C149.49225586 209.05607422 149.49225586 209.05607422 148.40039062 209.11328125 C138.93216606 209.26558513 131.92412181 204.4339813 125.31201172 198.05615234 C124.63154785 197.37762207 123.95108398 196.6990918 123.25 196 C121.76623055 194.56187496 120.2818534 193.12437667 118.796875 191.6875 C118.08337891 190.99011719 117.36988281 190.29273438 116.63476562 189.57421875 C113.9722802 186.99194425 111.24585045 184.49352906 108.5 182 C104.01231629 177.90575706 99.56114437 173.77501362 95.125 169.625 C90.64566868 165.4351685 86.15236128 161.26291084 81.625 157.125 C76.44619269 152.39168149 71.31529399 147.60905276 66.19140625 142.81640625 C62.3550808 139.23112869 58.5008871 135.66747746 54.625 132.125 C49.44619269 127.39168149 44.31529399 122.60905276 39.19140625 117.81640625 C35.3550808 114.23112869 31.5008871 110.66747746 27.625 107.125 C23.09763628 102.98708693 18.60449693 98.81465712 14.125 94.625 C5.07350518 86.16334422 -3.98718664 77.71508622 -13.375 69.625 C-16.68123348 71.08780307 -19.03093898 72.93408383 -21.6875 75.375 C-22.56277344 76.17679687 -23.43804687 76.97859375 -24.33984375 77.8046875 C-25.35245373 78.74383163 -26.36410723 79.68400772 -27.375 80.625 C-27.94750488 81.15770508 -28.52000977 81.69041016 -29.10986328 82.23925781 C-31.6424609 84.59833434 -34.17276174 86.95983739 -36.69995117 89.32470703 C-41.57691625 93.88815731 -46.48876516 98.41107979 -51.41796875 102.91796875 C-54.55833159 105.78990659 -57.68638814 108.67506534 -60.8125 111.5625 C-61.35277832 112.06152832 -61.89305664 112.56055664 -62.44970703 113.07470703 C-63.54448306 114.08604672 -64.6392095 115.09744008 -65.73388672 116.10888672 C-68.44677586 118.61514104 -71.16094859 121.12000446 -73.875 123.625 C-74.95833957 124.62499324 -76.04167291 125.62499324 -77.125 126.625 C-99.875 147.625 -99.875 147.625 -122.625 168.625 C-123.42949585 169.36762085 -123.42949585 169.36762085 -124.25024414 170.12524414 C-125.33273871 171.12445738 -126.41525821 172.12364362 -127.49780273 173.12280273 C-130.7666913 176.1399736 -134.03475271 179.15803584 -137.30175781 182.17724609 C-138.38754836 183.17973868 -139.47413066 184.18137446 -140.56152344 185.18212891 C-143.23648027 187.64428669 -145.90038815 190.11637403 -148.54296875 192.61328125 C-159.31507422 202.73899271 -167.86466865 209.51459927 -183.21484375 209.06640625 C-190.8706624 208.50613872 -197.64329318 204.88257592 -202.875 199.3125 C-204.1953125 197.51171875 -204.1953125 197.51171875 -205.375 195.625 C-205.78492188 194.99207031 -206.19484375 194.35914063 -206.6171875 193.70703125 C-210.7490407 186.11297003 -210.6340342 176.95113905 -208.6796875 168.68359375 C-205.72871159 160.56221046 -200.36222078 155.32223384 -193.91015625 149.83984375 C-190.4876469 146.84976239 -187.18699299 143.73646295 -183.875 140.625 C-176.04192044 133.27726494 -176.04192044 133.27726494 -172.375 130.125 C-167.79232771 126.18270113 -163.4180677 122.01630861 -159.00830078 117.88330078 C-154.68181493 113.8325382 -150.3091707 109.84098043 -145.890625 105.890625 C-142.90444401 103.20120734 -139.95030188 100.47865044 -137 97.75 C-136.45158447 97.24283447 -135.90316895 96.73566895 -135.33813477 96.21313477 C-134.78955811 95.70580811 -134.24098145 95.19848145 -133.67578125 94.67578125 C-126.9671578 88.47183239 -120.2403631 82.28813207 -113.4375 76.1875 C-108.46987617 71.72856085 -103.56816748 67.20061669 -98.66796875 62.66796875 C-94.07929271 58.42428568 -89.46868397 54.20459459 -84.85888672 49.98388672 C-82.86417482 48.15720583 -80.87040093 46.32950295 -78.87670898 44.50170898 C-77.87760376 43.58576778 -76.87841789 42.66991455 -75.87915039 41.75415039 C-73.35303926 39.43906372 -70.82794702 37.12288212 -68.3046875 34.8046875 C-62.90122332 29.84239278 -57.47755474 24.90497658 -52.0078125 20.015625 C-50.04379753 18.23227609 -48.10538336 16.43323667 -46.1796875 14.609375 C-33.04843783 2.20880813 -18.64412441 -8.56033728 0 0 Z " fill="#374151" transform="translate(301.375,2.375)"/>
<path d="M0 0 C1.03083206 -0.00241196 2.06166412 -0.00482391 3.12373352 -0.00730896 C5.30152232 -0.00633153 7.47933628 0.0070371 9.65698242 0.03198242 C12.9603507 0.06611763 16.26101493 0.05267717 19.56445312 0.03320312 C21.68881331 0.04010739 23.81316665 0.04978501 25.9375 0.0625 C26.91184494 0.05754013 27.88618988 0.05258026 28.89006042 0.04747009 C40.85121323 0.24881044 50.38359077 4.79342783 59.30078125 12.62890625 C72.90557509 27.09188746 73.45236261 43.42258335 73.44604492 62.2590332 C73.44904062 64.04382395 73.45244409 65.82861406 73.45622253 67.61340332 C73.46502453 72.44203798 73.46739903 77.2706549 73.46803832 82.09929681 C73.46875093 85.12114854 73.47088924 88.1429958 73.47353554 91.16484642 C73.48277609 101.72147277 73.486872 112.27808653 73.48608398 122.8347168 C73.48548341 132.65207626 73.49603465 142.46938074 73.51182765 152.2867263 C73.52493131 160.73543565 73.5302667 169.1841271 73.52962857 177.63284653 C73.52937444 182.67004374 73.53217904 187.70719203 73.54280663 192.74437904 C73.55253539 197.48454672 73.55253422 202.22461918 73.54528999 206.96479034 C73.5442501 208.69648313 73.54657133 210.428182 73.55265045 212.15986443 C73.61095953 229.93186795 72.14738813 245.9875049 59.48828125 259.57421875 C50.00841984 268.40425095 39.21864258 271.92135056 26.49609375 272.0703125 C25.45814667 272.08408432 24.42019958 272.09785614 23.35079956 272.11204529 C21.16051518 272.1352604 18.97016104 272.15255466 16.77978516 272.16430664 C13.44301978 272.19126697 10.10940762 272.26623668 6.7734375 272.34179688 C4.63934412 272.35845305 2.50522584 272.37221986 0.37109375 272.3828125 C-0.61873505 272.41266739 -1.60856384 272.44252228 -2.62838745 272.47328186 C-9.1754846 272.43204764 -12.51794101 270.97783998 -17.24075317 266.42662048 C-19.59231161 263.52807413 -19.82474176 260.94745516 -19.83064651 257.3537693 C-19.83448766 256.47654736 -19.8383288 255.59932542 -19.84228635 254.695521 C-19.84141987 253.7310421 -19.84055338 252.7665632 -19.83966064 251.77285767 C-19.84263177 250.74885058 -19.84560289 249.72484349 -19.84866405 248.66980588 C-19.85736888 245.22208247 -19.85886079 241.7743937 -19.86035156 238.32666016 C-19.86497842 235.86145452 -19.8700029 233.39624961 -19.87539673 230.93104553 C-19.88853427 224.2224224 -19.89500469 217.51381288 -19.89940739 210.80518007 C-19.90216943 206.61721323 -19.90640669 202.4292487 -19.91091156 198.24128342 C-19.92310372 186.64837857 -19.93340351 175.05547558 -19.93678665 163.46256447 C-19.93700622 162.72055722 -19.93722578 161.97854997 -19.937452 161.21405765 C-19.93767028 160.4702673 -19.93788856 159.72647695 -19.93811345 158.9601475 C-19.93855692 157.45292385 -19.93900348 155.94570021 -19.93945312 154.43847656 C-19.93967455 153.69084031 -19.93989598 152.94320406 -19.94012412 152.17291217 C-19.94407326 140.0549491 -19.96153103 127.93704614 -19.98481265 115.8191063 C-20.00851687 103.38093828 -20.02098806 90.94280044 -20.02215457 78.50460947 C-20.02307179 71.51971881 -20.02883609 64.53490648 -20.04697418 57.55003738 C-20.06396943 50.98210125 -20.06563477 44.41428771 -20.05683517 37.84632683 C-20.05606214 35.4328096 -20.06044231 33.01928453 -20.07029343 30.60578728 C-20.08293363 27.31665284 -20.07717911 24.02805225 -20.06671143 20.73892212 C-20.07476783 19.77890466 -20.08282423 18.81888721 -20.09112477 17.82977831 C-20.04105304 11.12473738 -18.74492367 7.881224 -14.18041992 2.85571289 C-9.91541825 -0.48794436 -5.20600285 -0.07011138 0 0 Z " fill="#374151" transform="translate(19.69921875,240.37109375)"/>
<path d="M0 0 C3.82766361 1.60311558 6.42524783 4.05484532 9.4375 6.875 C9.96045654 7.36186279 10.48341309 7.84872559 11.0222168 8.3503418 C12.1286904 9.38047284 13.23355845 10.4123308 14.33691406 11.44580078 C16.45521778 13.42541345 18.5889599 15.38788458 20.72314453 17.3503418 C26.02646943 22.22923777 31.29840234 27.14134903 36.5625 32.0625 C42.03016801 37.17359611 47.52772129 42.24965164 53.05078125 47.30078125 C61.575565 55.10293432 70.04222008 62.966465 78.48364258 70.85864258 C83.26290959 75.32269837 88.07892601 79.74417969 92.90625 84.15625 C96.45977503 87.41364794 99.97942534 90.70707554 103.5 94 C108.02254401 98.22951155 112.55613377 102.44554882 117.125 106.625 C118.01574219 107.46796631 118.90648437 108.31093262 119.82421875 109.17944336 C121.90403746 111.09700264 124.01548733 112.73550175 126.36474609 114.30834961 C132.05575176 118.36273654 136.0250434 122.15388734 137.22705078 129.25976562 C137.73945669 134.41263639 137.73727999 139.52680054 137.58496094 144.69897461 C137.50012545 147.93271794 137.5435184 151.14686835 137.6015625 154.38085938 C137.59594852 164.08168036 137.46743283 172.19438412 130.6875 179.640625 C128.83939802 181.48498627 126.92412091 183.2326344 125 185 C123.46175266 186.9072759 121.95443584 188.84056627 120.5 190.8125 C118.65625 193.26953125 118.65625 193.26953125 117 195 C116.01 195 115.02 195 114 195 C112.4921875 192.91015625 112.4921875 192.91015625 110.875 190.0625 C102.7624947 176.8414924 90.83967973 168.02010008 75.8359375 163.93359375 C66.14792302 161.75347635 55.88446989 162.0603 46 162 C45.99413376 161.443694 45.98826752 160.887388 45.98222351 160.31422424 C45.91796113 154.48951335 45.8334595 148.66533831 45.73754883 142.84106445 C45.70443002 140.67154027 45.67635807 138.50193262 45.65356445 136.33227539 C45.61977788 133.20162611 45.56745022 130.07173274 45.51171875 126.94140625 C45.50213387 125.50179283 45.50213387 125.50179283 45.49235535 124.03309631 C45.36760944 118.23337947 45.13051875 112.04974616 42 107 C37.63393719 103.37334865 34.59422539 102.49905979 28.97241211 102.49829102 C27.95902016 102.49018654 27.95902016 102.49018654 26.92515564 102.48191833 C24.7087623 102.46948755 22.49368238 102.48588051 20.27734375 102.50390625 C18.72847933 102.50375115 17.17961452 102.50226028 15.63075256 102.49949646 C12.3919245 102.49811507 9.15354069 102.51062769 5.91479492 102.53344727 C1.76976404 102.56185532 -2.37453055 102.55908485 -6.51961613 102.54635715 C-9.71530921 102.53939294 -12.91083298 102.54719726 -16.10650444 102.55961418 C-17.63467191 102.56411982 -19.16285761 102.56447325 -20.69102669 102.56054878 C-22.82833075 102.55762853 -24.96462982 102.57417959 -27.10180664 102.59594727 C-28.92331993 102.60405174 -28.92331993 102.60405174 -30.78163147 102.61231995 C-35.32898212 103.16008728 -37.96071855 104.68055575 -40.78051758 108.26049805 C-42.2669946 111.59978907 -42.43130609 114.18129642 -42.51171875 117.83203125 C-42.56489258 119.77045898 -42.56489258 119.77045898 -42.61914062 121.74804688 C-42.64223681 123.10285934 -42.66501935 124.45767718 -42.6875 125.8125 C-42.72069761 127.18688117 -42.75518953 128.56123171 -42.79101562 129.93554688 C-42.87341264 133.29028234 -42.94259395 136.64475904 -43 140 C-46.60679399 139.33247618 -49.41594264 138.41475382 -52.6875 136.75 C-57.6668047 134.4285674 -62.66019745 132.78337823 -67.9375 131.3125 C-69.00907349 131.00940918 -69.00907349 131.00940918 -70.10229492 130.70019531 C-81.08223886 127.73737286 -91.70271555 126.67587416 -103.0625 126.75 C-104.84624023 126.73839844 -104.84624023 126.73839844 -106.66601562 126.7265625 C-113.20270182 126.74092095 -119.32582546 127.19365207 -125.72363281 128.55908203 C-128.50878905 129.09854923 -131.17161069 129.15288591 -134 129 C-134.34375 126.8671875 -134.34375 126.8671875 -134 124 C-132.22180598 121.82467598 -130.5383343 120.02123888 -128.5 118.125 C-127.9946875 117.63386719 -127.489375 117.14273438 -126.96875 116.63671875 C-123.43134631 113.2319677 -119.73977372 110.01472368 -116.03515625 106.79443359 C-112.70198274 103.85551501 -109.47880869 100.80256805 -106.25 97.75 C-100.5131955 92.34889148 -94.7435355 86.98969752 -88.92578125 81.67578125 C-85.77455415 78.79381788 -82.6359596 75.8985485 -79.5 73 C-75.34162133 69.15755691 -71.17590914 65.32338392 -67 61.5 C-61.19892738 56.18800184 -55.41830859 50.85405644 -49.64111328 45.51611328 C-46.92822414 43.00985896 -44.21405141 40.50499554 -41.5 38 C-40.41666043 37.00000676 -39.33332709 36.00000676 -38.25 35 C-36.08333333 33 -33.91666667 31 -31.75 29 C-31.21342773 28.50467773 -30.67685547 28.00935547 -30.12402344 27.49902344 C-29.04404521 26.50217041 -27.96396757 25.50542507 -26.88378906 24.50878906 C-24.12328469 21.96152824 -21.364698 19.41224029 -18.609375 16.859375 C-12.46564017 11.1707645 -6.29071674 5.52672789 0 0 Z " fill="#374151" transform="translate(286,110)"/>
<path d="M0 0 C0.67194397 -0.0065712 1.34388794 -0.0131424 2.03619385 -0.01991272 C4.25883096 -0.03961403 6.48140054 -0.05130213 8.70410156 -0.0612793 C9.46489265 -0.06535482 10.22568375 -0.06943035 11.00952911 -0.07362938 C15.03759997 -0.09447818 19.06563689 -0.10878414 23.09375 -0.11816406 C27.24429036 -0.12921676 31.39429287 -0.16360633 35.5446434 -0.20333576 C38.74465905 -0.22954327 41.94454743 -0.2378596 45.14466095 -0.24144554 C46.67400997 -0.24630207 48.20335366 -0.25788946 49.73259735 -0.27648354 C64.89175893 -0.44932425 64.89175893 -0.44932425 70.34472656 4.17700195 C73.91622998 8.68620493 73.75571431 12.69133023 73.68530273 18.18994141 C73.68595985 19.53702934 73.68595985 19.53702934 73.68663025 20.91133118 C73.68454503 23.87120521 73.6612264 26.83050847 73.63769531 29.7902832 C73.63209842 31.84579662 73.62782876 33.90131404 73.62483215 35.95683289 C73.61339081 41.36067804 73.58392956 46.7642804 73.55072021 52.16802979 C73.52000413 57.68465897 73.50632352 63.20132748 73.49121094 68.71801758 C73.45905933 79.53778557 73.40787141 90.35737355 73.34472656 101.17700195 C72.22672152 100.22016522 71.10892283 99.26308736 69.99121094 98.3059082 C69.05746643 97.50648804 69.05746643 97.50648804 68.1048584 96.69091797 C60.89371524 90.48850466 53.96217819 83.97453678 47.01904297 77.47631836 C42.14200665 72.91353356 37.23066607 68.39065213 32.30175781 63.8840332 C27.51335163 59.50491983 22.75175581 55.09666872 17.98583984 50.69311523 C16.35452469 49.18605378 14.72276847 47.67947166 13.09082031 46.1730957 C12.55465088 45.67817627 12.01848145 45.18325684 11.46606445 44.67333984 C10.38855281 43.67890092 9.31091686 42.68459667 8.2331543 41.69042969 C5.44648154 39.11944498 2.6627911 36.54534035 -0.11621094 33.96606445 C-0.96856323 33.1769165 -0.96856323 33.1769165 -1.83813477 32.37182617 C-2.95293989 31.33760356 -4.06483797 30.30023718 -5.17358398 29.25952148 C-7.98546292 26.63672391 -10.84556857 24.28843039 -13.96777344 22.05200195 C-16.80343291 19.01850577 -17.2009189 18.25425634 -17.53027344 14.30200195 C-17.17845802 9.13422437 -14.98747156 6.32816016 -11.47949219 2.6730957 C-7.92062948 -0.24562896 -4.42203565 0.03580573 0 0 Z " fill="#374151" transform="translate(378.6552734375,-0.177001953125)"/>
<path d="M0 0 C10.23 0 20.46 0 31 0 C31.020625 4.929375 31.04125 9.85875 31.0625 14.9375 C31.071604 16.49460693 31.08070801 18.05171387 31.09008789 19.65600586 C31.09258545 20.87167236 31.09508301 22.08733887 31.09765625 23.33984375 C31.10551147 25.21724243 31.10551147 25.21724243 31.11352539 27.13256836 C31 30 31 30 30 31 C27.86646826 31.10003289 25.72962458 31.13081048 23.59375 31.1328125 C22.29308594 31.13410156 20.99242187 31.13539063 19.65234375 31.13671875 C18.97155762 31.13462402 18.29077148 31.1325293 17.58935547 31.13037109 C15.50871485 31.1250224 13.42829011 31.1303168 11.34765625 31.13671875 C9.39666016 31.13478516 9.39666016 31.13478516 7.40625 31.1328125 C6.20291016 31.13168457 4.99957031 31.13055664 3.75976562 31.12939453 C1 31 1 31 0 30 C-0.08783542 27.78144736 -0.10694609 25.56011504 -0.09765625 23.33984375 C-0.09515869 22.12417725 -0.09266113 20.90851074 -0.09008789 19.65600586 C-0.08098389 18.09889893 -0.07187988 16.54179199 -0.0625 14.9375 C-0.041875 10.008125 -0.02125 5.07875 0 0 Z " fill="#374151" transform="translate(272,241)"/>
</svg>
