<svg width="24" height="24" viewBox="0 0 24 24" fill="none" xmlns="http://www.w3.org/2000/svg">
<path d="M3.31032 11.5854V19.8613C3.31032 20.0807 3.22313 20.2912 3.06793 20.4465C2.91273 20.6017 2.70223 20.6888 2.48274 20.6888C2.26325 20.6888 2.05275 20.6017 1.89755 20.4465C1.74234 20.2912 1.65515 20.0807 1.65515 19.8613V11.5854C1.65515 11.3659 1.74234 11.1554 1.89755 11.0002C2.05275 10.845 2.26325 10.7578 2.48274 10.7578C2.70223 10.7578 2.91273 10.845 3.06793 11.0002C3.22313 11.1554 3.31032 11.3659 3.31032 11.5854Z" fill="#3586FF"/>
<path d="M1.65515 11.5859H22.3448V19.0342H1.65515V11.5859Z" fill="#3586FF"/>
<path d="M3.3103 4.96572V9.93124H4.96547V9.10365C4.96547 8.88416 5.05267 8.67366 5.20787 8.51846C5.36307 8.36326 5.57357 8.27606 5.79306 8.27606H10.3448C10.5643 8.27606 10.7748 8.36326 10.93 8.51846C11.0852 8.67366 11.1724 8.88416 11.1724 9.10365V9.93786H12.8275V9.10365C12.8275 8.88416 12.9147 8.67366 13.0699 8.51846C13.2251 8.36326 13.4356 8.27606 13.6551 8.27606H18.2069C18.4263 8.27606 18.6368 8.36326 18.792 8.51846C18.9472 8.67366 19.0344 8.88416 19.0344 9.10365V9.93124H20.6896V4.96572C20.6896 4.52674 20.5152 4.10574 20.2048 3.79534C19.8944 3.48493 19.4734 3.31055 19.0344 3.31055H4.96547C4.5265 3.31055 4.1055 3.48493 3.79509 3.79534C3.48469 4.10574 3.3103 4.52674 3.3103 4.96572Z" fill="#3586FF"/>
<path d="M22.3449 11.5854V19.8613C22.3449 20.0807 22.2577 20.2912 22.1025 20.4465C21.9473 20.6017 21.7368 20.6888 21.5173 20.6888C21.2978 20.6888 21.0873 20.6017 20.9321 20.4465C20.7769 20.2912 20.6897 20.0807 20.6897 19.8613V11.5854C20.6897 11.3659 20.7769 11.1554 20.9321 11.0002C21.0873 10.845 21.2978 10.7578 21.5173 10.7578C21.7368 10.7578 21.9473 10.845 22.1025 11.0002C22.2577 11.1554 22.3449 11.3659 22.3449 11.5854Z" fill="#3586FF"/>
</svg>
