<svg width="24" height="24" viewBox="0 0 24 24" fill="none" xmlns="http://www.w3.org/2000/svg">
<path d="M20 6.00094C20.0002 5.58639 19.8716 5.18203 19.6319 4.84378C19.3923 4.50552 19.0534 4.2501 18.6623 4.11283C18.2711 3.97556 17.8469 3.96323 17.4485 4.07755C17.05 4.19186 16.6969 4.42718 16.438 4.75094L13.649 8.23694L11.2 6.40094C10.7842 6.08913 10.2634 5.9514 9.7479 6.01692C9.23235 6.08243 8.76255 6.34605 8.438 6.75194L4.438 11.7519C4.15434 12.1064 3.99985 12.5469 4 13.0009V16.0009H20V6.00094ZM20 19.0009H4C3.73478 19.0009 3.48043 19.1063 3.29289 19.2938C3.10536 19.4814 3 19.7357 3 20.0009C3 20.2662 3.10536 20.5205 3.29289 20.708C3.48043 20.8956 3.73478 21.0009 4 21.0009H20C20.2652 21.0009 20.5196 20.8956 20.7071 20.708C20.8946 20.5205 21 20.2662 21 20.0009C21 19.7357 20.8946 19.4814 20.7071 19.2938C20.5196 19.1063 20.2652 19.0009 20 19.0009Z" fill="#3586FF"/>
</svg>
