<svg width="24" height="24" viewBox="0 0 24 24" fill="none" xmlns="http://www.w3.org/2000/svg">
<path d="M12 2.40039C6.70682 2.40039 2.40002 6.70719 2.40002 12.0004C2.40002 17.2936 6.70682 21.6004 12 21.6004C17.2932 21.6004 21.6 17.2936 21.6 12.0004C21.6 6.70719 17.2932 2.40039 12 2.40039ZM12 20.8004C7.14802 20.8004 3.20002 16.8524 3.20002 12.0004C3.20002 7.14839 7.14802 3.20039 12 3.20039C16.852 3.20039 20.8 7.14839 20.8 12.0004C20.8 16.8524 16.852 20.8004 12 20.8004Z" fill="#3586FF"/>
<path d="M12 4.40039C7.80922 4.40039 4.40002 7.80959 4.40002 12.0004C4.40002 16.1912 7.80922 19.6004 12 19.6004C16.1908 19.6004 19.6 16.1912 19.6 12.0004C19.6 7.80959 16.1908 4.40039 12 4.40039ZM12.4 18.7804V17.6004C12.4 17.4943 12.3579 17.3926 12.2829 17.3175C12.2079 17.2425 12.1061 17.2004 12 17.2004C11.8939 17.2004 11.7922 17.2425 11.7172 17.3175C11.6422 17.3926 11.6 17.4943 11.6 17.6004V18.7804C8.17002 18.5792 5.42122 15.8304 5.22002 12.4004H6.40002C6.50611 12.4004 6.60785 12.3582 6.68287 12.2832C6.75788 12.2082 6.80002 12.1065 6.80002 12.0004C6.80002 11.8943 6.75788 11.7926 6.68287 11.7175C6.60785 11.6425 6.50611 11.6004 6.40002 11.6004H5.22002C5.42122 8.17039 8.17002 5.42159 11.6 5.22039V6.40039C11.6 6.50648 11.6422 6.60822 11.7172 6.68323C11.7922 6.75825 11.8939 6.80039 12 6.80039C12.1061 6.80039 12.2079 6.75825 12.2829 6.68323C12.3579 6.60822 12.4 6.50648 12.4 6.40039V5.22039C15.83 5.42159 18.5788 8.17039 18.78 11.6004H17.6C17.4939 11.6004 17.3922 11.6425 17.3172 11.7175C17.2422 11.7926 17.2 11.8943 17.2 12.0004C17.2 12.1065 17.2422 12.2082 17.3172 12.2832C17.3922 12.3582 17.4939 12.4004 17.6 12.4004H18.78C18.5788 15.8304 15.83 18.5792 12.4 18.7804Z" fill="#3586FF"/>
<path d="M14.6512 8.82747L10.6512 10.4275C10.6009 10.4476 10.5552 10.4778 10.5169 10.5162C10.4786 10.5546 10.4485 10.6003 10.4284 10.6507L8.82845 14.6507C8.79935 14.7234 8.79223 14.803 8.80796 14.8797C8.8237 14.9564 8.8616 15.0268 8.91696 15.0822C8.97233 15.1375 9.04272 15.1754 9.11943 15.1912C9.19613 15.2069 9.27576 15.1998 9.34845 15.1707L13.3484 13.5707C13.3988 13.5506 13.4446 13.5204 13.483 13.482C13.5214 13.4436 13.5515 13.3979 13.5717 13.3475L15.1716 9.34747C15.2007 9.27478 15.2079 9.19515 15.1921 9.11845C15.1764 9.04175 15.1385 8.97135 15.0831 8.91599C15.0278 8.86062 14.9574 8.82272 14.8807 8.80699C14.804 8.79125 14.7243 8.79838 14.6517 8.82747H14.6512ZM12.892 12.8915L9.91805 14.0811L11.108 11.1071L14.0821 9.91707L12.892 12.8915Z" fill="#3586FF"/>
</svg>
