<svg width="34" height="34" viewBox="0 0 34 34" fill="none" xmlns="http://www.w3.org/2000/svg">
<g clip-path="url(#clip0_24_4244)">
<path d="M17.0259 34C26.429 34 34.0518 26.3888 34.0518 17C34.0518 7.61116 26.429 0 17.0259 0C7.62276 0 0 7.61116 0 17C0 26.3888 7.62276 34 17.0259 34Z" fill="#E0E0E0"/>
<path d="M17.0259 33.4833C26.2862 33.4833 33.793 25.9878 33.793 16.7416C33.793 7.49548 26.2862 0 17.0259 0C7.7657 0 0.258789 7.49548 0.258789 16.7416C0.258789 25.9878 7.7657 33.4833 17.0259 33.4833Z" fill="white"/>
<mask id="mask0_24_4244" style="mask-type:luminance" maskUnits="userSpaceOnUse" x="5" y="5" width="24" height="24">
<path d="M27.8933 14.7781H17.2845V19.1702H23.391C22.8218 21.9605 20.4413 23.5623 17.2845 23.5623C13.5585 23.5623 10.5569 20.5653 10.5569 16.845C10.5569 13.1246 13.5585 10.1276 17.2845 10.1276C18.8888 10.1276 20.3378 10.696 21.4763 11.6261L24.7883 8.31912C22.77 6.56228 20.1825 5.47717 17.2845 5.47717C10.971 5.47717 5.89941 10.541 5.89941 16.845C5.89941 23.1489 10.971 28.2127 17.2845 28.2127C22.977 28.2127 28.1521 24.079 28.1521 16.845C28.1521 16.1732 28.0486 15.4498 27.8933 14.7781Z" fill="white"/>
</mask>
<g mask="url(#mask0_24_4244)">
<path d="M4.86426 23.5623V10.1276L13.6618 16.8449L4.86426 23.5623Z" fill="#FBBC05"/>
</g>
<mask id="mask1_24_4244" style="mask-type:luminance" maskUnits="userSpaceOnUse" x="5" y="5" width="24" height="24">
<path d="M27.8933 14.7781H17.2845V19.1702H23.391C22.8218 21.9605 20.4413 23.5623 17.2845 23.5623C13.5585 23.5623 10.5569 20.5653 10.5569 16.845C10.5569 13.1246 13.5585 10.1276 17.2845 10.1276C18.8888 10.1276 20.3378 10.696 21.4763 11.6261L24.7883 8.31912C22.77 6.56228 20.1825 5.47717 17.2845 5.47717C10.971 5.47717 5.89941 10.541 5.89941 16.845C5.89941 23.1489 10.971 28.2127 17.2845 28.2127C22.977 28.2127 28.1521 24.079 28.1521 16.845C28.1521 16.1732 28.0486 15.4498 27.8933 14.7781Z" fill="white"/>
</mask>
<g mask="url(#mask1_24_4244)">
<path d="M4.86426 10.1276L13.6618 16.8449L17.2844 13.693L29.7044 11.6778V4.44373H4.86426V10.1276Z" fill="#EA4335"/>
</g>
<mask id="mask2_24_4244" style="mask-type:luminance" maskUnits="userSpaceOnUse" x="5" y="5" width="24" height="24">
<path d="M27.8933 14.7781H17.2845V19.1702H23.391C22.8218 21.9605 20.4413 23.5623 17.2845 23.5623C13.5585 23.5623 10.5569 20.5653 10.5569 16.845C10.5569 13.1246 13.5585 10.1276 17.2845 10.1276C18.8888 10.1276 20.3378 10.696 21.4763 11.6261L24.7883 8.31912C22.77 6.56228 20.1825 5.47717 17.2845 5.47717C10.971 5.47717 5.89941 10.541 5.89941 16.845C5.89941 23.1489 10.971 28.2127 17.2845 28.2127C22.977 28.2127 28.1521 24.079 28.1521 16.845C28.1521 16.1732 28.0486 15.4498 27.8933 14.7781Z" fill="white"/>
</mask>
<g mask="url(#mask2_24_4244)">
<path d="M4.86426 23.5623L20.3894 11.6778L24.4777 12.1945L29.7044 4.44373V29.2462H4.86426V23.5623Z" fill="#34A853"/>
</g>
<mask id="mask3_24_4244" style="mask-type:luminance" maskUnits="userSpaceOnUse" x="5" y="5" width="24" height="24">
<path d="M27.8933 14.7781H17.2845V19.1702H23.391C22.8218 21.9605 20.4413 23.5623 17.2845 23.5623C13.5585 23.5623 10.5569 20.5653 10.5569 16.845C10.5569 13.1246 13.5585 10.1276 17.2845 10.1276C18.8888 10.1276 20.3378 10.696 21.4763 11.6261L24.7883 8.31912C22.77 6.56228 20.1825 5.47717 17.2845 5.47717C10.971 5.47717 5.89941 10.541 5.89941 16.845C5.89941 23.1489 10.971 28.2127 17.2845 28.2127C22.977 28.2127 28.1521 24.079 28.1521 16.845C28.1521 16.1732 28.0486 15.4498 27.8933 14.7781Z" fill="white"/>
</mask>
<g mask="url(#mask3_24_4244)">
<path d="M29.7044 29.2462L13.6618 16.8449L11.5918 15.2948L29.7044 10.1276V29.2462Z" fill="#4285F4"/>
</g>
</g>
<defs>
<clipPath id="clip0_24_4244">
<rect width="34" height="34" fill="white"/>
</clipPath>
</defs>
</svg>
