<svg width="17" height="16" viewBox="0 0 17 16" fill="none" xmlns="http://www.w3.org/2000/svg">
<g clip-path="url(#clip0_430_418)">
<path d="M8.5 11.5C8.69833 11.5 8.8647 11.433 8.9991 11.2991C9.1335 11.1652 9.20047 10.9988 9.2 10.8V7.9825C9.2 7.78417 9.1328 7.62083 8.9984 7.4925C8.864 7.36417 8.69787 7.3 8.5 7.3C8.30167 7.3 8.1353 7.3672 8.0009 7.5016C7.8665 7.636 7.79953 7.80213 7.8 8V10.8175C7.8 11.0158 7.8672 11.1792 8.0016 11.3075C8.136 11.4358 8.30213 11.5 8.5 11.5ZM8.5 5.9C8.69833 5.9 8.8647 5.83303 8.9991 5.6991C9.1335 5.56517 9.20047 5.3988 9.2 5.2C9.2 5.00167 9.1328 4.8353 8.9984 4.7009C8.864 4.5665 8.69787 4.49953 8.5 4.5C8.30167 4.5 8.1353 4.5672 8.0009 4.7016C7.8665 4.836 7.79953 5.00213 7.8 5.2C7.8 5.39833 7.8672 5.5647 8.0016 5.6991C8.136 5.8335 8.30213 5.90047 8.5 5.9ZM8.5 15C7.53167 15 6.62167 14.8164 5.77 14.4491C4.91833 14.0818 4.1775 13.583 3.5475 12.9525C2.9175 12.3225 2.41887 11.5817 2.0516 10.73C1.68433 9.87833 1.50047 8.96833 1.5 8C1.5 7.03167 1.68387 6.12167 2.0516 5.27C2.41933 4.41833 2.91797 3.6775 3.5475 3.0475C4.1775 2.4175 4.91833 1.91863 5.77 1.5509C6.62167 1.18317 7.53167 0.999534 8.5 1C9.46833 1 10.3783 1.18387 11.23 1.5516C12.0817 1.91933 12.8225 2.41797 13.4525 3.0475C14.0825 3.6775 14.5814 4.41833 14.9491 5.27C15.3168 6.12167 15.5005 7.03167 15.5 8C15.5 8.96833 15.3161 9.87833 14.9484 10.73C14.5807 11.5817 14.082 12.3225 13.4525 12.9525C12.8225 13.5825 12.0817 14.0814 11.23 14.4491C10.3783 14.8168 9.46833 15.0005 8.5 15ZM8.5 13.6C10.0517 13.6 11.373 13.0547 12.4641 11.9641C13.5552 10.8735 14.1005 9.55213 14.1 8C14.1 6.44833 13.5547 5.12697 12.4641 4.0359C11.3735 2.94483 10.0521 2.39953 8.5 2.4C6.94833 2.4 5.62697 2.9453 4.5359 4.0359C3.44483 5.1265 2.89953 6.44787 2.9 8C2.9 9.55167 3.4453 10.873 4.5359 11.9641C5.6265 13.0552 6.94787 13.6005 8.5 13.6Z" fill="#959595"/>
</g>
<defs>
<clipPath id="clip0_430_418">
<rect width="14" height="14" fill="white" transform="translate(1.5 1)"/>
</clipPath>
</defs>
</svg>
