<svg width="44" height="44" viewBox="0 0 44 44" fill="none" xmlns="http://www.w3.org/2000/svg">
<path fill-rule="evenodd" clip-rule="evenodd" d="M2.75 4.12521V39.8752C2.75 40.2399 2.89487 40.5896 3.15273 40.8475C3.41059 41.1053 3.76033 41.2502 4.125 41.2502H39.875C40.2397 41.2502 40.5894 41.1053 40.8473 40.8475C41.1051 40.5896 41.25 40.2399 41.25 39.8752C41.25 39.5105 41.1051 39.1608 40.8473 38.9029C40.5894 38.6451 40.2397 38.5002 39.875 38.5002H5.5V4.12521C5.5 3.76053 5.35513 3.4108 5.09727 3.15293C4.83941 2.89507 4.48967 2.75021 4.125 2.75021C3.76033 2.75021 3.41059 2.89507 3.15273 3.15293C2.89487 3.4108 2.75 3.76053 2.75 4.12521ZM32.4307 17.8752L23.375 26.931L20.2221 23.7781C20.0945 23.6503 19.943 23.5489 19.7762 23.4797C19.6094 23.4105 19.4306 23.3749 19.25 23.3749C19.0694 23.3749 18.8906 23.4105 18.7238 23.4797C18.557 23.5489 18.4055 23.6503 18.2779 23.7781L8.65288 33.4031C8.40241 33.6624 8.26381 34.0097 8.26695 34.3703C8.27008 34.7308 8.41469 35.0756 8.66962 35.3306C8.92456 35.5855 9.26943 35.7301 9.62995 35.7333C9.99047 35.7364 10.3378 35.5978 10.5971 35.3473L19.25 26.6945L22.4029 29.8473C22.5305 29.9751 22.682 30.0765 22.8488 30.1457C23.0156 30.2149 23.1944 30.2505 23.375 30.2505C23.5556 30.2505 23.7344 30.2149 23.9012 30.1457C24.068 30.0765 24.2195 29.9751 24.3471 29.8473L34.375 19.8195V20.6252C34.375 20.9899 34.5199 21.3396 34.7777 21.5975C35.0356 21.8553 35.3853 22.0002 35.75 22.0002C36.1147 22.0002 36.4644 21.8553 36.7223 21.5975C36.9801 21.3396 37.125 20.9899 37.125 20.6252V16.5002C37.125 16.1355 36.9801 15.7858 36.7223 15.5279C36.4644 15.2701 36.1147 15.1252 35.75 15.1252H31.625C31.2603 15.1252 30.9106 15.2701 30.6527 15.5279C30.3949 15.7858 30.25 16.1355 30.25 16.5002C30.25 16.8649 30.3949 17.2146 30.6527 17.4725C30.9106 17.7303 31.2603 17.8752 31.625 17.8752H32.4307ZM20.625 5.22246L17.2631 2.98121C17.0372 2.83045 16.7716 2.75 16.5 2.75C16.2284 2.75 15.9628 2.83045 15.7369 2.98121L7.48688 8.48121C7.18347 8.6836 6.97289 8.99823 6.90146 9.35589C6.83003 9.71354 6.90361 10.0849 7.106 10.3883C7.30839 10.6917 7.62303 10.9023 7.98068 10.9737C8.33834 11.0452 8.70972 10.9716 9.01312 10.7692L9.625 10.3608V17.8752C9.625 18.2399 9.76987 18.5896 10.0277 18.8475C10.2856 19.1053 10.6353 19.2502 11 19.2502H22C22.3647 19.2502 22.7144 19.1053 22.9723 18.8475C23.2301 18.5896 23.375 18.2399 23.375 17.8752V10.3608L23.9869 10.7692C24.2903 10.9716 24.6617 11.0452 25.0193 10.9737C25.377 10.9023 25.6916 10.6917 25.894 10.3883C26.0964 10.0849 26.17 9.71354 26.0985 9.35589C26.0271 8.99823 25.8165 8.6836 25.5131 8.48121L23.375 7.05533V4.12521C23.375 3.76053 23.2301 3.4108 22.9723 3.15293C22.7144 2.89507 22.3647 2.75021 22 2.75021C21.6353 2.75021 21.2856 2.89507 21.0277 3.15293C20.7699 3.4108 20.625 3.76053 20.625 4.12521V5.22246ZM12.375 8.52796V16.5002H15.125V12.3752C15.125 12.0105 15.2699 11.6608 15.5277 11.4029C15.7856 11.1451 16.1353 11.0002 16.5 11.0002C16.8647 11.0002 17.2144 11.1451 17.4723 11.4029C17.7301 11.6608 17.875 12.0105 17.875 12.3752V16.5002H20.625V8.52796L16.5 5.77796L12.375 8.52796Z" fill="#3F3F3F"/>
</svg>
