<svg width="24" height="24" viewBox="0 0 24 24" fill="none" xmlns="http://www.w3.org/2000/svg">
<g clip-path="url(#clip0_987_3216)">
<path d="M23.2199 12.7102L21.8699 14.1402C21.75 14.2636 21.664 14.4159 21.6202 14.5824C21.5764 14.7488 21.5763 14.9237 21.6199 15.0902L22.0699 17.0002C22.1047 17.1276 22.1138 17.2606 22.0969 17.3915C22.0799 17.5225 22.0372 17.6488 21.9712 17.7631C21.9052 17.8775 21.8172 17.9776 21.7123 18.0578C21.6074 18.1379 21.4876 18.1965 21.3599 18.2302L19.4799 18.7902C19.3125 18.8361 19.16 18.9247 19.0372 19.0475C18.9145 19.1702 18.8258 19.3228 18.7799 19.4902L18.2199 21.3702C18.1863 21.4979 18.1277 21.6176 18.0475 21.7225C17.9674 21.8274 17.8672 21.9154 17.7529 21.9814C17.6385 22.0475 17.5122 22.0902 17.3813 22.1071C17.2503 22.1241 17.1173 22.1149 16.9899 22.0802L15.0799 21.6302C14.9135 21.5866 14.7385 21.5867 14.5721 21.6305C14.4057 21.6743 14.2534 21.7603 14.1299 21.8802L12.6999 23.2302C12.607 23.3239 12.4964 23.3983 12.3745 23.4491C12.2526 23.4998 12.1219 23.526 11.9899 23.526C11.8579 23.526 11.7272 23.4998 11.6054 23.4491C11.4835 23.3983 11.3729 23.3239 11.2799 23.2302L9.85993 21.8702C9.73647 21.7503 9.58417 21.6643 9.41774 21.6205C9.25132 21.5767 9.07641 21.5766 8.90993 21.6202L6.99993 22.0702C6.87254 22.1049 6.73954 22.1141 6.60859 22.0971C6.47764 22.0802 6.35135 22.0375 6.237 21.9714C6.12265 21.9054 6.0225 21.8174 5.94233 21.7125C5.86217 21.6076 5.80357 21.4879 5.76993 21.3602L5.20993 19.4802C5.16404 19.3128 5.07536 19.1602 4.95263 19.0375C4.82989 18.9147 4.67732 18.8261 4.50993 18.7802L2.62993 18.2202C2.37612 18.15 2.16025 17.9825 2.02919 17.754C1.89813 17.5256 1.86246 17.2547 1.92993 17.0002L2.37993 15.0902C2.42352 14.9237 2.42342 14.7488 2.37962 14.5824C2.33583 14.4159 2.24982 14.2636 2.12993 14.1402L0.779929 12.7102C0.686201 12.6172 0.611806 12.5066 0.561038 12.3848C0.510269 12.2629 0.484131 12.1322 0.484131 12.0002C0.484131 11.8682 0.510269 11.7375 0.561038 11.6156C0.611806 11.4937 0.686201 11.3831 0.779929 11.2902L2.12993 9.86017C2.24982 9.73672 2.33583 9.58441 2.37962 9.41799C2.42342 9.25156 2.42352 9.07665 2.37993 8.91017L1.92993 7.00017C1.8952 6.87279 1.88605 6.73978 1.90299 6.60883C1.91994 6.47789 1.96265 6.3516 2.02866 6.23724C2.09466 6.12289 2.18267 6.02274 2.28758 5.94258C2.3925 5.86241 2.51225 5.80382 2.63993 5.77017L4.51993 5.21017C4.68732 5.16428 4.83989 5.0756 4.96263 4.95287C5.08536 4.83013 5.17403 4.67757 5.21993 4.51017L5.77993 2.63017C5.85014 2.37636 6.01764 2.16049 6.24606 2.02943C6.47448 1.89837 6.74537 1.8627 6.99993 1.93017L8.90993 2.38017C9.07641 2.42377 9.25132 2.42366 9.41774 2.37987C9.58417 2.33607 9.73647 2.25007 9.85993 2.13017L11.2899 0.780173C11.3829 0.686445 11.4935 0.612051 11.6154 0.561282C11.7372 0.510513 11.8679 0.484375 11.9999 0.484375C12.1319 0.484375 12.2626 0.510513 12.3845 0.561282C12.5064 0.612051 12.617 0.686445 12.7099 0.780173L14.1399 2.13017C14.2634 2.25007 14.4157 2.33607 14.5821 2.37987C14.7485 2.42366 14.9235 2.42377 15.0899 2.38017L16.9999 1.93017C17.1273 1.89545 17.2603 1.88629 17.3913 1.90324C17.5222 1.92018 17.6485 1.96289 17.7629 2.0289C17.8772 2.09491 17.9774 2.18291 18.0575 2.28783C18.1377 2.39274 18.1963 2.51249 18.2299 2.64017L18.7899 4.52017C18.8358 4.68757 18.9245 4.84014 19.0472 4.96287C19.17 5.0856 19.3225 5.17428 19.4899 5.22017L21.3699 5.78017C21.6237 5.85039 21.8396 6.01789 21.9707 6.2463C22.1017 6.47472 22.1374 6.74562 22.0699 7.00017L21.6199 8.91017C21.5763 9.07665 21.5764 9.25156 21.6202 9.41799C21.664 9.58441 21.75 9.73672 21.8699 9.86017L23.2199 11.2902C23.3137 11.3831 23.3881 11.4937 23.4388 11.6156C23.4896 11.7375 23.5157 11.8682 23.5157 12.0002C23.5157 12.1322 23.4896 12.2629 23.4388 12.3848C23.3881 12.5066 23.3137 12.6172 23.2199 12.7102Z" fill="#3586FF"/>
<path d="M12 19.5C16.1421 19.5 19.5 16.1421 19.5 12C19.5 7.85786 16.1421 4.5 12 4.5C7.85786 4.5 4.5 7.85786 4.5 12C4.5 16.1421 7.85786 19.5 12 19.5Z" fill="#ADCEFF"/>
</g>
<defs>
<clipPath id="clip0_987_3216">
<rect width="24" height="24" fill="white"/>
</clipPath>
</defs>
</svg>
