<svg width="24" height="24" viewBox="0 0 24 24" fill="none" xmlns="http://www.w3.org/2000/svg">
<path d="M14.5 3.00087C13.837 3.00087 13.2011 3.26426 12.7322 3.7331C12.2634 4.20195 12 4.83783 12 5.50087C12 6.16391 12.2634 6.7998 12.7322 7.26864C13.2011 7.73748 13.837 8.00087 14.5 8.00087C15.163 8.00087 15.7989 7.73748 16.2678 7.26864C16.7366 6.7998 17 6.16391 17 5.50087C17 4.83783 16.7366 4.20195 16.2678 3.7331C15.7989 3.26426 15.163 3.00087 14.5 3.00087ZM10 5.50087C9.99985 4.73492 10.1952 3.98161 10.5676 3.31227C10.94 2.64293 11.477 2.07972 12.1279 1.67597C12.7788 1.27221 13.522 1.04128 14.2871 1.00504C15.0522 0.9688 15.8139 1.12845 16.5 1.46887C17.1861 1.12886 17.9476 0.969529 18.7124 1.00597C19.4773 1.04241 20.2201 1.27342 20.8708 1.67712C21.5214 2.08083 22.0583 2.64388 22.4306 3.313C22.8029 3.98212 22.9982 4.73516 22.9982 5.50087C22.9982 6.26658 22.8029 7.01963 22.4306 7.68874C22.0583 8.35786 21.5214 8.92091 20.8708 9.32462C20.2201 9.72833 19.4773 9.95933 18.7124 9.99577C17.9476 10.0322 17.1861 9.87289 16.5 9.53287C15.8139 9.87329 15.0522 10.0329 14.2871 9.9967C13.522 9.96046 12.7788 9.72953 12.1279 9.32578C11.477 8.92202 10.94 8.35881 10.5676 7.68947C10.1952 7.02013 9.99985 6.26682 10 5.50087ZM18.25 7.98887C18.332 7.99687 18.4153 8.00087 18.5 8.00087C18.8384 8.00014 19.1731 7.93072 19.4839 7.79682C19.7946 7.66291 20.075 7.46732 20.3079 7.22187C20.5409 6.97643 20.7216 6.68625 20.8391 6.36892C20.9566 6.05158 21.0084 5.7137 20.9915 5.37573C20.9745 5.03777 20.8891 4.70676 20.7405 4.40277C20.5919 4.09877 20.3831 3.82811 20.1268 3.60719C19.8704 3.38627 19.5719 3.21969 19.2493 3.11753C18.9267 3.01537 18.5868 2.97976 18.25 3.01287C18.7392 3.75041 19.0001 4.61583 19 5.50087C19.0001 6.38591 18.7392 7.25134 18.25 7.98887ZM8.435 13.2509C8.27081 13.2504 8.10814 13.2824 7.95629 13.3448C7.80444 13.4073 7.66638 13.499 7.55 13.6149L5.5 15.6649V19.5009H11.127L16.93 18.0509L20.462 16.5429C20.5823 16.4779 20.6744 16.3707 20.7205 16.242C20.7667 16.1133 20.7637 15.972 20.7122 15.8454C20.6606 15.7187 20.5641 15.6156 20.4412 15.5557C20.3182 15.4958 20.1775 15.4834 20.046 15.5209L20.026 15.5259L13.614 17.0009H10V15.0009H13.125C13.3571 15.0009 13.5796 14.9087 13.7437 14.7446C13.9078 14.5805 14 14.3579 14 14.1259C14 13.8938 13.9078 13.6712 13.7437 13.5072C13.5796 13.3431 13.3571 13.2509 13.125 13.2509H8.435ZM15.987 14.4029L19.539 13.5859C19.9173 13.4864 20.3134 13.4749 20.6968 13.5524C21.0802 13.6298 21.4408 13.7941 21.7509 14.0326C22.0609 14.2711 22.3122 14.5775 22.4854 14.9282C22.6586 15.2789 22.7491 15.6647 22.75 16.0559C22.7496 16.5307 22.6171 16.9961 22.3674 17.4C22.1177 17.8038 21.7606 18.1303 21.336 18.3429L21.309 18.3569L17.569 19.9519L11.373 21.5009H0V14.2509H4.086L6.138 12.1989C6.44034 11.8976 6.79907 11.6588 7.1937 11.4961C7.58834 11.3334 8.01116 11.2501 8.438 11.2509H13.125C13.5259 11.2508 13.9225 11.3346 14.2891 11.4969C14.6557 11.6592 14.9843 11.8964 15.2539 12.1932C15.5234 12.49 15.7278 12.84 15.8541 13.2205C15.9804 13.6011 16.0256 14.0038 15.987 14.4029ZM3.5 16.2509H2V19.5009H3.5V16.2509Z" fill="#3586FF"/>
</svg>
