<svg width="24" height="24" viewBox="0 0 24 24" fill="none" xmlns="http://www.w3.org/2000/svg">
<path d="M6.49991 7.50016C6.62991 7.50016 6.75491 7.45016 6.85491 7.35516L8.35491 5.85516C8.54991 5.66016 8.54991 5.34516 8.35491 5.15016C8.15991 4.95516 7.84491 4.95516 7.64991 5.15016L6.14991 6.65016C5.95491 6.84516 5.95491 7.16016 6.14991 7.35516C6.24491 7.45016 6.36991 7.50016 6.49991 7.50016ZM7.14491 8.85516C7.24491 8.95016 7.36991 9.00016 7.49991 9.00016C7.62991 9.00016 7.75491 8.95016 7.85491 8.85516L10.3549 6.35516C10.5499 6.16016 10.5499 5.84516 10.3549 5.65016C10.1599 5.45516 9.84491 5.45516 9.64991 5.65016L7.14991 8.15016C6.94991 8.34016 6.94991 8.66016 7.14491 8.85516Z" fill="#3586FF"/>
<path d="M20 1.5H12H4C3.725 1.5 3.5 1.725 3.5 2V12V22C3.5 22.275 3.725 22.5 4 22.5H12H20C20.275 22.5 20.5 22.275 20.5 22V12V2C20.5 1.725 20.275 1.5 20 1.5ZM11.5 21.5H4.5V12.5H11.5V21.5ZM11.5 11.5H4.5V2.5H11.5V11.5ZM19.5 21.5H12.5V12.5H19.5V21.5ZM19.5 11.5H12.5V2.5H19.5V11.5Z" fill="#3586FF"/>
<path d="M14.4999 7.50016C14.6299 7.50016 14.7549 7.45016 14.8549 7.35516L16.3549 5.85516C16.5499 5.66016 16.5499 5.34516 16.3549 5.15016C16.1599 4.95516 15.8449 4.95516 15.6499 5.15016L14.1499 6.65016C13.9549 6.84516 13.9549 7.16016 14.1499 7.35516C14.2449 7.45016 14.3699 7.50016 14.4999 7.50016ZM15.1449 8.85516C15.2449 8.95016 15.3699 9.00016 15.4999 9.00016C15.6299 9.00016 15.7549 8.95016 15.8549 8.85516L18.3549 6.35516C18.5499 6.16016 18.5499 5.84516 18.3549 5.65016C18.1599 5.45516 17.8449 5.45516 17.6499 5.65016L15.1499 8.15016C14.9499 8.34016 14.9499 8.66016 15.1449 8.85516ZM6.49991 17.5002C6.62991 17.5002 6.75491 17.4502 6.85491 17.3552L8.35491 15.8552C8.54991 15.6602 8.54991 15.3452 8.35491 15.1502C8.15991 14.9552 7.84491 14.9552 7.64991 15.1502L6.14991 16.6502C5.95491 16.8452 5.95491 17.1602 6.14991 17.3552C6.24491 17.4502 6.36991 17.5002 6.49991 17.5002ZM7.14491 18.8552C7.24491 18.9502 7.36991 19.0002 7.49991 19.0002C7.62991 19.0002 7.75491 18.9502 7.85491 18.8552L10.3549 16.3552C10.5499 16.1602 10.5499 15.8452 10.3549 15.6502C10.1599 15.4552 9.84491 15.4552 9.64991 15.6502L7.14991 18.1502C6.94991 18.3402 6.94991 18.6602 7.14491 18.8552ZM14.4999 17.5002C14.6299 17.5002 14.7549 17.4502 14.8549 17.3552L16.3549 15.8552C16.5499 15.6602 16.5499 15.3452 16.3549 15.1502C16.1599 14.9552 15.8449 14.9552 15.6499 15.1502L14.1499 16.6502C13.9549 16.8452 13.9549 17.1602 14.1499 17.3552C14.2449 17.4502 14.3699 17.5002 14.4999 17.5002ZM15.1449 18.8552C15.2449 18.9502 15.3699 19.0002 15.4999 19.0002C15.6299 19.0002 15.7549 18.9502 15.8549 18.8552L18.3549 16.3552C18.5499 16.1602 18.5499 15.8452 18.3549 15.6502C18.1599 15.4552 17.8449 15.4552 17.6499 15.6502L15.1499 18.1502C14.9499 18.3402 14.9499 18.6602 15.1449 18.8552Z" fill="#3586FF"/>
</svg>
