<svg width="24" height="24" viewBox="0 0 24 24" fill="none" xmlns="http://www.w3.org/2000/svg">
<path d="M7.5 0.375H3C2.90054 0.375 2.80516 0.414509 2.73484 0.484835C2.66451 0.555161 2.625 0.650544 2.625 0.75V14.625C2.625 14.7245 2.66451 14.8198 2.73484 14.8902C2.80516 14.9605 2.90054 15 3 15H7.125V23.25C7.125 23.3495 7.16451 23.4448 7.23483 23.5152C7.30516 23.5855 7.40054 23.625 7.5 23.625H12C12.0995 23.625 12.1948 23.5855 12.2652 23.5152C12.3355 23.4448 12.375 23.3495 12.375 23.25V15H16.125V23.25C16.125 23.3495 16.1645 23.4448 16.2348 23.5152C16.3052 23.5855 16.4005 23.625 16.5 23.625H21C21.0995 23.625 21.1948 23.5855 21.2652 23.5152C21.3355 23.4448 21.375 23.3495 21.375 23.25V9.375C21.375 9.27554 21.3355 9.18016 21.2652 9.10983C21.1948 9.03951 21.0995 9 21 9H16.875V0.75C16.875 0.650544 16.8355 0.555161 16.7652 0.484835C16.6948 0.414509 16.5995 0.375 16.5 0.375H12C11.9005 0.375 11.8052 0.414509 11.7348 0.484835C11.6645 0.555161 11.625 0.650544 11.625 0.75V9H7.875V0.75C7.875 0.650544 7.83549 0.555161 7.76517 0.484835C7.69484 0.414509 7.59946 0.375 7.5 0.375ZM3.375 14.25V1.125H7.125V14.25H3.375ZM20.625 9.75V22.875H16.875V9.75H20.625ZM12.375 1.125H16.125V14.25H12.375V1.125ZM11.625 9.75V22.875H7.875V9.75H11.625Z" fill="#3586FF"/>
</svg>
