<svg width="35" height="35" viewBox="0 0 35 35" fill="none" xmlns="http://www.w3.org/2000/svg">
<path d="M4.03613 18.2266H3.78457C3.63691 18.2266 3.5166 18.3469 3.5166 18.4945C3.5166 18.6422 3.63691 18.7625 3.78457 18.7625H4.03613C4.18379 18.7625 4.3041 18.6422 4.3041 18.4945C4.3041 18.3469 4.18379 18.2266 4.03613 18.2266Z" fill="black"/>
<path d="M34.2617 16.6301H32.7086V15.5254C32.7086 15.2465 32.4844 15.0223 32.2055 15.0223H31.2812V11.8996H33.6766C33.8516 11.8996 34.0102 11.8176 34.1086 11.6809C34.2125 11.5387 34.2453 11.3637 34.1906 11.1996L32.8453 6.80273C32.7742 6.57305 32.5664 6.41992 32.3258 6.41992H29.7445C29.5039 6.41992 29.2906 6.58398 29.225 6.81367L27.9781 11.2105C27.9344 11.3746 27.9672 11.5496 28.0711 11.6809C28.1695 11.8176 28.3281 11.8996 28.4977 11.8996H30.7453V15.0223H29.8211C29.5422 15.0223 29.318 15.2465 29.318 15.5254V16.6301H28.0383V15.4816C28.0383 15.0059 27.6445 14.623 27.1578 14.623H7.84219C7.35547 14.623 6.96172 15.0113 6.96172 15.4816V16.6301H5.68203V15.5254C5.68203 15.2465 5.45781 15.0223 5.17891 15.0223H4.25469V11.8996H6.50234C6.67188 11.8996 6.825 11.8176 6.92891 11.6863C7.03281 11.5496 7.06563 11.3746 7.02187 11.2105L5.775 6.81367C5.70938 6.58398 5.49609 6.41992 5.25547 6.41992H2.67422C2.43359 6.41992 2.22578 6.57305 2.15469 6.80273L0.809375 11.1996C0.754687 11.3637 0.7875 11.5387 0.891406 11.6809C0.989844 11.8176 1.14844 11.8996 1.32344 11.8996H3.71875V15.0223H2.79453C2.51562 15.0223 2.29141 15.2465 2.29141 15.5254V16.6301H0.738281C0.333594 16.6301 0 16.9691 0 17.3902V23.5809C0 23.9965 0.333594 24.3355 0.738281 24.3355H4.24922V27.9121C4.24922 28.2785 4.55 28.5793 4.91641 28.5793H7.18594C7.55781 28.5793 7.85859 28.2785 7.85859 27.9121V26.277C7.85859 26.102 7.99531 25.9598 8.17031 25.9598H26.6711C26.8461 25.9598 26.9883 26.102 26.9883 26.277V27.9121C26.9883 28.2785 27.2836 28.5793 27.6555 28.5793H29.925C30.2914 28.5793 30.5922 28.2785 30.5922 27.9121V24.3355H34.2617C34.6664 24.3355 35 23.9965 35 23.5809V17.3848C35 16.9691 34.6664 16.6301 34.2617 16.6301ZM7.50313 16.9035C7.50313 16.898 7.50313 16.8926 7.50313 16.8926V15.4816C7.50313 15.3066 7.65625 15.159 7.84219 15.159H27.1578C27.3438 15.159 27.4969 15.3012 27.4969 15.4816V16.8926V16.898V16.9035V19.5395H26.2062V17.9535C26.2062 17.4723 25.8234 17.084 25.3477 17.084H19.0914C18.6211 17.084 18.2328 17.4723 18.2328 17.9535V19.5395H16.9422V17.9535C16.9422 17.4723 16.5594 17.084 16.0836 17.084H9.82734C9.35703 17.084 8.96875 17.4723 8.96875 17.9535V19.5395H7.50313V16.9035ZM0.535937 17.3902C0.535937 17.2699 0.628906 17.166 0.738281 17.166H2.50469C2.52109 17.1715 2.54297 17.1715 2.55937 17.1715C2.57578 17.1715 2.59766 17.1715 2.61406 17.166H5.35938C5.37578 17.1715 5.39766 17.1715 5.41406 17.1715C5.43047 17.1715 5.45234 17.1715 5.46875 17.166H6.96172V19.5395H6.04297C6.0375 19.5395 6.03203 19.5395 6.02656 19.5395H0.535937V17.3902ZM5.06953 20.0809C4.96016 20.2559 4.9 20.4637 4.9 20.6879V22.3395C4.52266 22.4543 4.24922 22.8098 4.24922 23.2363V23.7996H0.738281C0.628906 23.7996 0.535937 23.7012 0.535937 23.5809V20.0809H5.06953ZM13.4312 24.3957H12.4742C12.3266 24.3957 12.2063 24.2754 12.2063 24.1277C12.2063 23.9801 12.3266 23.8598 12.4742 23.8598H13.4312C13.5844 23.8598 13.7047 23.9801 13.7047 24.1277C13.7047 24.2754 13.5844 24.3957 13.4312 24.3957ZM16.4117 24.3957H15.4547C15.3016 24.3957 15.1813 24.2754 15.1813 24.1277C15.1813 23.9801 15.3016 23.8598 15.4547 23.8598H16.4117C16.5594 23.8598 16.6797 23.9801 16.6797 24.1277C16.6797 24.2754 16.5594 24.3957 16.4117 24.3957ZM19.3922 24.3957H18.4297C18.282 24.3957 18.1617 24.2754 18.1617 24.1277C18.1617 23.9801 18.282 23.8598 18.4297 23.8598H19.3922C19.5398 23.8598 19.6602 23.9801 19.6602 24.1277C19.6602 24.2754 19.5398 24.3957 19.3922 24.3957ZM22.3672 24.3957H21.4102C21.2625 24.3957 21.1422 24.2754 21.1422 24.1277C21.1422 23.9801 21.2625 23.8598 21.4102 23.8598H22.3672C22.5148 23.8598 22.6352 23.9801 22.6352 24.1277C22.6352 24.2754 22.5148 24.3957 22.3672 24.3957ZM29.5039 22.2957H5.43594V20.6879C5.43594 20.3543 5.70937 20.0809 6.04297 20.0809H28.8969C29.2305 20.0809 29.5039 20.3543 29.5039 20.6879V22.2957ZM34.4586 23.5809C34.4586 23.7012 34.3711 23.7996 34.2617 23.7996H30.5922V23.2363C30.5922 22.848 30.368 22.5199 30.0398 22.3777V20.6879C30.0398 20.4637 29.9797 20.2559 29.8703 20.0809H34.4586V23.5809ZM34.4586 19.5395H28.968C28.9625 19.5395 28.9625 19.5395 28.957 19.5395H28.0383V17.1715H34.2617C34.3711 17.1715 34.4586 17.2645 34.4586 17.3848V19.5395Z" fill="black"/>
<path d="M31.2158 18.2266H30.9643C30.8166 18.2266 30.6963 18.3469 30.6963 18.4945C30.6963 18.6422 30.8166 18.7625 30.9643 18.7625H31.2158C31.3635 18.7625 31.4838 18.6422 31.4838 18.4945C31.4838 18.3469 31.3635 18.2266 31.2158 18.2266Z" fill="black"/>
</svg>
