<svg width="35" height="35" viewBox="0 0 35 35" fill="none" xmlns="http://www.w3.org/2000/svg">
<g clip-path="url(#clip0_1241_4882)">
<path d="M33.6328 0H1.36719C0.825781 0 0.382812 0.4375 0.382812 0.978906C0.382812 1.52031 0.825781 1.95781 1.36719 1.95781H33.6328C34.1688 1.95781 34.6117 1.52031 34.6117 0.978906C34.6117 0.4375 34.1742 0 33.6328 0ZM2.47187 33.1844H4.33125V35H6.78672V33.1844H28.2078V35H30.6633V33.1844H32.5281V3.12812H2.47187V33.1844ZM4.57188 5.20078C4.57188 4.87813 4.83438 4.61562 5.15703 4.61562H29.843C30.1711 4.61562 30.4281 4.87813 30.4281 5.20078V12.1187C30.4281 12.4469 30.1711 12.7039 29.843 12.7039H5.15703C4.83438 12.7039 4.57188 12.4469 4.57188 12.1187V5.20078ZM4.57188 14.7C4.57188 14.3719 4.83438 14.1148 5.15703 14.1148H17.5H29.843C30.1711 14.1148 30.4281 14.3719 30.4281 14.7V21.618C30.4281 21.9406 30.1711 22.2031 29.843 22.2031H5.15703C4.83438 22.2031 4.57188 21.9406 4.57188 21.618V14.7ZM4.57188 24.1883C4.57188 23.8656 4.83438 23.6031 5.15703 23.6031H29.843C30.1711 23.6031 30.4281 23.8656 30.4281 24.1883V31.1063C30.4281 31.4289 30.1711 31.6914 29.843 31.6914H5.15703C4.83438 31.6914 4.57188 31.4289 4.57188 31.1063V24.1883Z" fill="white"/>
<path d="M29.2578 5.78516H5.74219V11.5383H29.2578V5.78516ZM19.1023 9.24688H15.8922C15.7414 9.24035 15.5989 9.17585 15.4945 9.06683C15.3901 8.9578 15.3318 8.81268 15.3318 8.66172C15.3318 8.51076 15.3901 8.36563 15.4945 8.25661C15.5989 8.14759 15.7414 8.08308 15.8922 8.07656H19.1023C19.2532 8.08308 19.3956 8.14759 19.5 8.25661C19.6045 8.36563 19.6627 8.51076 19.6627 8.66172C19.6627 8.81268 19.6045 8.9578 19.5 9.06683C19.3956 9.17585 19.2532 9.24035 19.1023 9.24688ZM29.2578 15.2844H5.74219V21.0375H29.2578V15.2844ZM19.1023 18.7406H15.8922C15.7414 18.7341 15.5989 18.6696 15.4945 18.5606C15.3901 18.4516 15.3318 18.3064 15.3318 18.1555C15.3318 18.0045 15.3901 17.8594 15.4945 17.7504C15.5989 17.6413 15.7414 17.5768 15.8922 17.5703H19.1023C19.2532 17.5768 19.3956 17.6413 19.5 17.7504C19.6045 17.8594 19.6627 18.0045 19.6627 18.1555C19.6627 18.3064 19.6045 18.4516 19.5 18.5606C19.3956 18.6696 19.2532 18.7341 19.1023 18.7406ZM29.2578 24.7727H5.74219V30.5258H29.2578V24.7727ZM19.1023 28.2344H15.8922C15.7414 28.2279 15.5989 28.1634 15.4945 28.0543C15.3901 27.9453 15.3318 27.8002 15.3318 27.6492C15.3318 27.4983 15.3901 27.3531 15.4945 27.2441C15.5989 27.1351 15.7414 27.0706 15.8922 27.0641H19.1023C19.2532 27.0706 19.3956 27.1351 19.5 27.2441C19.6045 27.3531 19.6627 27.4983 19.6627 27.6492C19.6627 27.8002 19.6045 27.9453 19.5 28.0543C19.3956 28.1634 19.2532 28.2279 19.1023 28.2344Z" fill="#E4EFFF"/>
</g>
<defs>
<clipPath id="clip0_1241_4882">
<rect width="35" height="35" fill="white"/>
</clipPath>
</defs>
</svg>
