<svg width="35" height="35" viewBox="0 0 35 35" fill="none" xmlns="http://www.w3.org/2000/svg">
<path d="M13.9072 16.1766H19.0041C19.1491 16.1766 19.2882 16.1189 19.3908 16.0164C19.4934 15.9138 19.551 15.7747 19.551 15.6297V14.1695C19.5495 13.4071 19.246 12.6762 18.7069 12.1371C18.1677 11.5979 17.4369 11.2944 16.6744 11.293H13.9072C13.7622 11.293 13.6231 11.3506 13.5205 11.4531C13.418 11.5557 13.3604 11.6948 13.3604 11.8398V15.6297C13.3604 15.7747 13.418 15.9138 13.5205 16.0164C13.6231 16.1189 13.7622 16.1766 13.9072 16.1766ZM14.4541 12.3867H16.6744C16.9085 12.3867 17.1404 12.4328 17.3567 12.5224C17.573 12.612 17.7695 12.7433 17.9351 12.9089C18.1006 13.0744 18.2319 13.271 18.3215 13.4873C18.4111 13.7036 18.4572 13.9354 18.4572 14.1695V15.0828H14.4541V12.3867Z" fill="black"/>
<path d="M32.1016 4.95532C30.7398 4.95532 29.75 5.80298 29.0445 6.54673C29.0254 6.56226 29.0087 6.58072 28.9953 6.60142L21.8367 16.4069V13.6725C21.8367 11.2608 20.1195 9.29751 18.0086 9.29751H11.3641C11.219 9.29751 11.0799 9.35513 10.9774 9.45769C10.8748 9.56025 10.8172 9.69935 10.8172 9.84439V16.3413H5.46875C5.32371 16.3413 5.18461 16.3989 5.08205 16.5014C4.97949 16.604 4.92188 16.7431 4.92188 16.8881V24.0631C4.92188 24.2082 4.97949 24.3473 5.08205 24.4498C5.18461 24.5524 5.32371 24.61 5.46875 24.61H7.24609V25.1569H6.09766C5.10413 25.1569 4.1513 25.5516 3.44877 26.2541C2.74624 26.9566 2.35156 27.9095 2.35156 28.903C2.35156 29.8965 2.74624 30.8493 3.44877 31.5519C4.1513 32.2544 5.10413 32.6491 6.09766 32.6491H21.7547C22.7482 32.6491 23.701 32.2544 24.4036 31.5519C25.1061 30.8493 25.5008 29.8965 25.5008 28.903C25.5008 27.9095 25.1061 26.9566 24.4036 26.2541C23.701 25.5516 22.7482 25.1569 21.7547 25.1569H20.3055V24.435C20.3206 24.4191 20.3371 24.4045 20.3547 24.3913L29.2961 12.36V24.1288C29.297 24.2002 29.3118 24.2708 29.3398 24.3366C28.5742 24.6538 27.9398 25.053 27.7812 25.5288C27.5844 26.1249 26.4742 26.9178 25.8234 27.2733C25.7162 27.3316 25.6316 27.4241 25.583 27.5361C25.5345 27.6481 25.5248 27.7731 25.5555 27.8913C25.5865 28.0116 25.6575 28.1178 25.7569 28.1923C25.8563 28.2669 25.9782 28.3053 26.1023 28.3014H32.118C32.263 28.3014 32.4021 28.2438 32.5047 28.1412C32.6072 28.0387 32.6648 27.8996 32.6648 27.7545V5.5022C32.6649 5.42898 32.6502 5.3565 32.6217 5.28906C32.5932 5.22162 32.5514 5.16058 32.4989 5.10958C32.4464 5.05858 32.3841 5.01865 32.3159 4.99215C32.2476 4.96565 32.1747 4.95313 32.1016 4.95532ZM18.0141 10.3913C19.518 10.3913 20.7484 11.8624 20.7484 13.6725V17.9272L18.8125 20.5577C18.0861 19.3533 17.079 18.3428 15.8771 17.6123C14.6753 16.8819 13.3145 16.4533 11.9109 16.3631V10.3913H18.0141ZM6.01562 17.435H11.3148C12.8464 17.4357 14.3425 17.8957 15.6098 18.7556C16.8772 19.6154 17.8576 20.8356 18.4242 22.2584L18.9273 23.5163H6.01562V17.435ZM24.407 28.9194C24.4056 29.6224 24.1257 30.2962 23.6286 30.7933C23.1315 31.2904 22.4577 31.5703 21.7547 31.5717H6.09766C5.39421 31.5717 4.71958 31.2923 4.22217 30.7949C3.72475 30.2975 3.44531 29.6228 3.44531 28.9194C3.44531 28.2159 3.72475 27.5413 4.22217 27.0439C4.71958 26.5465 5.39421 26.267 6.09766 26.267H21.7547C22.4553 26.267 23.1275 26.5442 23.6244 27.0381C24.1213 27.532 24.4027 28.2024 24.407 28.903V28.9194ZM8.33984 25.1569V24.61H19.2117V25.1569H8.33984ZM30.0125 10.2163C29.904 10.1808 29.7871 10.1802 29.6783 10.2146C29.5694 10.2489 29.474 10.3164 29.4055 10.4077L19.9555 23.0952L19.4578 21.8756C19.4578 21.8045 19.3977 21.7389 19.3703 21.6733L29.8539 7.27407C30.3062 6.74284 30.8939 6.34407 31.5547 6.12017V23.653C31.1992 23.735 30.7945 23.8389 30.3898 23.9647V10.7358C30.3898 10.6205 30.3532 10.5081 30.2854 10.4148C30.2177 10.3215 30.1221 10.252 30.0125 10.2163ZM30.3898 27.2077H27.8195C28.2554 26.8576 28.5974 26.4047 28.8148 25.8897C28.9844 25.6163 30.1055 25.1624 31.3906 24.7959V27.1803L30.3898 27.2077Z" fill="black"/>
<path d="M7.24629 26.7969C6.8277 26.7969 6.41852 26.921 6.07048 27.1536C5.72244 27.3861 5.45117 27.7167 5.29099 28.1034C5.1308 28.4901 5.08889 28.9157 5.17055 29.3262C5.25221 29.7367 5.45378 30.1138 5.74976 30.4098C6.04575 30.7058 6.42286 30.9074 6.8334 30.989C7.24394 31.0707 7.66948 31.0288 8.0562 30.8686C8.44293 30.7084 8.77346 30.4372 9.00602 30.0891C9.23857 29.7411 9.3627 29.3319 9.3627 28.9133C9.36125 28.3524 9.13781 27.815 8.74122 27.4184C8.34463 27.0218 7.80715 26.7983 7.24629 26.7969ZM7.24629 29.936C7.04403 29.936 6.84631 29.876 6.67813 29.7636C6.50996 29.6512 6.37888 29.4915 6.30148 29.3047C6.22408 29.1178 6.20382 28.9122 6.24328 28.7138C6.28274 28.5154 6.38014 28.3332 6.52316 28.1902C6.66618 28.0472 6.8484 27.9498 7.04678 27.9103C7.24516 27.8708 7.45078 27.8911 7.63764 27.9685C7.82451 28.0459 7.98423 28.177 8.0966 28.3452C8.20897 28.5133 8.26895 28.711 8.26895 28.9133C8.26607 29.1826 8.15705 29.4399 7.96558 29.6294C7.7741 29.8188 7.51563 29.925 7.24629 29.925V29.936ZM11.758 26.7969C11.3394 26.7969 10.9302 26.921 10.5822 27.1536C10.2342 27.3861 9.96289 27.7167 9.8027 28.1034C9.64252 28.4901 9.60061 28.9157 9.68227 29.3262C9.76393 29.7367 9.9655 30.1138 10.2615 30.4098C10.5575 30.7058 10.9346 30.9074 11.3451 30.989C11.7557 31.0707 12.1812 31.0288 12.5679 30.8686C12.9546 30.7084 13.2852 30.4372 13.5177 30.0891C13.7503 29.7411 13.8744 29.3319 13.8744 28.9133C13.873 28.3524 13.6495 27.815 13.2529 27.4184C12.8563 27.0218 12.3189 26.7983 11.758 26.7969ZM11.758 29.936C11.5557 29.936 11.358 29.876 11.1899 29.7636C11.0217 29.6512 10.8906 29.4915 10.8132 29.3047C10.7358 29.1178 10.7155 28.9122 10.755 28.7138C10.7945 28.5154 10.8919 28.3332 11.0349 28.1902C11.1779 28.0472 11.3601 27.9498 11.5585 27.9103C11.7569 27.8708 11.9625 27.8911 12.1494 27.9685C12.3362 28.0459 12.4959 28.177 12.6083 28.3452C12.7207 28.5133 12.7807 28.711 12.7807 28.9133C12.7778 29.1826 12.6688 29.4399 12.4773 29.6294C12.2858 29.8188 12.0273 29.925 11.758 29.925V29.936ZM16.1877 26.7969C15.7691 26.7969 15.3599 26.921 15.0119 27.1536C14.6638 27.3861 14.3926 27.7167 14.2324 28.1034C14.0722 28.4901 14.0303 28.9157 14.112 29.3262C14.1936 29.7367 14.3952 30.1138 14.6912 30.4098C14.9872 30.7058 15.3643 30.9074 15.7748 30.989C16.1853 31.0707 16.6109 31.0288 16.9976 30.8686C17.3843 30.7084 17.7149 30.4372 17.9474 30.0891C18.18 29.7411 18.3041 29.3319 18.3041 28.9133C18.3041 28.352 18.0811 27.8137 17.6842 27.4168C17.2873 27.0199 16.749 26.7969 16.1877 26.7969ZM16.1877 29.936C15.9854 29.936 15.7877 29.876 15.6195 29.7636C15.4514 29.6512 15.3203 29.4915 15.2429 29.3047C15.1655 29.1178 15.1452 28.9122 15.1847 28.7138C15.2241 28.5154 15.3215 28.3332 15.4646 28.1902C15.6076 28.0472 15.7898 27.9498 15.9882 27.9103C16.1866 27.8708 16.3922 27.8911 16.5791 27.9685C16.7659 28.0459 16.9256 28.177 17.038 28.3452C17.1504 28.5133 17.2104 28.711 17.2104 28.9133C17.2075 29.1826 17.0985 29.4399 16.907 29.6294C16.7155 29.8188 16.457 29.925 16.1877 29.925V29.936ZM18.5939 28.9024C18.5918 29.3219 18.7143 29.7326 18.9461 30.0823C19.1778 30.432 19.5082 30.705 19.8954 30.8665C20.2825 31.028 20.709 31.0709 21.1205 30.9896C21.5321 30.9082 21.9102 30.7064 22.2069 30.4098C22.5035 30.1132 22.7053 29.7351 22.7866 29.3235C22.8679 28.9119 22.8251 28.4855 22.6635 28.0983C22.502 27.7112 22.229 27.3807 21.8793 27.149C21.5296 26.9173 21.1189 26.7947 20.6994 26.7969C20.1419 26.7998 19.608 27.0225 19.2138 27.4168C18.8196 27.811 18.5968 28.3449 18.5939 28.9024ZM20.6994 27.8907C20.9026 27.8885 21.1018 27.9469 21.2716 28.0584C21.4415 28.17 21.5743 28.3296 21.653 28.5169C21.7318 28.7042 21.7529 28.9107 21.7138 29.1101C21.6747 29.3095 21.5771 29.4927 21.4334 29.6364C21.2897 29.7801 21.1065 29.8777 20.9071 29.9168C20.7077 29.9559 20.5012 29.9347 20.3139 29.856C20.1266 29.7772 19.967 29.6444 19.8555 29.4746C19.7439 29.3048 19.6855 29.1055 19.6877 28.9024C19.6905 28.6349 19.798 28.3792 19.9872 28.1901C20.1763 28.001 20.432 27.8935 20.6994 27.8907Z" fill="black"/>
</svg>
