<svg width="35" height="35" viewBox="0 0 35 35" fill="none" xmlns="http://www.w3.org/2000/svg">
<g clip-path="url(#clip0_1241_4902)">
<path d="M17.5008 24.6121C17.3559 24.6123 17.2171 24.6701 17.1148 24.7726C17.0125 24.8752 16.9551 25.0141 16.9553 25.159V25.4297H16.6827C16.5376 25.4297 16.3985 25.4873 16.296 25.5899C16.1934 25.6924 16.1358 25.8315 16.1358 25.9766C16.1358 26.1216 16.1934 26.2607 16.296 26.3633C16.3985 26.4658 16.5376 26.5234 16.6827 26.5234H16.9553V26.7996C16.9553 26.8712 16.9694 26.9422 16.9968 27.0084C17.0242 27.0746 17.0644 27.1347 17.1151 27.1853C17.1657 27.236 17.2259 27.2762 17.292 27.3036C17.3582 27.331 17.4292 27.3451 17.5008 27.3451C17.5724 27.3451 17.6434 27.331 17.7096 27.3036C17.7757 27.2762 17.8359 27.236 17.8865 27.1853C17.9372 27.1347 17.9774 27.0746 18.0048 27.0084C18.0322 26.9422 18.0463 26.8712 18.0463 26.7996V25.159C18.0464 25.0141 17.9891 24.8752 17.8868 24.7726C17.7845 24.6701 17.6456 24.6123 17.5008 24.6121ZM34.9316 14.1061L32.2629 7.37953C32.2059 7.22067 32.1014 7.08323 31.9635 6.98595C31.8256 6.88867 31.6611 6.83628 31.4923 6.83594H12.5912V4.64844C12.5912 4.43121 12.5051 4.22285 12.3516 4.06906C12.1982 3.91528 11.9901 3.82863 11.7728 3.82812H9.04529C8.82806 3.82863 8.6199 3.91528 8.46647 4.06906C8.31305 4.22285 8.22689 4.43121 8.22689 4.64844V6.83594H3.50927C3.34354 6.83539 3.18159 6.88548 3.0451 6.9795C2.90862 7.07352 2.80411 7.20698 2.74556 7.36203L0.063411 14.1241C0.00442779 14.289 -0.0140957 14.4656 0.00939883 14.6392C0.0328933 14.8127 0.0977187 14.978 0.198421 15.1213C0.299124 15.2646 0.432759 15.3815 0.588084 15.4624C0.743408 15.5432 0.91588 15.5856 1.09099 15.5859H33.9111C34.086 15.5857 34.2583 15.5435 34.4135 15.4629C34.5686 15.3822 34.7022 15.2655 34.8028 15.1225C34.9047 14.976 34.9697 14.8071 34.9921 14.6301C35.0146 14.4531 34.9937 14.2734 34.9316 14.1061Z" fill="black"/>
<path d="M2.77246 29.5312C2.77203 29.9656 2.94399 30.3823 3.25058 30.6899C3.55716 30.9975 3.97331 31.1709 4.40762 31.1719H30.592C31.0267 31.1714 31.4435 30.9984 31.7506 30.6907C32.0578 30.383 32.2302 29.966 32.2299 29.5312V19.4141H2.77246V29.5312ZM24.6092 21.3281C24.6096 21.1832 24.6674 21.0444 24.7698 20.9419C24.8723 20.8394 25.0111 20.7817 25.1561 20.7812H27.8904C28.0353 20.7817 28.1742 20.8394 28.2767 20.9419C28.3791 21.0444 28.4369 21.1832 28.4373 21.3281V24.0625C28.4369 24.2074 28.3791 24.3463 28.2767 24.4487C28.1742 24.5512 28.0353 24.6089 27.8904 24.6094H25.1561C25.0111 24.6089 24.8723 24.5512 24.7698 24.4487C24.6674 24.3463 24.6096 24.2074 24.6092 24.0625V21.3281ZM13.6717 21.875C13.6716 21.7314 13.6999 21.5891 13.7549 21.4564C13.8098 21.3237 13.8904 21.2031 13.992 21.1015C14.0935 21 14.2141 20.9194 14.3468 20.8644C14.4795 20.8095 14.6218 20.7812 14.7654 20.7812H20.2342C20.3778 20.7812 20.5201 20.8095 20.6528 20.8644C20.7855 20.9194 20.9061 21 21.0077 21.1015C21.1092 21.2031 21.1898 21.3237 21.2447 21.4564C21.2997 21.5891 21.328 21.7314 21.3279 21.875V30.0781H13.6717V21.875ZM6.56231 21.3281C6.56274 21.1832 6.62049 21.0444 6.72296 20.9419C6.82542 20.8394 6.96427 20.7817 7.10918 20.7812H9.84356C9.98846 20.7817 10.1273 20.8394 10.2298 20.9419C10.3322 21.0444 10.39 21.1832 10.3904 21.3281V24.0625C10.39 24.2074 10.3322 24.3463 10.2298 24.4487C10.1273 24.5512 9.98846 24.6089 9.84356 24.6094H7.10918C6.96427 24.6089 6.82542 24.5512 6.72296 24.4487C6.62049 24.3463 6.56274 24.2074 6.56231 24.0625V21.3281ZM2.77246 16.6797H32.2299V18.3203H2.77246V16.6797Z" fill="black"/>
</g>
<defs>
<clipPath id="clip0_1241_4902">
<rect width="35" height="35" fill="white"/>
</clipPath>
</defs>
</svg>
