<svg width="24" height="24" viewBox="0 0 24 24" fill="none" xmlns="http://www.w3.org/2000/svg">
<path d="M19.12 4H4.88C4.64661 4 4.42278 4.09271 4.25775 4.25775C4.09271 4.42278 4 4.64661 4 4.88V19.12C4 19.3534 4.09271 19.5772 4.25775 19.7423C4.42278 19.9073 4.64661 20 4.88 20H12.544V13.8H10.464V11.4H12.544V9.6C12.5009 9.17741 12.5508 8.7505 12.6902 8.34923C12.8295 7.94796 13.055 7.58204 13.3508 7.27713C13.6465 6.97222 14.0054 6.73571 14.4023 6.58419C14.7991 6.43267 15.2243 6.3698 15.648 6.4C16.2707 6.39617 16.893 6.42822 17.512 6.496V8.656H16.24C15.232 8.656 15.04 9.136 15.04 9.832V11.376H17.44L17.128 13.776H15.04V20H19.12C19.2356 20 19.35 19.9772 19.4568 19.933C19.5635 19.8888 19.6605 19.824 19.7423 19.7423C19.824 19.6605 19.8888 19.5635 19.933 19.4568C19.9772 19.35 20 19.2356 20 19.12V4.88C20 4.76444 19.9772 4.65001 19.933 4.54324C19.8888 4.43647 19.824 4.33946 19.7423 4.25775C19.6605 4.17603 19.5635 4.11121 19.4568 4.06699C19.35 4.02276 19.2356 4 19.12 4Z" fill="#FBFBFB"/>
</svg>
