<svg width="24" height="24" viewBox="0 0 24 24" fill="none" xmlns="http://www.w3.org/2000/svg">
<path fill-rule="evenodd" clip-rule="evenodd" d="M7.42885 4C6.51969 4 5.64775 4.36107 5.00475 5.00382C4.36176 5.64657 4.00035 6.51838 4 7.42754V16.5711C4 17.4805 4.36125 18.3527 5.00429 18.9957C5.64732 19.6387 6.51946 20 7.42885 20H16.5725C17.4816 19.9997 18.3534 19.6382 18.9962 18.9952C19.6389 18.3522 20 17.4803 20 16.5711V7.42754C19.9997 6.5186 19.6384 5.647 18.9957 5.00429C18.353 4.36158 17.4814 4.00035 16.5725 4H7.42885ZM17.5587 7.4328C17.5587 7.69472 17.4547 7.94592 17.2695 8.13112C17.0843 8.31633 16.8331 8.42038 16.5711 8.42038C16.3092 8.42038 16.058 8.31633 15.8728 8.13112C15.6876 7.94592 15.5836 7.69472 15.5836 7.4328C15.5836 7.17088 15.6876 6.91969 15.8728 6.73448C16.058 6.54928 16.3092 6.44523 16.5711 6.44523C16.8331 6.44523 17.0843 6.54928 17.2695 6.73448C17.4547 6.91969 17.5587 7.17088 17.5587 7.4328ZM12.002 9.26047C11.2756 9.26047 10.5789 9.54903 10.0653 10.0627C9.55166 10.5763 9.26311 11.2729 9.26311 11.9993C9.26311 12.7257 9.55166 13.4224 10.0653 13.936C10.5789 14.4497 11.2756 14.7382 12.002 14.7382C12.7284 14.7382 13.425 14.4497 13.9386 13.936C14.4523 13.4224 14.7408 12.7257 14.7408 11.9993C14.7408 11.2729 14.4523 10.5763 13.9386 10.0627C13.425 9.54903 12.7284 9.26047 12.002 9.26047ZM7.94502 11.9993C7.94502 10.9237 8.37231 9.89215 9.13289 9.13158C9.89347 8.371 10.925 7.94371 12.0007 7.94371C13.0763 7.94371 14.1078 8.371 14.8684 9.13158C15.629 9.89215 16.0563 10.9237 16.0563 11.9993C16.0563 13.075 15.629 14.1065 14.8684 14.8671C14.1078 15.6277 13.0763 16.055 12.0007 16.055C10.925 16.055 9.89347 15.6277 9.13289 14.8671C8.37231 14.1065 7.94502 13.075 7.94502 11.9993Z" fill="#FBFBFB"/>
</svg>
