<svg width="24" height="24" viewBox="0 0 24 24" fill="none" xmlns="http://www.w3.org/2000/svg">
<path d="M20 6.66195C19.3633 6.94721 18.6882 7.13455 17.9969 7.21778C18.7249 6.77611 19.2697 6.08141 19.5297 5.26309C18.8458 5.67531 18.0961 5.96421 17.3155 6.12048C16.7906 5.55163 16.0949 5.17436 15.3365 5.04733C14.5781 4.92031 13.7996 5.05063 13.1218 5.41806C12.4441 5.78548 11.9052 6.36941 11.5889 7.07907C11.2726 7.78873 11.1967 8.58436 11.3728 9.34226C9.98592 9.27198 8.62911 8.907 7.39051 8.27104C6.15191 7.63507 5.05921 6.74234 4.18337 5.65082C3.87338 6.19013 3.71049 6.80321 3.71136 7.42727C3.71136 8.65212 4.32764 9.73422 5.2625 10.3678C4.70877 10.3501 4.16723 10.1986 3.683 9.92597V9.96905C3.68298 10.7849 3.96157 11.5757 4.47152 12.2073C4.98148 12.8388 5.69141 13.2723 6.48089 13.4341C5.96688 13.5754 5.42786 13.5962 4.90473 13.4949C5.12733 14.1972 5.56123 14.8114 6.14564 15.2514C6.73006 15.6915 7.43573 15.9353 8.1638 15.9489C7.44023 16.5245 6.61173 16.95 5.72568 17.201C4.83963 17.4521 3.91341 17.5237 3 17.4119C4.59427 18.4504 6.45012 19.0017 8.3456 19C14.762 19 18.2696 13.6166 18.2696 8.94778C18.2696 8.79573 18.2662 8.64199 18.2596 8.49078C18.9421 7.99101 19.5311 7.372 19.9992 6.6628" fill="#FBFBFB"/>
</svg>
