<svg width="24" height="24" viewBox="0 0 24 24" fill="none" xmlns="http://www.w3.org/2000/svg">
<path d="M12 4C16.4184 4 20 7.5816 20 12C20 16.4184 16.4184 20 12 20C10.5862 20.0023 9.19733 19.6281 7.97601 18.916L4.00321 20L5.08481 16.0256C4.37209 14.8039 3.99765 13.4144 4.00001 12C4.00001 7.5816 7.58161 4 12 4ZM9.27361 8.24L9.11361 8.2464C9.01003 8.25271 8.90879 8.27992 8.81601 8.3264C8.72922 8.37554 8.65001 8.43698 8.58081 8.5088C8.48481 8.5992 8.43041 8.6776 8.37201 8.7536C8.07611 9.13832 7.91679 9.61065 7.91921 10.096C7.92081 10.488 8.02321 10.8696 8.18321 11.2264C8.51041 11.948 9.04881 12.712 9.75921 13.42C9.93041 13.5904 10.0984 13.7616 10.2792 13.9208C11.1619 14.698 12.2138 15.2584 13.3512 15.5576L13.8056 15.6272C13.9536 15.6352 14.1016 15.624 14.2504 15.6168C14.4834 15.6048 14.7109 15.5417 14.9168 15.432C15.0216 15.378 15.1238 15.3193 15.2232 15.256C15.2232 15.256 15.2576 15.2336 15.3232 15.184C15.4312 15.104 15.4976 15.0472 15.5872 14.9536C15.6536 14.8848 15.7112 14.804 15.7552 14.712C15.8176 14.5816 15.88 14.3328 15.9056 14.1256C15.9248 13.9672 15.9192 13.8808 15.9168 13.8272C15.9136 13.7416 15.8424 13.6528 15.7648 13.6152L15.2992 13.4064C15.2992 13.4064 14.6032 13.1032 14.1776 12.9096C14.1331 12.8901 14.0853 12.879 14.0368 12.8768C13.9821 12.8712 13.9268 12.8773 13.8746 12.8949C13.8224 12.9124 13.7746 12.9409 13.7344 12.9784C13.7304 12.9768 13.6768 13.0224 13.0984 13.7232C13.0652 13.7678 13.0195 13.8015 12.967 13.82C12.9146 13.8386 12.8579 13.8411 12.804 13.8272C12.7519 13.8132 12.7008 13.7956 12.6512 13.7744C12.552 13.7328 12.5176 13.7168 12.4496 13.688C11.9905 13.4876 11.5654 13.2169 11.1896 12.8856C11.0888 12.7976 10.9952 12.7016 10.8992 12.6088C10.5845 12.3074 10.3102 11.9664 10.0832 11.5944L10.036 11.5184C10.0021 11.4673 9.97469 11.4122 9.95441 11.3544C9.92401 11.2368 10.0032 11.1424 10.0032 11.1424C10.0032 11.1424 10.1976 10.9296 10.288 10.8144C10.376 10.7024 10.4504 10.5936 10.4984 10.516C10.5928 10.364 10.6224 10.208 10.5728 10.0872C10.3488 9.54 10.1168 8.9952 9.87841 8.4544C9.83121 8.3472 9.69121 8.2704 9.56401 8.2552C9.52081 8.2504 9.47761 8.2456 9.43441 8.2424C9.32697 8.23706 9.21932 8.23813 9.11201 8.2456L9.27361 8.24Z" fill="#FBFBFB"/>
</svg>
