<svg width="22" height="22" viewBox="0 0 22 22" fill="none" xmlns="http://www.w3.org/2000/svg">
<path d="M21.5 22H0.5V21H21.5V22ZM7 6V20.5H1.5V7.5C1.5 7.10218 1.65804 6.72064 1.93934 6.43934C2.22064 6.15804 2.60218 6 3 6H7ZM4 17.5H3V18.5H4V17.5ZM4 14.5H3V15.5H4V14.5ZM4 11.5H3V12.5H4V11.5ZM4 8.5H3V9.5H4V8.5ZM6 17.5H5V18.5H6V17.5ZM6 14.5H5V15.5H6V14.5ZM6 11.5H5V12.5H6V11.5ZM6 8.5H5V9.5H6V8.5ZM20.5 7.5V20.5H15V6H19C19.3978 6 19.7794 6.15804 20.0607 6.43934C20.342 6.72064 20.5 7.10218 20.5 7.5ZM17 17.5H16V18.5H17V17.5ZM17 14.5H16V15.5H17V14.5ZM17 11.5H16V12.5H17V11.5ZM17 8.5H16V9.5H17V8.5ZM19 17.5H18V18.5H19V17.5ZM19 14.5H18V15.5H19V14.5ZM19 11.5H18V12.5H19V11.5ZM19 8.5H18V9.5H19V8.5ZM14.5 1.5V20.5H7.5V1.5C7.5 1.10218 7.65804 0.720644 7.93934 0.43934C8.22064 0.158035 8.60218 0 9 0H13C13.3978 0 13.7794 0.158035 14.0607 0.43934C14.342 0.720644 14.5 1.10218 14.5 1.5ZM10.5 17.5H9.5V18.5H10.5V17.5ZM10.5 14.5H9.5V15.5H10.5V14.5ZM10.5 11.5H9.5V12.5H10.5V11.5ZM10.5 8.5H9.5V9.5H10.5V8.5ZM10.5 5.5H9.5V6.5H10.5V5.5ZM10.5 2.5H9.5V3.5H10.5V2.5ZM12.5 17.5H11.5V18.5H12.5V17.5ZM12.5 14.5H11.5V15.5H12.5V14.5ZM12.5 11.5H11.5V12.5H12.5V11.5ZM12.5 8.5H11.5V9.5H12.5V8.5ZM12.5 5.5H11.5V6.5H12.5V5.5ZM12.5 2.5H11.5V3.5H12.5V2.5Z" fill="#7B7C83"/>
</svg>
