<svg width="20" height="18" viewBox="0 0 20 18" fill="none" xmlns="http://www.w3.org/2000/svg">
<path d="M18 9V1C18 0.734784 17.8946 0.48043 17.7071 0.292893C17.5196 0.105357 17.2652 0 17 0C16.7348 0 16.4804 0.105357 16.2929 0.292893C16.1054 0.48043 16 0.734784 16 1V3H4V1C4 0.734784 3.89464 0.48043 3.70711 0.292893C3.51957 0.105357 3.26522 0 3 0C2.73478 0 2.48043 0.105357 2.29289 0.292893C2.10536 0.48043 2 0.734784 2 1V9C1.46957 9 0.960859 9.21071 0.585786 9.58579C0.210714 9.96086 0 10.4696 0 11V17C0 17.2652 0.105357 17.5196 0.292893 17.7071C0.48043 17.8946 0.734784 18 1 18C1.26522 18 1.51957 17.8946 1.70711 17.7071C1.89464 17.5196 2 17.2652 2 17V15H18V17C18 17.2652 18.1054 17.5196 18.2929 17.7071C18.4804 17.8946 18.7348 18 19 18C19.2652 18 19.5196 17.8946 19.7071 17.7071C19.8946 17.5196 20 17.2652 20 17V11C20 10.4696 19.7893 9.96086 19.4142 9.58579C19.0391 9.21071 18.5304 9 18 9ZM9 9H4V8C4 7.73478 4.10536 7.48043 4.29289 7.29289C4.48043 7.10536 4.73478 7 5 7H8C8.26522 7 8.51957 7.10536 8.70711 7.29289C8.89464 7.48043 9 7.73478 9 8V9ZM16 9H11V8C11 7.73478 11.1054 7.48043 11.2929 7.29289C11.4804 7.10536 11.7348 7 12 7H15C15.2652 7 15.5196 7.10536 15.7071 7.29289C15.8946 7.48043 16 7.73478 16 8V9Z" fill="black"/>
</svg>
