<svg width="24" height="24" viewBox="0 0 24 24" fill="none" xmlns="http://www.w3.org/2000/svg">
<path d="M0.75 4.57422V6.07422H24V4.57422H0.75ZM2.25 6.82422V16.4992C2.25 17.3302 2.91975 17.9992 3.75 17.9992H4.5V19.4992H6V17.9992H12V6.82422H2.25ZM12.75 6.82422V17.9992H18.75V19.4992H20.25V17.9992H21C21.8318 17.9992 22.5 17.3302 22.5 16.4992V6.82422H12.75ZM10.125 9.37422H10.875V15.3742H10.125V14.6137H10.0478C9.6713 14.6123 9.31063 14.4623 9.0443 14.1962C8.77796 13.9302 8.62753 13.5697 8.62575 13.1932V11.5552C8.62575 10.7745 9.267 10.1332 10.0478 10.1332H10.1258V9.37422H10.125ZM13.875 9.37422H14.625V10.1332H14.7045C15.486 10.1332 16.1257 10.7745 16.1257 11.5552V13.1932C16.1246 13.5697 15.9744 13.9305 15.7081 14.1966C15.4418 14.4628 15.081 14.6127 14.7045 14.6137H14.6257V15.3742H13.8757L13.875 9.37422ZM10.0478 10.8832C9.9592 10.8821 9.87131 10.8987 9.78928 10.9321C9.70725 10.9655 9.63273 11.015 9.57011 11.0776C9.50748 11.1402 9.45803 11.2147 9.42465 11.2968C9.39127 11.3788 9.37464 11.4667 9.37575 11.5552V13.1932C9.37575 13.5712 9.669 13.8637 10.0478 13.8637H10.1258V10.8832H10.0478ZM14.6257 10.8832V13.8637H14.7045C15.0833 13.8637 15.3757 13.5712 15.3757 13.1932V11.5552C15.3771 11.4667 15.3606 11.3788 15.3273 11.2967C15.2941 11.2146 15.2447 11.14 15.1821 11.0774C15.1195 11.0147 15.045 10.9653 14.963 10.9319C14.8809 10.8986 14.793 10.882 14.7045 10.8832H14.6257Z" fill="#3586FF"/>
</svg>
