<svg width="12" height="10" viewBox="0 0 12 10" fill="none" xmlns="http://www.w3.org/2000/svg">
<path d="M4.408 0.655998L5.656 1.808C3.992 3.056 3.064 4.336 2.872 5.648C3.128 5.552 3.384 5.488 3.64 5.488C4.888 5.488 5.752 6.32 5.752 7.6C5.752 8.88 4.76 9.872 3.512 9.872C2.008 9.872 0.984 8.624 0.984 6.736V6.608C0.984 4.272 2.136 2.288 4.408 0.655998ZM10.648 0.655998L11.896 1.808C10.232 3.056 9.304 4.336 9.112 5.648C9.368 5.552 9.624 5.488 9.88 5.488C11.128 5.488 11.992 6.32 11.992 7.6C11.992 8.88 11 9.872 9.752 9.872C8.248 9.872 7.224 8.624 7.224 6.736V6.608C7.224 4.272 8.376 2.288 10.648 0.655998Z" fill="#FDFDFD"/>
</svg>
