<?xml version="1.0" encoding="UTF-8"?>
<svg xmlns="http://www.w3.org/2000/svg" width="100" height="100" viewBox="0 0 100 100">
  <g id="Group_237" data-name="Group 237" transform="translate(-0.174)">
    <g id="Rectangle_164" data-name="Rectangle 164" transform="translate(0.174)" fill="#fff" stroke="#707070" strokeWidth="1" opacity="0">
      <rect width="100" height="100" stroke="none"></rect>
      <rect x="0.5" y="0.5" width="99" height="99" fill="none"></rect>
    </g>
    <path id="Union_1" data-name="Union 1" d="M0,85H0Zm.654-1.117V15.7L13.836,9.951,31.96,16.472v4.409l11.269,3.641v-18L61.35,0,74.532,5.754V83.883Zm47.269-6.119V81.6l3.756-1.532V76.233ZM34.307,79.3l7.513,2.3V79.3L34.307,77Zm-10.8.764,2.913,1.19,0-3.832-2.91-1.19ZM68.429,79.3l3.756,1.535V77l-3.756-1.532ZM3,77v3.829L6.758,79.3V75.468Zm51.025-1.535V79.3l3.756-1.532V73.933ZM17.4,77.765,21.157,79.3V75.465L17.4,73.933ZM62.322,77l3.756,1.535V74.7l-3.756-1.532ZM9.1,74.7v3.832L12.861,77V73.168Zm25.2-.768,7.513,2.3v-2.3l-7.513-2.3ZM47.923,67.8v3.832L51.68,70.1V66.273ZM23.507,70.1l2.907,1.183,0-3.832-2.9-1.183Zm44.922-.768,3.756,1.535V67.04l-3.756-1.532ZM3,67.04v3.829l3.756-1.532V65.5Zm31.306.764,7.513,2.3V67.8l-7.513-2.3Zm19.719-2.3v3.832L57.783,67.8V63.973ZM17.4,67.8l3.756,1.532V65.5L17.4,63.973ZM9.1,64.74v3.832l3.756-1.532V63.208Zm53.218,2.3,3.756,1.532V64.74l-3.756-1.532Zm-28.015-4.6,7.513,2.3v-2.3l-7.513-2.3Zm13.616-3.832v3.832l3.756-1.532V57.077Zm-24.416,2.3,2.9,1.183,0-3.832-2.9-1.183Zm44.922-.764,3.756,1.532V57.845l-3.756-1.532ZM3,57.845v3.832l3.756-1.532V56.312Zm14.4.768,3.756,1.532V56.312L17.4,54.78Zm36.626-2.3v3.829l3.756-1.532V54.777Zm8.3,1.532,3.756,1.532V55.545l-3.756-1.532Zm-28.015-.768,7.513,2.3v-2.3l-7.513-2.3ZM9.1,55.545v3.832l3.756-1.532V54.013Zm25.2-4.6,7.513,2.3v-2.3l-7.513-2.3Zm13.616-2.3v3.832l3.756-1.532V47.117Zm-24.416,2.3,2.894,1.18L26.4,48.3l-2.888-1.18Zm44.922-.764,3.756,1.532V47.884l-3.756-1.532ZM3,47.884v3.832l3.756-1.532V46.352Zm14.4.764,3.756,1.535V46.352L17.4,44.82Zm36.626-2.3v3.829l3.756-1.532V44.817Zm8.3,1.532,3.756,1.532V45.585l-3.756-1.532ZM9.1,45.585v3.832l3.756-1.532V44.053Zm25.2,0,7.513,2.3v-2.3l-7.516-2.3Zm13.616-6.128v3.832l3.756-1.532V37.924ZM23.5,41.753l3.759,1.532V39.453L23.5,37.921Zm44.925-.764,3.756,1.532V38.692L68.429,37.16Zm-34.122-.768,7.513,2.3v-2.3l-7.513-2.3ZM3,38.692v3.829l3.756-1.532V37.157Zm51.025-1.535v3.832l3.756-1.532V35.625ZM17.4,39.456l3.756,1.532V37.157L17.4,35.625ZM9.1,36.392v3.832l3.756-1.535V34.86Zm53.218,2.3,3.756,1.532V36.392L62.322,34.86Zm-28.015-4.6,7.513,2.3v-2.3l-7.513-2.3Zm13.616-4.6v3.832l3.756-1.535V27.964ZM23.5,31.793l3.759,1.532V29.493L23.5,27.961Zm44.925-.764,3.756,1.532V28.732L68.429,27.2ZM3,28.729v3.832l3.756-1.532V27.2ZM54.026,27.2v3.832L57.783,29.5V25.665ZM34.307,28.729l7.513,2.3v-2.3l-7.513-2.3ZM17.4,29.5l3.756,1.532V27.2L17.4,25.665Zm44.922-.768,3.756,1.532V26.432L62.322,24.9ZM9.1,26.432v3.829l3.756-1.532V24.9ZM47.923,20.3v3.832L51.68,22.6V18.769ZM23.5,22.6l3.759,1.532V20.3L23.5,18.769Zm44.925-.764,3.756,1.532V19.536L68.429,18ZM3,19.536v3.832l3.756-1.532V18Zm14.4.764,3.756,1.535V18L17.4,16.472ZM54.026,18v3.832L57.783,20.3V16.469Zm8.3,1.535,3.756,1.532V17.237L62.322,15.7ZM9.1,17.237v3.832l3.756-1.532V15.7ZM47.923,10.35v3.832L51.68,12.65V8.818Zm20.506,1.535,3.756,1.532V9.586L68.429,8.054Zm-14.4-3.835v3.832l3.756-1.532V6.518Zm8.3,1.535,3.756,1.532V7.286L62.322,5.754Z" transform="translate(13 12)" fill="#fcaa2e"></path>
  </g>
</svg>
