<?xml version="1.0" encoding="UTF-8"?>
<svg xmlns="http://www.w3.org/2000/svg" viewBox="0 0 478 359">
  <defs>
    <style>
      .cls-1 {
        fill: #ccc;
        mix-blend-mode: multiply;
      }

      .cls-2 {
        fill: #a7b7de;
      }

      .cls-3 {
        fill: #21235e;
      }

      .cls-4 {
        fill: #2c3375;
      }

      .cls-5 {
        fill: #f4f6fb;
      }

      .cls-6 {
        fill: #2d3e50;
      }

      .cls-7 {
        fill: #fff;
      }

      .cls-8 {
        fill: #e4e9f6;
      }

      .cls-9 {
        opacity: .25;
      }

      .cls-10 {
        fill: #d7d0e8;
      }

      .cls-11 {
        fill: #cfd6ed;
      }

      .cls-12 {
        fill: #dfe4f3;
      }

      .cls-13 {
        isolation: isolate;
      }

      .cls-14 {
        fill: #b2aad4;
      }

      .cls-15 {
        fill: #2f73b6;
      }

      .cls-16 {
        fill: #3981c3;
      }

      .cls-17 {
        fill: #c0c7e6;
      }

      .cls-18, .cls-19 {
        fill: #010101;
      }

      .cls-18, .cls-20 {
        opacity: .1;
      }

      .cls-21 {
        fill: #b0badf;
      }

      .cls-22 {
        fill: #3660ac;
      }

      .cls-23 {
        fill: #bda289;
      }

      .cls-24 {
        fill: #e5b995;
      }

      .cls-25 {
        fill: #e5e6eb;
      }

      .cls-26 {
        fill: #dbb99c;
      }

      .cls-27 {
        fill: #dbb79a;
      }
    </style>
  </defs>
  <g class="cls-13">
    <g id="Customizable">
      <g class="cls-9">
        <g>
          <polygon class="cls-21" points="437.51 113.98 247.1 113.98 285.3 95.02 399.31 95.02 437.51 113.98"/>
          <rect class="cls-11" x="311.49" y="100.88" width="57.19" height="256.22"/>
          <g>
            <g>
              <rect class="cls-5" x="317.29" y="126.82" width="17.05" height="13.22"/>
              <polygon class="cls-18" points="334.34 126.82 334.34 129.19 320.16 129.19 320.16 140.01 318.63 140.01 318.63 140.04 317.29 140.04 317.29 126.82 334.34 126.82"/>
              <path class="cls-21" d="M317.29,126.82v13.22h1.35v-.03h6.51v.03h1.35v-.03h6.51v.03h1.35v-13.22h-17.05ZM325.14,138.97h-6.51v-11.1h6.51v11.1ZM332.99,138.97h-6.51v-11.1h6.51v11.1Z"/>
            </g>
            <g>
              <rect class="cls-5" x="345.83" y="126.82" width="17.05" height="13.22"/>
              <polygon class="cls-18" points="362.89 126.82 362.89 129.19 348.7 129.19 348.7 140.01 347.18 140.01 347.18 140.04 345.83 140.04 345.83 126.82 362.89 126.82"/>
              <path class="cls-21" d="M345.83,126.82v13.22h1.35v-.03h6.51v.03h1.35v-.03h6.51v.03h1.35v-13.22h-17.05ZM353.69,138.97h-6.51v-11.1h6.51v11.1ZM361.54,138.97h-6.51v-11.1h6.51v11.1Z"/>
            </g>
          </g>
          <g>
            <g>
              <rect class="cls-5" x="317.29" y="174.6" width="17.05" height="13.22"/>
              <polygon class="cls-18" points="334.34 174.6 334.34 176.97 320.16 176.97 320.16 187.79 318.63 187.79 318.63 187.82 317.29 187.82 317.29 174.6 334.34 174.6"/>
              <path class="cls-21" d="M317.29,174.6v13.22h1.35v-.03h6.51v.03h1.35v-.03h6.51v.03h1.35v-13.22h-17.05ZM325.14,186.74h-6.51v-11.1h6.51v11.1ZM332.99,186.74h-6.51v-11.1h6.51v11.1Z"/>
            </g>
            <g>
              <rect class="cls-5" x="345.83" y="174.6" width="17.05" height="13.22"/>
              <polygon class="cls-18" points="362.89 174.6 362.89 176.97 348.7 176.97 348.7 187.79 347.18 187.79 347.18 187.82 345.83 187.82 345.83 174.6 362.89 174.6"/>
              <path class="cls-21" d="M345.83,174.6v13.22h1.35v-.03h6.51v.03h1.35v-.03h6.51v.03h1.35v-13.22h-17.05ZM353.69,186.74h-6.51v-11.1h6.51v11.1ZM361.54,186.74h-6.51v-11.1h6.51v11.1Z"/>
            </g>
          </g>
          <g>
            <g>
              <rect class="cls-5" x="317.29" y="222.38" width="17.05" height="13.22"/>
              <polygon class="cls-18" points="334.34 222.38 334.34 224.74 320.16 224.74 320.16 235.56 318.63 235.56 318.63 235.6 317.29 235.6 317.29 222.38 334.34 222.38"/>
              <path class="cls-21" d="M317.29,222.38v13.22h1.35v-.03h6.51v.03h1.35v-.03h6.51v.03h1.35v-13.22h-17.05ZM325.14,234.52h-6.51v-11.1h6.51v11.1ZM332.99,234.52h-6.51v-11.1h6.51v11.1Z"/>
            </g>
            <g>
              <rect class="cls-5" x="345.83" y="222.38" width="17.05" height="13.22"/>
              <polygon class="cls-18" points="362.89 222.38 362.89 224.74 348.7 224.74 348.7 235.56 347.18 235.56 347.18 235.6 345.83 235.6 345.83 222.38 362.89 222.38"/>
              <path class="cls-21" d="M345.83,222.38v13.22h1.35v-.03h6.51v.03h1.35v-.03h6.51v.03h1.35v-13.22h-17.05ZM353.69,234.52h-6.51v-11.1h6.51v11.1ZM361.54,234.52h-6.51v-11.1h6.51v11.1Z"/>
            </g>
          </g>
          <g>
            <g>
              <rect class="cls-5" x="317.29" y="270.16" width="17.05" height="13.22"/>
              <polygon class="cls-18" points="334.34 270.16 334.34 272.52 320.16 272.52 320.16 283.34 318.63 283.34 318.63 283.38 317.29 283.38 317.29 270.16 334.34 270.16"/>
              <path class="cls-21" d="M317.29,270.16v13.22h1.35v-.03h6.51v.03h1.35v-.03h6.51v.03h1.35v-13.22h-17.05ZM325.14,282.3h-6.51v-11.1h6.51v11.1ZM332.99,282.3h-6.51v-11.1h6.51v11.1Z"/>
            </g>
            <g>
              <rect class="cls-5" x="345.83" y="270.16" width="17.05" height="13.22"/>
              <polygon class="cls-18" points="362.89 270.16 362.89 272.52 348.7 272.52 348.7 283.34 347.18 283.34 347.18 283.38 345.83 283.38 345.83 270.16 362.89 270.16"/>
              <path class="cls-21" d="M345.83,270.16v13.22h1.35v-.03h6.51v.03h1.35v-.03h6.51v.03h1.35v-13.22h-17.05ZM353.69,282.3h-6.51v-11.1h6.51v11.1ZM361.54,282.3h-6.51v-11.1h6.51v11.1Z"/>
            </g>
          </g>
          <g>
            <g>
              <rect class="cls-5" x="317.29" y="317.93" width="17.05" height="13.22"/>
              <polygon class="cls-18" points="334.34 317.93 334.34 320.3 320.16 320.3 320.16 331.12 318.63 331.12 318.63 331.15 317.29 331.15 317.29 317.93 334.34 317.93"/>
              <path class="cls-21" d="M317.29,317.93v13.22h1.35v-.03h6.51v.03h1.35v-.03h6.51v.03h1.35v-13.22h-17.05ZM325.14,330.08h-6.51v-11.1h6.51v11.1ZM332.99,330.08h-6.51v-11.1h6.51v11.1Z"/>
            </g>
            <g>
              <rect class="cls-5" x="345.83" y="317.93" width="17.05" height="13.22"/>
              <polygon class="cls-18" points="362.89 317.93 362.89 320.3 348.7 320.3 348.7 331.12 347.18 331.12 347.18 331.15 345.83 331.15 345.83 317.93 362.89 317.93"/>
              <path class="cls-21" d="M345.83,317.93v13.22h1.35v-.03h6.51v.03h1.35v-.03h6.51v.03h1.35v-13.22h-17.05ZM353.69,330.08h-6.51v-11.1h6.51v11.1ZM361.54,330.08h-6.51v-11.1h6.51v11.1Z"/>
            </g>
          </g>
          <g>
            <rect class="cls-12" x="368.75" y="114" width="57.19" height="243.1"/>
            <g>
              <path class="cls-5" d="M374.58,126.82v13.22h9.2v-13.22h-9.2Z"/>
              <polygon class="cls-18" points="383.78 126.82 383.78 129.19 377.45 129.19 377.45 140.01 375.93 140.01 375.93 140.04 374.58 140.04 374.58 126.82 383.78 126.82"/>
              <path class="cls-21" d="M374.58,126.82v13.22h1.35v-.04h6.51v.04h1.35v-13.22h-9.2ZM382.43,138.97h-6.51v-11.1h6.51v11.1Z"/>
            </g>
            <g>
              <rect class="cls-21" x="394.84" y="126.77" width="24.94" height="24.94"/>
              <rect class="cls-5" x="395.34" y="127.27" width="23.94" height="23.94"/>
              <rect class="cls-21" x="407.06" y="127.27" width=".5" height="23.94"/>
              <rect class="cls-21" x="391.53" y="151.71" width="39.76" height="2.4"/>
              <rect class="cls-21" x="391.53" y="150.41" width="39.76" height=".45"/>
              <rect class="cls-21" x="391.53" y="149.07" width="39.76" height=".45"/>
              <rect class="cls-21" x="391.53" y="146.62" width="39.76" height=".45"/>
              <rect class="cls-21" x="391.53" y="145.27" width="39.76" height=".45"/>
              <rect class="cls-21" x="391.53" y="142.83" width="39.76" height=".45"/>
              <rect class="cls-21" x="391.53" y="141.48" width="39.76" height=".45"/>
              <rect class="cls-21" x="391.53" y="139.04" width="39.76" height=".45"/>
              <rect class="cls-21" x="391.53" y="137.69" width="39.76" height=".45"/>
              <rect class="cls-21" x="391.53" y="137.69" width="1.3" height="16.43"/>
              <rect class="cls-21" x="429.99" y="137.69" width="1.3" height="16.43"/>
            </g>
            <g>
              <path class="cls-5" d="M374.58,174.6v13.22h9.2v-13.22h-9.2Z"/>
              <polygon class="cls-18" points="383.78 174.6 383.78 176.97 377.45 176.97 377.45 187.79 375.93 187.79 375.93 187.82 374.58 187.82 374.58 174.6 383.78 174.6"/>
              <path class="cls-21" d="M374.58,174.6v13.22h1.35v-.04h6.51v.04h1.35v-13.22h-9.2ZM382.43,186.74h-6.51v-11.1h6.51v11.1Z"/>
            </g>
            <g>
              <rect class="cls-21" x="394.84" y="174.6" width="24.94" height="24.94"/>
              <rect class="cls-5" x="395.34" y="175.1" width="23.94" height="23.94"/>
              <rect class="cls-21" x="407.06" y="175.1" width=".5" height="23.94"/>
              <rect class="cls-21" x="391.53" y="199.54" width="39.76" height="2.4"/>
              <rect class="cls-21" x="391.53" y="198.24" width="39.76" height=".45"/>
              <rect class="cls-21" x="391.53" y="196.89" width="39.76" height=".45"/>
              <rect class="cls-21" x="391.53" y="194.45" width="39.76" height=".45"/>
              <rect class="cls-21" x="391.53" y="193.1" width="39.76" height=".45"/>
              <rect class="cls-21" x="391.53" y="190.66" width="39.76" height=".45"/>
              <rect class="cls-21" x="391.53" y="189.31" width="39.76" height=".45"/>
              <rect class="cls-21" x="391.53" y="186.87" width="39.76" height=".45"/>
              <rect class="cls-21" x="391.53" y="185.52" width="39.76" height=".45"/>
              <rect class="cls-21" x="391.53" y="185.52" width="1.3" height="16.43"/>
              <rect class="cls-21" x="429.99" y="185.52" width="1.3" height="16.43"/>
            </g>
            <g>
              <path class="cls-5" d="M374.58,222.38v13.22h9.2v-13.22h-9.2Z"/>
              <polygon class="cls-18" points="383.78 222.38 383.78 224.74 377.45 224.74 377.45 235.56 375.93 235.56 375.93 235.6 374.58 235.6 374.58 222.38 383.78 222.38"/>
              <path class="cls-21" d="M374.58,222.38v13.22h1.35v-.04h6.51v.04h1.35v-13.22h-9.2ZM382.43,234.52h-6.51v-11.1h6.51v11.1Z"/>
            </g>
            <g>
              <rect class="cls-21" x="394.84" y="222.38" width="24.94" height="24.94"/>
              <rect class="cls-5" x="395.34" y="222.88" width="23.94" height="23.94"/>
              <rect class="cls-21" x="407.06" y="222.88" width=".5" height="23.94"/>
              <rect class="cls-21" x="391.53" y="247.32" width="39.76" height="2.4"/>
              <rect class="cls-21" x="391.53" y="246.02" width="39.76" height=".45"/>
              <rect class="cls-21" x="391.53" y="244.67" width="39.76" height=".45"/>
              <rect class="cls-21" x="391.53" y="242.23" width="39.76" height=".45"/>
              <rect class="cls-21" x="391.53" y="240.88" width="39.76" height=".45"/>
              <rect class="cls-21" x="391.53" y="238.44" width="39.76" height=".45"/>
              <rect class="cls-21" x="391.53" y="237.09" width="39.76" height=".45"/>
              <rect class="cls-21" x="391.53" y="234.64" width="39.76" height=".45"/>
              <rect class="cls-21" x="391.53" y="233.3" width="39.76" height=".45"/>
              <rect class="cls-21" x="391.53" y="233.3" width="1.3" height="16.43"/>
              <rect class="cls-21" x="429.99" y="233.3" width="1.3" height="16.43"/>
            </g>
            <g>
              <path class="cls-5" d="M374.58,270.16v13.22h9.2v-13.22h-9.2Z"/>
              <polygon class="cls-18" points="383.78 270.16 383.78 272.52 377.45 272.52 377.45 283.34 375.93 283.34 375.93 283.38 374.58 283.38 374.58 270.16 383.78 270.16"/>
              <path class="cls-21" d="M374.58,270.16v13.22h1.35v-.04h6.51v.04h1.35v-13.22h-9.2ZM382.43,282.3h-6.51v-11.1h6.51v11.1Z"/>
            </g>
            <g>
              <rect class="cls-21" x="394.84" y="270.16" width="24.94" height="24.94"/>
              <rect class="cls-5" x="395.34" y="270.66" width="23.94" height="23.94"/>
              <rect class="cls-21" x="407.06" y="270.66" width=".5" height="23.94"/>
              <rect class="cls-21" x="391.53" y="295.1" width="39.76" height="2.4"/>
              <rect class="cls-21" x="391.53" y="293.8" width="39.76" height=".45"/>
              <rect class="cls-21" x="391.53" y="292.45" width="39.76" height=".45"/>
              <rect class="cls-21" x="391.53" y="290.01" width="39.76" height=".45"/>
              <rect class="cls-21" x="391.53" y="288.66" width="39.76" height=".45"/>
              <rect class="cls-21" x="391.53" y="286.21" width="39.76" height=".45"/>
              <rect class="cls-21" x="391.53" y="284.87" width="39.76" height=".45"/>
              <rect class="cls-21" x="391.53" y="282.42" width="39.76" height=".45"/>
              <rect class="cls-21" x="391.53" y="281.07" width="39.76" height=".45"/>
              <rect class="cls-21" x="391.53" y="281.07" width="1.3" height="16.43"/>
              <rect class="cls-21" x="429.99" y="281.07" width="1.3" height="16.43"/>
            </g>
            <g>
              <path class="cls-5" d="M374.58,317.93v13.22h9.2v-13.22h-9.2Z"/>
              <polygon class="cls-18" points="383.78 317.93 383.78 320.3 377.45 320.3 377.45 331.12 375.93 331.12 375.93 331.15 374.58 331.15 374.58 317.93 383.78 317.93"/>
              <path class="cls-21" d="M374.58,317.93v13.22h1.35v-.04h6.51v.04h1.35v-13.22h-9.2ZM382.43,330.08h-6.51v-11.1h6.51v11.1Z"/>
            </g>
            <g>
              <rect class="cls-21" x="394.84" y="317.93" width="24.94" height="24.94"/>
              <rect class="cls-5" x="395.34" y="318.43" width="23.94" height="23.94"/>
              <rect class="cls-21" x="407.06" y="318.43" width=".5" height="23.94"/>
              <rect class="cls-21" x="391.53" y="342.87" width="39.76" height="2.4"/>
              <rect class="cls-21" x="391.53" y="341.58" width="39.76" height=".45"/>
              <rect class="cls-21" x="391.53" y="340.23" width="39.76" height=".45"/>
              <rect class="cls-21" x="391.53" y="337.78" width="39.76" height=".45"/>
              <rect class="cls-21" x="391.53" y="336.44" width="39.76" height=".45"/>
              <rect class="cls-21" x="391.53" y="333.99" width="39.76" height=".45"/>
              <rect class="cls-21" x="391.53" y="332.64" width="39.76" height=".45"/>
              <rect class="cls-21" x="391.53" y="330.2" width="39.76" height=".45"/>
              <rect class="cls-21" x="391.53" y="328.85" width="39.76" height=".45"/>
              <rect class="cls-21" x="391.53" y="328.85" width="1.3" height="16.43"/>
              <rect class="cls-21" x="429.99" y="328.85" width="1.3" height="16.43"/>
            </g>
          </g>
          <g>
            <rect class="cls-12" x="254.31" y="114" width="57.19" height="243.1" transform="translate(565.81 471.1) rotate(180)"/>
            <g>
              <path class="cls-5" d="M296.47,126.82v13.22h9.2v-13.22h-9.2Z"/>
              <polygon class="cls-18" points="305.67 126.82 305.67 129.19 299.34 129.19 299.34 140.01 297.81 140.01 297.81 140.04 296.47 140.04 296.47 126.82 305.67 126.82"/>
              <path class="cls-21" d="M296.47,126.82v13.22h1.35v-.04h6.51v.04h1.35v-13.22h-9.2ZM304.32,138.97h-6.51v-11.1h6.51v11.1Z"/>
            </g>
            <g>
              <rect class="cls-21" x="260.47" y="126.77" width="24.94" height="24.94" transform="translate(545.88 278.49) rotate(180)"/>
              <rect class="cls-5" x="260.97" y="127.27" width="23.94" height="23.94"/>
              <rect class="cls-21" x="272.69" y="127.27" width=".5" height="23.94"/>
              <rect class="cls-21" x="248.95" y="151.71" width="39.76" height="2.4" transform="translate(537.66 305.83) rotate(180)"/>
              <rect class="cls-21" x="248.95" y="150.41" width="39.76" height=".45" transform="translate(537.66 301.28) rotate(180)"/>
              <rect class="cls-21" x="248.95" y="149.07" width="39.76" height=".45" transform="translate(537.66 298.58) rotate(180)"/>
              <rect class="cls-21" x="248.95" y="146.62" width="39.76" height=".45" transform="translate(537.66 293.7) rotate(180)"/>
              <rect class="cls-21" x="248.95" y="145.27" width="39.76" height=".45" transform="translate(537.66 291) rotate(180)"/>
              <rect class="cls-21" x="248.95" y="142.83" width="39.76" height=".45" transform="translate(537.66 286.11) rotate(180)"/>
              <rect class="cls-21" x="248.95" y="141.48" width="39.76" height=".45" transform="translate(537.66 283.42) rotate(180)"/>
              <rect class="cls-21" x="248.95" y="139.04" width="39.76" height=".45" transform="translate(537.66 278.53) rotate(180)"/>
              <rect class="cls-21" x="248.95" y="137.69" width="39.76" height=".45" transform="translate(537.66 275.83) rotate(180)"/>
              <rect class="cls-21" x="287.41" y="137.69" width="1.3" height="16.43" transform="translate(576.13 291.81) rotate(180)"/>
              <rect class="cls-21" x="248.95" y="137.69" width="1.3" height="16.43" transform="translate(499.2 291.81) rotate(180)"/>
            </g>
            <g>
              <path class="cls-5" d="M296.47,174.6v13.22h9.2v-13.22h-9.2Z"/>
              <polygon class="cls-18" points="305.67 174.6 305.67 176.97 299.34 176.97 299.34 187.79 297.81 187.79 297.81 187.82 296.47 187.82 296.47 174.6 305.67 174.6"/>
              <path class="cls-21" d="M296.47,174.6v13.22h1.35v-.04h6.51v.04h1.35v-13.22h-9.2ZM304.32,186.74h-6.51v-11.1h6.51v11.1Z"/>
            </g>
            <g>
              <rect class="cls-21" x="260.47" y="174.6" width="24.94" height="24.94" transform="translate(545.88 374.14) rotate(180)"/>
              <rect class="cls-5" x="260.97" y="175.1" width="23.94" height="23.94"/>
              <rect class="cls-21" x="272.69" y="175.1" width=".5" height="23.94"/>
              <rect class="cls-21" x="248.95" y="199.54" width="39.76" height="2.4" transform="translate(537.66 401.49) rotate(180)"/>
              <rect class="cls-21" x="248.95" y="198.24" width="39.76" height=".45" transform="translate(537.66 396.94) rotate(180)"/>
              <rect class="cls-21" x="248.95" y="196.89" width="39.76" height=".45" transform="translate(537.66 394.24) rotate(180)"/>
              <rect class="cls-21" x="248.95" y="194.45" width="39.76" height=".45" transform="translate(537.66 389.35) rotate(180)"/>
              <rect class="cls-21" x="248.95" y="193.1" width="39.76" height=".45" transform="translate(537.66 386.66) rotate(180)"/>
              <rect class="cls-21" x="248.95" y="190.66" width="39.76" height=".45" transform="translate(537.66 381.77) rotate(180)"/>
              <rect class="cls-21" x="248.95" y="189.31" width="39.76" height=".45" transform="translate(537.66 379.07) rotate(180)"/>
              <rect class="cls-21" x="248.95" y="186.87" width="39.76" height=".45" transform="translate(537.66 374.18) rotate(180)"/>
              <rect class="cls-21" x="248.95" y="185.52" width="39.76" height=".45" transform="translate(537.66 371.49) rotate(180)"/>
              <rect class="cls-21" x="287.41" y="185.52" width="1.3" height="16.43" transform="translate(576.13 387.46) rotate(180)"/>
              <rect class="cls-21" x="248.95" y="185.52" width="1.3" height="16.43" transform="translate(499.2 387.46) rotate(180)"/>
            </g>
            <g>
              <path class="cls-5" d="M296.47,222.38v13.22h9.2v-13.22h-9.2Z"/>
              <polygon class="cls-18" points="305.67 222.38 305.67 224.74 299.34 224.74 299.34 235.56 297.81 235.56 297.81 235.6 296.47 235.6 296.47 222.38 305.67 222.38"/>
              <path class="cls-21" d="M296.47,222.38v13.22h1.35v-.04h6.51v.04h1.35v-13.22h-9.2ZM304.32,234.52h-6.51v-11.1h6.51v11.1Z"/>
            </g>
            <g>
              <rect class="cls-21" x="260.47" y="222.38" width="24.94" height="24.94" transform="translate(545.88 469.7) rotate(180)"/>
              <rect class="cls-5" x="260.97" y="222.88" width="23.94" height="23.94"/>
              <rect class="cls-21" x="272.69" y="222.88" width=".5" height="23.94"/>
              <rect class="cls-21" x="248.95" y="247.32" width="39.76" height="2.4" transform="translate(537.66 497.04) rotate(180)"/>
              <rect class="cls-21" x="248.95" y="246.02" width="39.76" height=".45" transform="translate(537.66 492.49) rotate(180)"/>
              <rect class="cls-21" x="248.95" y="244.67" width="39.76" height=".45" transform="translate(537.66 489.79) rotate(180)"/>
              <rect class="cls-21" x="248.95" y="242.23" width="39.76" height=".45" transform="translate(537.66 484.91) rotate(180)"/>
              <rect class="cls-21" x="248.95" y="240.88" width="39.76" height=".45" transform="translate(537.66 482.21) rotate(180)"/>
              <rect class="cls-21" x="248.95" y="238.44" width="39.76" height=".45" transform="translate(537.66 477.32) rotate(180)"/>
              <rect class="cls-21" x="248.95" y="237.09" width="39.76" height=".45" transform="translate(537.66 474.63) rotate(180)"/>
              <rect class="cls-21" x="248.95" y="234.64" width="39.76" height=".45" transform="translate(537.66 469.74) rotate(180)"/>
              <rect class="cls-21" x="248.95" y="233.3" width="39.76" height=".45" transform="translate(537.66 467.04) rotate(180)"/>
              <rect class="cls-21" x="287.41" y="233.3" width="1.3" height="16.43" transform="translate(576.13 483.02) rotate(180)"/>
              <rect class="cls-21" x="248.95" y="233.3" width="1.3" height="16.43" transform="translate(499.2 483.02) rotate(180)"/>
            </g>
            <g>
              <path class="cls-5" d="M296.47,270.16v13.22h9.2v-13.22h-9.2Z"/>
              <polygon class="cls-18" points="305.67 270.16 305.67 272.52 299.34 272.52 299.34 283.34 297.81 283.34 297.81 283.38 296.47 283.38 296.47 270.16 305.67 270.16"/>
              <path class="cls-21" d="M296.47,270.16v13.22h1.35v-.04h6.51v.04h1.35v-13.22h-9.2ZM304.32,282.3h-6.51v-11.1h6.51v11.1Z"/>
            </g>
            <g>
              <rect class="cls-21" x="260.47" y="270.16" width="24.94" height="24.94" transform="translate(545.88 565.25) rotate(180)"/>
              <rect class="cls-5" x="260.97" y="270.66" width="23.94" height="23.94"/>
              <rect class="cls-21" x="272.69" y="270.66" width=".5" height="23.94"/>
              <rect class="cls-21" x="248.95" y="295.1" width="39.76" height="2.4" transform="translate(537.66 592.6) rotate(180)"/>
              <rect class="cls-21" x="248.95" y="293.8" width="39.76" height=".45" transform="translate(537.66 588.05) rotate(180)"/>
              <rect class="cls-21" x="248.95" y="292.45" width="39.76" height=".45" transform="translate(537.66 585.35) rotate(180)"/>
              <rect class="cls-21" x="248.95" y="290.01" width="39.76" height=".45" transform="translate(537.66 580.46) rotate(180)"/>
              <rect class="cls-21" x="248.95" y="288.66" width="39.76" height=".45" transform="translate(537.66 577.77) rotate(180)"/>
              <rect class="cls-21" x="248.95" y="286.21" width="39.76" height=".45" transform="translate(537.66 572.88) rotate(180)"/>
              <rect class="cls-21" x="248.95" y="284.87" width="39.76" height=".45" transform="translate(537.66 570.18) rotate(180)"/>
              <rect class="cls-21" x="248.95" y="282.42" width="39.76" height=".45" transform="translate(537.66 565.29) rotate(180)"/>
              <rect class="cls-21" x="248.95" y="281.07" width="39.76" height=".45" transform="translate(537.66 562.6) rotate(180)"/>
              <rect class="cls-21" x="287.41" y="281.07" width="1.3" height="16.43" transform="translate(576.13 578.57) rotate(180)"/>
              <rect class="cls-21" x="248.95" y="281.07" width="1.3" height="16.43" transform="translate(499.2 578.57) rotate(180)"/>
            </g>
            <g>
              <path class="cls-5" d="M296.47,317.93v13.22h9.2v-13.22h-9.2Z"/>
              <polygon class="cls-18" points="305.67 317.93 305.67 320.3 299.34 320.3 299.34 331.12 297.81 331.12 297.81 331.15 296.47 331.15 296.47 317.93 305.67 317.93"/>
              <path class="cls-21" d="M296.47,317.93v13.22h1.35v-.04h6.51v.04h1.35v-13.22h-9.2ZM304.32,330.08h-6.51v-11.1h6.51v11.1Z"/>
            </g>
            <g>
              <rect class="cls-21" x="260.47" y="317.93" width="24.94" height="24.94" transform="translate(545.88 660.81) rotate(180)"/>
              <rect class="cls-5" x="260.97" y="318.43" width="23.94" height="23.94"/>
              <rect class="cls-21" x="272.69" y="318.43" width=".5" height="23.94"/>
              <rect class="cls-21" x="248.95" y="342.87" width="39.76" height="2.4" transform="translate(537.66 688.15) rotate(180)"/>
              <rect class="cls-21" x="248.95" y="341.58" width="39.76" height=".45" transform="translate(537.66 683.6) rotate(180)"/>
              <rect class="cls-21" x="248.95" y="340.23" width="39.76" height=".45" transform="translate(537.66 680.91) rotate(180)"/>
              <rect class="cls-21" x="248.95" y="337.78" width="39.76" height=".45" transform="translate(537.66 676.02) rotate(180)"/>
              <rect class="cls-21" x="248.95" y="336.44" width="39.76" height=".45" transform="translate(537.66 673.32) rotate(180)"/>
              <rect class="cls-21" x="248.95" y="333.99" width="39.76" height=".45" transform="translate(537.66 668.43) rotate(180)"/>
              <rect class="cls-21" x="248.95" y="332.64" width="39.76" height=".45" transform="translate(537.66 665.74) rotate(180)"/>
              <rect class="cls-21" x="248.95" y="330.2" width="39.76" height=".45" transform="translate(537.66 660.85) rotate(180)"/>
              <rect class="cls-21" x="248.95" y="328.85" width="39.76" height=".45" transform="translate(537.66 658.15) rotate(180)"/>
              <rect class="cls-21" x="287.41" y="328.85" width="1.3" height="16.43" transform="translate(576.13 674.13) rotate(180)"/>
              <rect class="cls-21" x="248.95" y="328.85" width="1.3" height="16.43" transform="translate(499.2 674.13) rotate(180)"/>
            </g>
          </g>
          <rect class="cls-21" x="388.8" y="114.01" width="1" height="243.07"/>
          <rect class="cls-21" x="290.44" y="114.01" width="1" height="243.07"/>
          <polygon class="cls-21" points="375.91 100.93 304.29 100.93 318.66 83.73 361.54 83.73 375.91 100.93"/>
          <rect class="cls-17" x="304.29" y="100.93" width="71.62" height="3.81"/>
          <polygon class="cls-18" points="293.47 357.15 291.47 357.15 291.47 114.05 293.47 115.65 293.47 357.15"/>
          <polygon class="cls-18" points="391.83 357.15 389.83 357.15 389.83 113.95 391.83 115.55 391.83 357.15"/>
          <polygon class="cls-18" points="370.7 357.15 368.69 357.15 368.69 113.95 370.7 115.55 370.7 357.15"/>
          <g class="cls-20">
            <g>
              <polygon class="cls-19" points="293.48 157.37 259.02 157.37 254.31 154.12 288.76 154.12 293.48 157.37"/>
              <polygon class="cls-19" points="293.48 205.24 259.02 205.24 254.31 201.99 288.76 201.99 293.48 205.24"/>
              <polygon class="cls-19" points="293.48 253.12 259.02 253.12 254.31 249.87 288.76 249.87 293.48 253.12"/>
              <polygon class="cls-19" points="293.48 301 259.02 301 254.31 297.75 288.76 297.75 293.48 301"/>
              <polygon class="cls-19" points="293.48 348.88 259.02 348.88 254.31 345.63 288.76 345.63 293.48 348.88"/>
            </g>
            <g>
              <polygon class="cls-19" points="425.94 154.12 425.94 157.37 396.24 157.37 391.53 154.12 425.94 154.12"/>
              <polygon class="cls-19" points="425.94 201.99 425.94 205.24 396.24 205.24 391.53 201.99 425.94 201.99"/>
              <polygon class="cls-19" points="425.94 249.87 425.94 253.12 396.24 253.12 391.53 249.87 425.94 249.87"/>
              <polygon class="cls-19" points="425.94 297.75 425.94 301 396.24 301 391.53 297.75 425.94 297.75"/>
              <polygon class="cls-19" points="425.94 345.63 425.94 348.88 396.24 348.88 391.53 345.63 425.94 345.63"/>
            </g>
          </g>
        </g>
        <g>
          <rect class="cls-12" x="32.1" y="152.26" width="109.23" height="204.88"/>
          <g>
            <rect class="cls-21" x="87.61" y="129.38" width="31.47" height="22.94" transform="translate(206.69 281.7) rotate(180)"/>
            <rect class="cls-18" x="87.59" y="129.38" width="31.56" height="10.89" transform="translate(206.75 269.65) rotate(180)"/>
            <rect class="cls-21" x="82.91" y="129.38" width="39.48" height="8.09" transform="translate(205.3 266.85) rotate(180)"/>
          </g>
          <g>
            <g>
              <g>
                <rect class="cls-21" x="117.69" y="174.35" width="12.18" height="18.27" transform="translate(247.56 366.96) rotate(180)"/>
                <rect class="cls-21" x="117.04" y="173.61" width="13.47" height=".74" transform="translate(247.56 347.96) rotate(-180)"/>
                <rect class="cls-21" x="116.45" y="171.91" width="14.65" height="1.7" transform="translate(247.56 345.53) rotate(-180)"/>
                <rect class="cls-8" x="120.95" y="183.91" width="5.66" height="9.5" transform="translate(312.43 64.88) rotate(90)"/>
                <rect class="cls-8" x="119.17" y="175.22" width="9.22" height="9.5" transform="translate(303.75 56.2) rotate(90)"/>
              </g>
              <g>
                <rect class="cls-21" x="106.81" y="174.35" width="12.18" height="18.27" transform="translate(225.79 366.96) rotate(180)"/>
                <rect class="cls-21" x="106.16" y="173.61" width="13.47" height=".74" transform="translate(225.79 347.96) rotate(180)"/>
                <rect class="cls-21" x="105.57" y="171.91" width="14.65" height="1.7" transform="translate(225.79 345.53) rotate(180)"/>
                <rect class="cls-8" x="110.07" y="183.91" width="5.66" height="9.5" transform="translate(301.55 75.76) rotate(90)"/>
                <rect class="cls-8" x="108.28" y="175.22" width="9.22" height="9.5" transform="translate(292.87 67.08) rotate(90)"/>
              </g>
              <polygon class="cls-18" points="108.13 175.34 126.79 175.34 128.54 175.34 128.54 176.95 128.54 191.46 126.79 191.46 126.79 176.95 108.13 176.95 108.13 175.34"/>
            </g>
            <g>
              <rect class="cls-11" x="38.53" y="170.21" width="54.58" height="39.89" transform="translate(131.64 380.31) rotate(180)"/>
              <rect class="cls-21" x="37.5" y="168.87" width="56.65" height="1.34" transform="translate(131.64 339.08) rotate(180)"/>
              <rect class="cls-21" x="36.57" y="166.32" width="58.5" height="2.55" transform="translate(131.64 335.18) rotate(180)"/>
              <polygon class="cls-18" points="89.62 210.1 93.91 210.1 93.91 192.24 89.62 194.45 89.62 210.1"/>
              <rect class="cls-21" x="50.05" y="178.67" width="31.54" height="27.97" transform="translate(131.64 385.31) rotate(180)"/>
              <rect class="cls-8" x="52.38" y="177.68" width="26.87" height="29.95" transform="translate(258.48 126.83) rotate(90)"/>
              <polygon class="cls-18" points="50.85 179.22 79.05 179.22 80.8 179.22 80.8 180.75 80.8 200.71 79.05 200.71 79.05 180.75 50.85 180.75 50.85 179.22"/>
              <rect class="cls-21" x="61.17" y="179.2" width=".79" height="16.04" transform="translate(123.14 374.44) rotate(180)"/>
              <rect class="cls-21" x="37.74" y="194.32" width="56.17" height="15.78" transform="translate(131.64 404.42) rotate(180)"/>
              <polygon class="cls-18" points="37.74 191.57 37.74 210.1 93.91 210.1 87.95 214.4 32.34 214.4 32.34 195.46 37.74 191.57"/>
              <rect class="cls-21" x="38.53" y="191.57" width="54.58" height=".67" transform="translate(131.64 383.8) rotate(180)"/>
              <g>
                <rect class="cls-21" x="92.12" y="192.53" width="2.75" height=".82" transform="translate(-99.45 286.44) rotate(-90)"/>
                <rect class="cls-21" x="64.45" y="192.53" width="2.75" height=".82" transform="translate(-127.12 258.76) rotate(-90)"/>
                <rect class="cls-21" x="50.59" y="192.53" width="2.75" height=".82" transform="translate(-140.98 244.91) rotate(-90)"/>
                <rect class="cls-21" x="78.22" y="192.53" width="2.75" height=".82" transform="translate(-113.34 272.54) rotate(-90)"/>
                <rect class="cls-21" x="36.77" y="192.53" width="2.75" height=".82" transform="translate(-154.79 231.09) rotate(-90)"/>
              </g>
            </g>
            <g>
              <g>
                <rect class="cls-21" x="117.69" y="238.7" width="12.18" height="18.27" transform="translate(247.56 495.66) rotate(180)"/>
                <rect class="cls-21" x="117.04" y="237.96" width="13.47" height=".74" transform="translate(247.56 476.66) rotate(180)"/>
                <rect class="cls-21" x="116.45" y="236.26" width="14.65" height="1.7" transform="translate(247.56 474.22) rotate(180)"/>
                <rect class="cls-8" x="120.95" y="248.25" width="5.66" height="9.5" transform="translate(376.78 129.23) rotate(90)"/>
                <rect class="cls-8" x="119.17" y="239.57" width="9.22" height="9.5" transform="translate(368.1 120.54) rotate(90)"/>
              </g>
              <g>
                <rect class="cls-21" x="106.81" y="238.7" width="12.18" height="18.27" transform="translate(225.79 495.66) rotate(180)"/>
                <rect class="cls-21" x="106.16" y="237.96" width="13.47" height=".74" transform="translate(225.79 476.66) rotate(180)"/>
                <rect class="cls-21" x="105.57" y="236.26" width="14.65" height="1.7" transform="translate(225.79 474.22) rotate(180)"/>
                <rect class="cls-8" x="110.07" y="248.25" width="5.66" height="9.5" transform="translate(365.9 140.11) rotate(90)"/>
                <rect class="cls-8" x="108.28" y="239.57" width="9.22" height="9.5" transform="translate(357.22 131.43) rotate(90)"/>
              </g>
              <polygon class="cls-18" points="108.13 239.69 126.79 239.69 128.54 239.69 128.54 241.3 128.54 255.81 126.79 255.81 126.79 241.3 108.13 241.3 108.13 239.69"/>
            </g>
            <g>
              <rect class="cls-11" x="38.53" y="234.56" width="54.58" height="39.89" transform="translate(131.64 509.01) rotate(180)"/>
              <rect class="cls-21" x="37.5" y="233.22" width="56.65" height="1.34" transform="translate(131.64 467.78) rotate(180)"/>
              <rect class="cls-21" x="36.57" y="230.66" width="58.5" height="2.55" transform="translate(131.64 463.88) rotate(180)"/>
              <polygon class="cls-18" points="89.62 274.45 93.91 274.45 93.91 256.59 89.62 258.8 89.62 274.45"/>
              <rect class="cls-21" x="50.05" y="243.02" width="31.54" height="27.97" transform="translate(131.64 514.01) rotate(180)"/>
              <rect class="cls-8" x="52.38" y="242.03" width="26.87" height="29.95" transform="translate(322.83 191.18) rotate(90)"/>
              <polygon class="cls-18" points="50.85 243.57 79.05 243.57 80.8 243.57 80.8 245.1 80.8 265.05 79.05 265.05 79.05 245.1 50.85 245.1 50.85 243.57"/>
              <rect class="cls-21" x="61.17" y="243.55" width=".79" height="16.04" transform="translate(123.14 503.13) rotate(180)"/>
              <rect class="cls-21" x="37.74" y="258.67" width="56.17" height="15.78" transform="translate(131.64 533.12) rotate(180)"/>
              <polygon class="cls-18" points="37.74 255.91 37.74 274.45 93.91 274.45 87.95 278.75 32.34 278.75 32.34 259.81 37.74 255.91"/>
              <rect class="cls-21" x="38.53" y="255.91" width="54.58" height=".67" transform="translate(131.64 512.5) rotate(180)"/>
              <g>
                <rect class="cls-21" x="92.12" y="256.88" width="2.75" height=".82" transform="translate(-163.79 350.79) rotate(-90)"/>
                <rect class="cls-21" x="64.45" y="256.88" width="2.75" height=".82" transform="translate(-191.47 323.11) rotate(-90)"/>
                <rect class="cls-21" x="50.59" y="256.88" width="2.75" height=".82" transform="translate(-205.33 309.26) rotate(-90)"/>
                <rect class="cls-21" x="78.22" y="256.88" width="2.75" height=".82" transform="translate(-177.69 336.89) rotate(-90)"/>
                <rect class="cls-21" x="36.77" y="256.88" width="2.75" height=".82" transform="translate(-219.14 295.44) rotate(-90)"/>
              </g>
            </g>
            <g>
              <g>
                <rect class="cls-21" x="117.69" y="303.04" width="12.18" height="18.27" transform="translate(247.56 624.36) rotate(180)"/>
                <rect class="cls-21" x="117.04" y="302.31" width="13.47" height=".74" transform="translate(247.56 605.35) rotate(180)"/>
                <rect class="cls-21" x="116.45" y="300.61" width="14.65" height="1.7" transform="translate(247.56 602.92) rotate(180)"/>
                <rect class="cls-8" x="120.95" y="312.6" width="5.66" height="9.5" transform="translate(441.13 193.58) rotate(90)"/>
                <rect class="cls-8" x="119.17" y="303.92" width="9.22" height="9.5" transform="translate(432.45 184.89) rotate(90)"/>
              </g>
              <g>
                <rect class="cls-21" x="106.81" y="303.04" width="12.18" height="18.27" transform="translate(225.79 624.36) rotate(180)"/>
                <rect class="cls-21" x="106.16" y="302.31" width="13.47" height=".74" transform="translate(225.79 605.35) rotate(180)"/>
                <rect class="cls-21" x="105.57" y="300.61" width="14.65" height="1.7" transform="translate(225.79 602.92) rotate(180)"/>
                <rect class="cls-8" x="110.07" y="312.6" width="5.66" height="9.5" transform="translate(430.25 204.46) rotate(90)"/>
                <rect class="cls-8" x="108.28" y="303.92" width="9.22" height="9.5" transform="translate(421.57 195.78) rotate(90)"/>
              </g>
              <polygon class="cls-18" points="108.13 304.04 126.79 304.04 128.54 304.04 128.54 305.65 128.54 320.15 126.79 320.15 126.79 305.65 108.13 305.65 108.13 304.04"/>
            </g>
            <g>
              <rect class="cls-11" x="38.53" y="298.91" width="54.58" height="39.89" transform="translate(131.64 637.71) rotate(180)"/>
              <rect class="cls-21" x="37.5" y="297.57" width="56.65" height="1.34" transform="translate(131.64 596.47) rotate(180)"/>
              <rect class="cls-21" x="36.57" y="295.01" width="58.5" height="2.55" transform="translate(131.64 592.58) rotate(180)"/>
              <polygon class="cls-18" points="89.62 338.8 93.91 338.8 93.91 320.93 89.62 323.15 89.62 338.8"/>
              <rect class="cls-21" x="50.05" y="307.37" width="31.54" height="27.97" transform="translate(131.64 642.71) rotate(180)"/>
              <rect class="cls-8" x="52.38" y="306.38" width="26.87" height="29.95" transform="translate(387.18 255.53) rotate(90)"/>
              <polygon class="cls-18" points="50.85 307.92 79.05 307.92 80.8 307.92 80.8 309.45 80.8 329.4 79.05 329.4 79.05 309.45 50.85 309.45 50.85 307.92"/>
              <rect class="cls-21" x="61.17" y="307.9" width=".79" height="16.04" transform="translate(123.14 631.83) rotate(180)"/>
              <rect class="cls-21" x="37.74" y="323.02" width="56.17" height="15.78" transform="translate(131.64 661.81) rotate(180)"/>
              <polygon class="cls-18" points="37.74 320.26 37.74 338.8 93.91 338.8 87.95 343.1 32.34 343.1 32.34 324.16 37.74 320.26"/>
              <rect class="cls-21" x="38.53" y="320.26" width="54.58" height=".67" transform="translate(131.64 641.2) rotate(180)"/>
              <g>
                <rect class="cls-21" x="92.12" y="321.23" width="2.75" height=".82" transform="translate(-228.14 415.14) rotate(-90)"/>
                <rect class="cls-21" x="64.45" y="321.23" width="2.75" height=".82" transform="translate(-255.82 387.46) rotate(-90)"/>
                <rect class="cls-21" x="50.59" y="321.23" width="2.75" height=".82" transform="translate(-269.68 373.6) rotate(-90)"/>
                <rect class="cls-21" x="78.22" y="321.23" width="2.75" height=".82" transform="translate(-242.04 401.24) rotate(-90)"/>
                <rect class="cls-21" x="36.77" y="321.23" width="2.75" height=".82" transform="translate(-283.49 359.79) rotate(-90)"/>
              </g>
            </g>
          </g>
        </g>
      </g>
      <g>
        <rect class="cls-16" x="125.76" y="62.8" width="155.83" height="295.03" rx="18.35" ry="18.35"/>
        <rect class="cls-25" x="130.96" y="83.76" width="145.44" height="253.12" rx="7.34" ry="7.34"/>
        <g>
          <path class="cls-7" d="M141.54,222.45h123.78c5.96,0,10.79,4.84,10.79,10.79v92.83c0,5.96-4.84,10.8-10.8,10.8h-123.78c-5.96,0-10.79-4.84-10.79-10.79v-92.84c0-5.96,4.84-10.79,10.79-10.79Z"/>
          <path class="cls-22" d="M210.8,104.69h-64.23c-1.49,0-2.7-1.21-2.7-2.7s1.21-2.7,2.7-2.7h64.23c1.49,0,2.7,1.21,2.7,2.7s-1.21,2.7-2.7,2.7Z"/>
          <path class="cls-22" d="M210.8,239.72h-64.23c-1.49,0-2.7-1.21-2.7-2.7s1.21-2.7,2.7-2.7h64.23c1.49,0,2.7,1.21,2.7,2.7s-1.21,2.7-2.7,2.7Z"/>
          <path class="cls-14" d="M263.16,259.69h-83.94c-1.19,0-2.16-.97-2.16-2.16s.97-2.16,2.16-2.16h83.94c1.19,0,2.16.97,2.16,2.16s-.97,2.16-2.16,2.16Z"/>
          <path class="cls-14" d="M263.16,273.19h-116.59c-1.19,0-2.16-.97-2.16-2.16s.97-2.16,2.16-2.16h116.59c1.19,0,2.16.97,2.16,2.16s-.97,2.16-2.16,2.16Z"/>
          <path class="cls-14" d="M263.16,286.68h-116.59c-1.19,0-2.16-.97-2.16-2.16s.97-2.16,2.16-2.16h116.59c1.19,0,2.16.97,2.16,2.16s-.97,2.16-2.16,2.16Z"/>
          <g>
            <rect class="cls-7" x="143.88" y="121.25" width="70.7" height="82.58" rx="10.79" ry="10.79"/>
            <path class="cls-14" d="M214.58,182.78v10.26c0,5.93-4.86,10.79-10.79,10.79h-49.11c-5.94,0-10.79-4.86-10.79-10.79v-10.26h70.7Z"/>
            <path class="cls-10" d="M186.15,194.92h-32.74c-.89,0-1.62-.73-1.62-1.62s.73-1.62,1.62-1.62h32.74c.89,0,1.62.73,1.62,1.62s-.72,1.62-1.62,1.62Z"/>
            <g>
              <path class="cls-10" d="M202.71,174.95h-46.96c-2.08,0-3.78-1.7-3.78-3.78v-35.89c0-2.08,1.69-3.78,3.78-3.78h46.96c2.08,0,3.78,1.7,3.78,3.78v35.89c0,2.08-1.7,3.78-3.78,3.78ZM155.75,132.58c-1.49,0-2.7,1.21-2.7,2.7v35.89c0,1.49,1.21,2.7,2.7,2.7h46.96c1.49,0,2.7-1.21,2.7-2.7v-35.89c0-1.49-1.21-2.7-2.7-2.7h-46.96Z"/>
              <path class="cls-10" d="M205.94,149.48v21.68l-22.58-4.48c-1.75-.35-2.07-1.58-.72-2.73l7.63-6.54,9.79-8.39c1.35-1.15,3.63-1.23,5.05-.16l.83.63Z"/>
              <path class="cls-10" d="M205.94,165.45v5.72c0,1.78-1.46,3.24-3.24,3.24h-46.96c-1.78,0-3.24-1.46-3.24-3.24v-4.3l21.49-14.64c1.47-1,3.97-1.15,5.55-.35l10.72,5.51,15.67,8.05Z"/>
              <path class="cls-10" d="M190.92,142.3c0,2.18-1.77,3.95-3.95,3.95s-3.95-1.77-3.95-3.95,1.77-3.95,3.95-3.95,3.95,1.77,3.95,3.95Z"/>
            </g>
          </g>
          <g>
            <path class="cls-7" d="M234.82,121.25h49.12c5.96,0,10.79,4.84,10.79,10.79v60.99c0,5.96-4.84,10.79-10.79,10.79h-49.12c-5.96,0-10.79-4.84-10.79-10.79v-60.99c0-5.96,4.84-10.79,10.79-10.79Z"/>
            <path class="cls-14" d="M294.73,182.78v10.26c0,5.93-4.86,10.79-10.79,10.79h-49.12c-5.94,0-10.79-4.86-10.79-10.79v-10.26h70.7Z"/>
            <path class="cls-10" d="M266.3,194.92h-32.74c-.9,0-1.62-.73-1.62-1.62s.73-1.62,1.62-1.62h32.74c.89,0,1.62.73,1.62,1.62s-.72,1.62-1.62,1.62Z"/>
            <g>
              <path class="cls-10" d="M282.86,174.95h-46.96c-2.08,0-3.78-1.7-3.78-3.78v-35.89c0-2.08,1.7-3.78,3.78-3.78h46.96c2.08,0,3.78,1.69,3.78,3.78v35.89c0,2.08-1.7,3.78-3.78,3.78ZM235.9,132.58c-1.49,0-2.7,1.21-2.7,2.7v35.89c0,1.49,1.21,2.7,2.7,2.7h46.96c1.49,0,2.7-1.21,2.7-2.7v-35.89c0-1.49-1.21-2.7-2.7-2.7h-46.96Z"/>
              <path class="cls-10" d="M286.09,149.48v21.68l-22.58-4.48c-1.75-.35-2.07-1.58-.72-2.73l7.63-6.54,9.79-8.39c1.35-1.15,3.63-1.23,5.05-.16l.83.63Z"/>
              <path class="cls-10" d="M286.09,165.45v5.72c0,1.78-1.46,3.24-3.24,3.24h-46.96c-1.78,0-3.24-1.46-3.24-3.24v-4.3l21.49-14.64c1.47-1,3.97-1.15,5.55-.35l10.72,5.51,15.67,8.05Z"/>
              <path class="cls-10" d="M271.06,142.3c0,2.18-1.77,3.95-3.95,3.95s-3.95-1.77-3.95-3.95,1.77-3.95,3.95-3.95,3.95,1.77,3.95,3.95Z"/>
            </g>
          </g>
          <path class="cls-14" d="M208.82,303.41h48.94c2.98,0,5.4,2.42,5.4,5.4v8.64c0,2.98-2.42,5.4-5.4,5.4h-48.94c-2.98,0-5.4-2.42-5.4-5.4v-8.63c0-2.98,2.42-5.4,5.4-5.4Z"/>
        </g>
        <g>
          <path class="cls-6" d="M346.89,347.24h13.55c1.89,2.52,2,8.72.21,9.98h-22.37c-1.68,0,.21-4.88,1.16-4.99.95-.11,4.94-2.47,7.46-4.99Z"/>
          <polygon class="cls-2" points="359.49 347.24 358.97 341.46 348.04 341.46 347.66 347.24 359.49 347.24"/>
          <path class="cls-6" d="M315.69,347.24h13.55c1.89,2.52,2,8.72.21,9.98h-26.58c-1.68,0,.21-4.2,1.16-4.31.95-.11,9.24-1.79,11.66-5.67Z"/>
          <polygon class="cls-2" points="328.29 347.24 327.77 341.46 316.84 341.46 316.46 347.24 328.29 347.24"/>
          <path class="cls-3" d="M357.91,214.04c1.26,4.2,3.89,13.45,3.15,23.74-.74,10.29-2.79,41.71-3.15,48-1.36,23.95,2.42,54.2,2.73,57.04-4.73,2.52-12.76,1.1-13.55.32,0,0-8.35-49.47-8.98-53.89-.63-4.41-3.15-39.08-3.47-42.38-.31-3.31-.79-29.99-.16-29.94,4.99.41,23.42-2.89,23.42-2.89Z"/>
          <path class="cls-1" d="M345.6,239.61c-1.36,10.34-8.89,32.03-8.89,32.03l-1.81-22.59,10.71-9.44Z"/>
          <path class="cls-4" d="M318.42,215.51c-1.26,5.2-12.13,53.57-12.29,68.86-.16,15.28,9.3,59.56,9.3,59.56,6.25,1.84,13.39-.68,13.39-.68,0,0-4.94-53.05-4.94-55.78s11.13-35.92,11.13-35.92c5.78-1.47,10.08-9.3,11.03-11.13,1.68-3.26,4.94-13.45,6.09-23.84l-33.72-1.05Z"/>
          <path class="cls-23" d="M369,193.46c.79,4.41-.32,10.24-1.42,11.66-1.1,1.42-8.04,3.62-11.5,3.15-3.47-.47-10.87-11.82-3.47-12.92,7.41-1.1,16.39-1.89,16.39-1.89Z"/>
          <path class="cls-24" d="M315.58,198.97c-.79,4.25-6.92,12.03-9.93,11.82-8.82-.63-30.75-18.1-32.46-20.17-1.21-1.47-3.84-2.42-5.2-2.73-1.36-.32-5.04-4.83-4.83-9.56.21-4.73.84-7.56,2.52-6.3,1.68,1.26,7.25,7.04,7.25,7.04,0,0,3.36-3.78,4.62-3.15,1.26.63-.21,7.14,1.68,8.4,1.89,1.26,22.06,9.45,22.58,9.77.53.32,3.05-4.94,3.05-4.94l10.72,9.82Z"/>
          <path class="cls-16" d="M330.16,153.83c-4.38,1.59-15.2,9.69-17.65,12.61-2.44,2.91-10.64,20.96-10.32,21.74,3.43,8.59,14.1,13,14.1,13l1.08-1.73-1.68,17.86c-.21,1.23,10.07,4.72,21.11,4.31,11.53-.43,23.21-5.13,23-6.72-.32-2.42-2.1-14.5-2.1-14.5,0,0,12.71-2.73,12.71-6.14,0-4.57-5.25-27.99-9.14-33.25-2.81-3.8-14.6-8.51-18.83-10.01-1.34-.47-11.42,2.52-12.29,2.84Z"/>
          <path class="cls-15" d="M357.5,177.59c-.21,5.36-.1,19.01.21,22.79l3.15-.63-3.36-22.16Z"/>
          <path class="cls-15" d="M325.25,180.85c.13-1.6-6.2,15.44-7.88,18.59l-.63,7.25s7.77-17.02,8.51-25.84Z"/>
          <path class="cls-27" d="M343.84,146.4c.11,2.21.11,7.04.11,7.04-2,3.15-12.61,3.15-14.81,1.58,0-2.52.42-12.08.42-12.08,0,0,4.31-4.31,8.51-3.36s5.78,6.83,5.78,6.83Z"/>
          <path class="cls-23" d="M335.65,147.24c-2.21,2.31-6.3,2.63-6.3,2.63l.21-4.31,6.09,1.68Z"/>
          <path class="cls-24" d="M325.46,124.55c-1.16,6.62-2.73,21.85,2.63,23,5.36,1.15,13.34-1.89,13.34-1.89,0,0,4.41-15.13-3.05-18.07-7.46-2.94-12.92-3.05-12.92-3.05Z"/>
          <path class="cls-6" d="M343.74,147.45c1.05.21,2.73-3.79,5.67-7.25,4.2-4.94,6.57-12.16,3.99-17.86-2-4.41-5.99-4.62-5.99-4.62-3.05-9.35-9.03-6.62-12.29-5.88-3.26.74-8.4,2.63-12.92.32-.95,4.73-.31,11.34,3.26,12.4,3.57,1.05,5.2.2,9.03,10.61.74,2,4.59,11.36,9.24,12.29Z"/>
          <path class="cls-26" d="M333.13,134c3.05-4.31,5.36.42,5.36,2.41s-2.63,5.04-5.46,3.89c-2.84-1.16.11-6.3.11-6.3Z"/>
        </g>
      </g>
    </g>
  </g>
</svg>