<?xml version="1.0" encoding="UTF-8"?>
<svg id="Fast_Enquiries" data-name="Fast Enquiries" xmlns="http://www.w3.org/2000/svg" viewBox="0 0 478 359">
  <defs>
    <style>
      .cls-1 {
        fill: #21235e;
      }

      .cls-2 {
        fill: #f3bdc8;
      }

      .cls-3 {
        fill: #fff;
      }

      .cls-4 {
        fill: #9cc5e9;
      }

      .cls-5 {
        fill: #93bde5;
      }

      .cls-6 {
        fill: #dbab28;
      }

      .cls-7 {
        fill: #8ea6d6;
      }

      .cls-8 {
        fill: #f3bcc7;
      }

      .cls-9 {
        fill: #3981c3;
      }

      .cls-10 {
        fill: #c5c4c1;
      }

      .cls-11 {
        fill: #ffcb33;
      }

      .cls-12 {
        fill: #e98097;
      }

      .cls-13 {
        fill: #3660ac;
      }

      .cls-14 {
        fill: #e4c0a0;
      }

      .cls-15 {
        fill: #e5b995;
      }

      .cls-16 {
        fill: #e5e6eb;
      }

      .cls-17 {
        fill: #ccb5a2;
      }

      .cls-18 {
        fill: #55c8e9;
      }
    </style>
  </defs>
  <ellipse class="cls-16" cx="244.37" cy="315.07" rx="176.36" ry="11.94"/>
  <g>
    <path class="cls-9" d="M310.69,55.24h-132.63c-7.93,0-14.36,6.43-14.36,14.36v223.39c0,11.27,9.14,20.41,20.41,20.41h120.53c11.27,0,20.41-9.14,20.41-20.41V69.59c0-7.93-6.43-14.36-14.36-14.36Z"/>
    <path class="cls-16" d="M163.25,110.88h187.3v140.28h-187.3c-13.83,0-25.06-11.23-25.06-25.06v-90.16c0-13.83,11.23-25.06,25.06-25.06Z" transform="translate(63.35 425.39) rotate(-90)"/>
    <rect class="cls-16" x="215.12" y="63.59" width="58.51" height="3.55" rx="1.65" ry="1.65"/>
    <g>
      <g>
        <polygon class="cls-3" points="304.22 112.15 304.22 121.16 291.45 112.15 304.22 112.15"/>
        <rect class="cls-3" x="205.84" y="86.42" width="98.38" height="26.6"/>
        <g>
          <rect class="cls-7" x="212.94" y="92.41" width="47.43" height="2.55"/>
          <rect class="cls-7" x="262.92" y="92.41" width="26.86" height="2.55"/>
          <rect class="cls-7" x="289.54" y="92.41" width="7.57" height="2.55"/>
          <rect class="cls-7" x="212.94" y="98.99" width="32.67" height="2.55"/>
          <rect class="cls-7" x="248.16" y="98.99" width="30.72" height="2.55"/>
          <rect class="cls-7" x="281.43" y="98.99" width="15.69" height="2.55"/>
          <rect class="cls-7" x="212.94" y="105.57" width="28.85" height="2.55"/>
          <rect class="cls-7" x="239.62" y="105.57" width="14.14" height="2.55"/>
          <rect class="cls-7" x="256.3" y="105.57" width="29.08" height="2.55"/>
        </g>
      </g>
      <g>
        <polygon class="cls-3" points="304.22 189.39 304.22 198.39 291.45 189.39 304.22 189.39"/>
        <rect class="cls-3" x="205.84" y="163.65" width="98.38" height="26.6"/>
        <g>
          <rect class="cls-7" x="212.94" y="169.64" width="47.43" height="2.55"/>
          <rect class="cls-7" x="262.92" y="169.64" width="26.86" height="2.55"/>
          <rect class="cls-7" x="289.54" y="169.64" width="7.57" height="2.55"/>
          <rect class="cls-7" x="212.94" y="176.22" width="32.67" height="2.55"/>
          <rect class="cls-7" x="248.16" y="176.22" width="30.72" height="2.55"/>
          <rect class="cls-7" x="281.43" y="176.22" width="15.69" height="2.55"/>
          <rect class="cls-7" x="212.94" y="182.8" width="28.85" height="2.55"/>
          <rect class="cls-7" x="239.62" y="182.8" width="14.14" height="2.55"/>
          <rect class="cls-7" x="256.3" y="182.8" width="29.08" height="2.55"/>
        </g>
      </g>
      <g>
        <polygon class="cls-13" points="184.52 150.77 184.52 159.77 197.29 150.77 184.52 150.77"/>
        <rect class="cls-13" x="184.52" y="125.03" width="98.38" height="26.6" transform="translate(467.42 276.67) rotate(180)"/>
        <g>
          <rect class="cls-3" x="191.63" y="131.03" width="47.43" height="2.55"/>
          <rect class="cls-3" x="241.6" y="131.03" width="26.86" height="2.55"/>
          <rect class="cls-3" x="268.22" y="131.03" width="7.57" height="2.55"/>
          <rect class="cls-3" x="191.63" y="137.61" width="32.67" height="2.55"/>
          <rect class="cls-3" x="226.85" y="137.61" width="30.72" height="2.55"/>
          <rect class="cls-3" x="260.11" y="137.61" width="15.69" height="2.55"/>
          <rect class="cls-3" x="191.63" y="144.19" width="28.85" height="2.55"/>
          <rect class="cls-3" x="218.3" y="144.19" width="14.14" height="2.55"/>
          <rect class="cls-3" x="234.98" y="144.19" width="29.08" height="2.55"/>
        </g>
      </g>
      <g>
        <polygon class="cls-13" points="184.52 228 184.52 237 197.29 228 184.52 228"/>
        <rect class="cls-13" x="184.52" y="202.27" width="98.38" height="26.6" transform="translate(467.42 431.13) rotate(180)"/>
        <g>
          <rect class="cls-3" x="191.63" y="208.26" width="47.43" height="2.55"/>
          <rect class="cls-3" x="241.6" y="208.26" width="26.86" height="2.55"/>
          <rect class="cls-3" x="268.22" y="208.26" width="7.57" height="2.55"/>
          <rect class="cls-3" x="191.63" y="214.84" width="32.67" height="2.55"/>
          <rect class="cls-3" x="226.85" y="214.84" width="30.72" height="2.55"/>
          <rect class="cls-3" x="260.11" y="214.84" width="15.69" height="2.55"/>
          <rect class="cls-3" x="191.63" y="221.42" width="28.85" height="2.55"/>
          <rect class="cls-3" x="218.3" y="221.42" width="14.14" height="2.55"/>
          <rect class="cls-3" x="234.98" y="221.42" width="29.08" height="2.55"/>
        </g>
      </g>
      <g>
        <polygon class="cls-3" points="304.22 266.62 304.22 275.62 291.45 266.62 304.22 266.62"/>
        <rect class="cls-3" x="205.84" y="240.88" width="98.38" height="26.6"/>
        <g>
          <rect class="cls-7" x="212.94" y="246.88" width="47.43" height="2.55"/>
          <rect class="cls-7" x="262.92" y="246.88" width="26.86" height="2.55"/>
          <rect class="cls-7" x="289.54" y="246.88" width="7.57" height="2.55"/>
          <rect class="cls-7" x="212.94" y="253.46" width="32.67" height="2.55"/>
          <rect class="cls-7" x="248.16" y="253.46" width="30.72" height="2.55"/>
          <rect class="cls-7" x="281.43" y="253.46" width="15.69" height="2.55"/>
          <rect class="cls-7" x="212.94" y="260.04" width="28.85" height="2.55"/>
          <rect class="cls-7" x="239.62" y="260.04" width="14.14" height="2.55"/>
          <rect class="cls-7" x="256.3" y="260.04" width="29.08" height="2.55"/>
        </g>
      </g>
    </g>
  </g>
  <g>
    <g>
      <polygon class="cls-11" points="368.16 265.85 374.93 265.85 384.43 179.05 377.66 179.05 368.16 265.85"/>
      <polygon class="cls-6" points="300.64 317.7 305.26 317.7 319.38 265.85 314.76 265.85 300.64 317.7"/>
      <polygon class="cls-6" points="355.48 265.85 369.6 317.7 374.22 317.7 360.1 265.85 355.48 265.85"/>
      <rect class="cls-11" x="332.73" y="225.79" width="6.96" height="73.14" transform="translate(598.57 -73.84) rotate(90)"/>
    </g>
    <g>
      <g>
        <path class="cls-2" d="M320.1,308.19c.16,4.92-7.08,8.18-8.39,8.47-.87.19-1.21-.91-1.38-1.67.94-.31,2.05-.8,3.54-2.52,2.27-2.63,2.29-4.21,2.29-4.21l3.94-.07h0Z"/>
        <path class="cls-1" d="M320.1,308.19c-.04,4.86-6.63,7.77-7.94,8.06-.87.19-1.66-.5-1.82-1.25-.35.11-1.4.45-1.72.6-1.17.54-.13,1.42.91,1.84.64.26,1.69.41,3.34.04,2.5-.55,5.79-3.48,6.49-4.6l.08,4.37,1.65-.03-.1-5.31c-.05-2.53-.82-3.62-.89-3.72Z"/>
      </g>
      <path class="cls-1" d="M301.36,246.67h0c.2-3.58,3.04-6.5,6.67-6.75l40.26-.65s0,0,.01,0c5.18-.36,9.67,3.55,10.03,8.73.36,5.18-8.73,10.03-8.73,10.03,0,0-25.48,2.01-35.36-1.12l-8,51.43h-4.32s-.58-61.46-.57-61.69Z"/>
      <g>
        <path class="cls-2" d="M306.12,308.36c.07,4.92-7.23,8.05-8.55,8.31-.87.18-1.19-.93-1.34-1.69.95-.29,2.07-.76,3.59-2.46,2.32-2.59,2.37-4.17,2.37-4.17h3.94s0,0,0,0Z"/>
        <path class="cls-1" d="M306.12,308.36c-.13,4.86-6.77,7.64-8.09,7.91-.87.18-1.65-.53-1.8-1.29-.36.11-1.41.42-1.73.56-1.18.52-.16,1.42.88,1.86.63.27,1.68.44,3.34.11,2.51-.5,5.86-3.37,6.57-4.48v4.37h1.66v-5.31c0-2.53-.75-3.64-.82-3.73Z"/>
      </g>
      <path class="cls-1" d="M350.31,179.02c-.1,2.94.27,6.94.71,8.92.37,1.66,3.49,1.95,4.36,3.41,1.67,2.81,2.53,6.09,2.47,9.35-.02,1.09.94,1.84,1.88,2.39s1.99.87,3.04,1.12c2.97.73,6.04,1.07,9.1,1.01,2.53-.04,5.15-.2,7.59-.89,3.09-.87,4.87-4.13,6.06-6.87,1.19-2.74,1.22-8.57.12-11.38-1.56-3.99-8.83,6.25-12.32,3.77-1.5-3.97-5.79-7.13-9.83-8.44-2.93-.95-10.08-2.43-13.16-2.39Z"/>
      <g>
        <path class="cls-12" d="M311.53,219.12l9.62,4.3c-.08.05-.16.1-.24.15-2.43,1.46-5.1,2.61-7.95,3.42-2.41.69-4.97,1.17-8.03,1.51-2.27.25-4.67.41-7.79.52-2.82.1-5.57.13-7.66.14-.29,0-.57-.06-.83-.17-.73-.33-1.23-1.06-1.29-1.9-.09-1.17.69-2.22,1.78-2.38,3.01-.46,5.29-.83,7.41-1.22,2.88-.52,5.17-1.02,7.19-1.54,2.57-.67,4.72-1.4,6.6-2.26.4-.18.8-.37,1.18-.57Z"/>
        <path class="cls-2" d="M341.44,191.78l-4.61-2.06c.83.04,1.67.24,2.48.6.23.1.45.22.67.34.54.31,1.03.69,1.46,1.12Z"/>
        <path class="cls-18" d="M342.56,198.99c-2.53,3.76-5.12,7.53-7.96,11.26-1.43,1.86-2.9,3.72-4.54,5.53-1.63,1.81-3.4,3.58-5.39,5.19-1.98,1.62-4.19,3.06-6.52,4.19-2.33,1.14-4.76,1.95-7.16,2.51-2.4.57-4.76.91-7.08,1.16-2.33.25-4.62.4-6.9.49l-.66-6.24c2.17-.36,4.31-.77,6.39-1.25,2.08-.48,4.1-1.05,5.98-1.75,1.89-.7,3.63-1.55,5.2-2.58,1.58-1.03,3-2.23,4.32-3.62,2.64-2.77,4.92-6.23,7.07-9.91,2.15-3.68,4.18-7.57,6.18-11.51,1.32-2.58,5.07-3.24,8.25-1.4,3.17,1.83,4.48,5.44,2.82,7.92Z"/>
        <path class="cls-16" d="M342.95,199.25c-.9,1.34-1.76,2.6-2.6,3.83l-2.57-1.15-3.27,4.65,2.28,1.53h0c-.59.81-1.19,1.62-1.81,2.42-1.38,1.79-2.89,3.71-4.57,5.56-1.87,2.07-3.65,3.78-5.44,5.24-.3.25-.6.48-.91.72l-.55-3.11-23.12,8.35.29,2.3c-1.16.08-2.38.15-3.65.21l-.44.02-.75-7.12.44-.07c2.34-.39,4.42-.79,6.36-1.24,2.3-.53,4.24-1.1,5.93-1.73,1.9-.71,3.62-1.56,5.11-2.53,1.51-.98,2.89-2.14,4.24-3.55.38-.4.76-.81,1.13-1.25l1.76,1.5,10.16-11.76-3.75-2.39c1.36-2.49,2.65-5,3.87-7.41,1.32-2.57,4.88-3.45,8.11-2,.27.12.53.26.79.4,1.87,1.08,3.19,2.77,3.63,4.64.33,1.42.09,2.82-.66,3.95Z"/>
        <path class="cls-9" d="M342.56,198.99c-2.53,3.76-5.12,7.53-7.96,11.26-1.43,1.86-2.9,3.72-4.54,5.53-1.63,1.81-3.4,3.58-5.39,5.19-1.98,1.62-4.19,3.06-6.52,4.19-2.33,1.14-4.76,1.95-7.16,2.51-2.4.57-4.76.91-7.08,1.16-2.33.25-4.62.4-6.9.49l-.66-6.24c2.17-.36,4.31-.77,6.39-1.25,2.08-.48,4.1-1.05,5.98-1.75,1.89-.7,3.63-1.55,5.2-2.58,1.58-1.03,3-2.23,4.32-3.62,2.64-2.77,4.92-6.23,7.07-9.91,2.15-3.68,4.18-7.57,6.18-11.51,1.32-2.58,5.07-3.24,8.25-1.4,3.17,1.83,4.48,5.44,2.82,7.92Z"/>
      </g>
      <path class="cls-9" d="M346.02,188.2h0c-10.6,1.34-17.53,11.79-14.63,22.08l6.27,29.16c7.94,1.88,15.69,3.25,28.74,7.93l-4.14-45.5c-.4-8.42-7.89-14.72-16.25-13.66Z"/>
      <path class="cls-16" d="M365.97,242.7l.47-.04-2.12-24.11-.47.06,2.11,24.09ZM330.54,202.4h.47c.81-4.44,3.32-8.4,6.95-11.03l-.15-.46c-1.78,1.26-3.33,2.85-4.56,4.72-1.37,2.08-2.28,4.38-2.71,6.77ZM362.27,201.87l.98,10.4.48.08-1-10.52c-.19-4.12-2.13-8.03-5.3-10.7-.05-.04-.1-.08-.15-.13l-.34.32c3.08,2.5,5.13,6.24,5.33,10.55Z"/>
      <path class="cls-1" d="M309.46,249.37h0c-.14-3.64,2.49-6.86,6.16-7.38.05,0,40.34-2.67,40.34-2.67,0,0,0,0,.01,0,5.16-.62,9.84,3.06,10.46,8.22.62,5.16-3.06,9.84-8.22,10.46,0,0-25.02,3.26-34.96.75l-2.85,49.44-4.51.08s-6.42-58.67-6.43-58.9Z"/>
      <path class="cls-13" d="M310.61,264.3c.68,6.24,1.49,13.67,2.26,20.7h.47c-.77-7.01-1.59-14.5-2.27-20.8l-.46.1ZM308.99,249.37v.05c.03.29.24,2.2.56,5.18l.48.05c-.35-3.24-.57-5.24-.57-5.28h0c-.14-3.64,2.49-6.86,6.16-7.38.01,0,1.82-.12,4.67-.31v-.47c-4.71.31-4.72.31-4.73.32-3.89.55-6.71,3.92-6.56,7.85ZM329.22,240.62l.07.47c3.37-.22,7-.46,10.47-.69v-.47c-4.2.28-7.68.51-10.55.7ZM354.47,238.94c-2.46.16-4.77.32-6.93.46l.16.46c2.68-.18,4.92-.33,6.39-.42l.38-.5ZM359.86,257.64l.21.43c4.09-1.29,6.93-5.15,6.89-9.5-.16,0-.31,0-.47,0,.04,4.17-2.69,7.86-6.63,9.07ZM337.62,259.64l.1.47c5.94-.17,11.97-.71,15.95-1.13l-.23-.45c-4,.41-9.98.94-15.82,1.11ZM322.38,273.8h.47l.84-14.47c1.59.35,3.58.59,5.96.72l.08-.46c-2.49-.13-4.72-.39-6.48-.84l-.87,15.06ZM313.6,291.72c.81,7.43,1.5,13.71,1.82,16.6l.05.42,4.22-.07v-.47s-3.8.07-3.8.07c0,0-.79-7.22-1.82-16.61l-.47.06ZM320.68,303.1h.47l1.22-21.12c-.17-.04-.34-.08-.46-.12l-1.23,21.24Z"/>
      <g>
        <path class="cls-2" d="M327.5,224.72l9.7,4.12c-.08.05-.16.1-.23.15-2.4,1.5-5.05,2.71-7.88,3.57-2.4.74-4.94,1.27-8,1.66-2.26.29-4.66.49-7.78.67-2.82.16-5.57.23-7.65.28-.29,0-.57-.04-.83-.16-.74-.31-1.25-1.03-1.33-1.88-.11-1.17.65-2.23,1.73-2.41,3-.51,5.28-.93,7.38-1.36,2.87-.58,5.15-1.11,7.16-1.68,2.55-.71,4.7-1.49,6.56-2.38.4-.19.79-.39,1.17-.59Z"/>
        <path class="cls-2" d="M356.88,196.82l-4.65-1.97c.83.03,1.67.21,2.49.56.23.1.46.21.68.33.55.3,1.04.67,1.48,1.09Z"/>
        <path class="cls-18" d="M358.14,204c-2.46,3.81-4.98,7.63-7.75,11.41-1.4,1.89-2.83,3.78-4.44,5.62-1.6,1.84-3.34,3.64-5.29,5.3-1.95,1.65-4.13,3.14-6.44,4.32-2.31,1.18-4.73,2.04-7.11,2.65-2.38.61-4.74,1-7.06,1.3-2.32.29-4.61.48-6.89.62l-.78-6.22c2.16-.4,4.29-.85,6.36-1.37,2.07-.52,4.08-1.12,5.95-1.86,1.87-.74,3.6-1.62,5.15-2.68,1.56-1.06,2.95-2.29,4.25-3.7,2.59-2.82,4.8-6.33,6.88-10.04,2.08-3.72,4.03-7.65,5.96-11.63,1.27-2.6,5.01-3.33,8.22-1.56,3.21,1.77,4.58,5.35,2.97,7.86Z"/>
        <path class="cls-16" d="M358.53,204.26c-.87,1.35-1.71,2.64-2.53,3.87l-2.59-1.1-3.18,4.71,2.31,1.49h0c-.58.83-1.16,1.64-1.76,2.46-1.35,1.82-2.82,3.76-4.46,5.65-1.83,2.1-3.57,3.85-5.34,5.35-.3.25-.59.49-.89.73l-.6-3.1-22.95,8.79.33,2.3c-1.16.11-2.37.2-3.65.27l-.44.03-.89-7.1.43-.08c2.33-.43,4.41-.88,6.33-1.36,2.29-.58,4.21-1.18,5.89-1.84,1.89-.74,3.59-1.63,5.06-2.63,1.49-1.01,2.85-2.2,4.17-3.63.37-.4.74-.83,1.11-1.28l1.79,1.46,9.93-11.95-3.79-2.32c1.31-2.52,2.56-5.05,3.73-7.48,1.27-2.59,4.81-3.54,8.07-2.15.27.11.54.25.8.39,1.89,1.04,3.25,2.71,3.72,4.57.35,1.41.15,2.82-.58,3.96Z"/>
        <path class="cls-9" d="M358.14,204c-2.46,3.81-4.98,7.63-7.75,11.41-1.4,1.89-2.83,3.78-4.44,5.62-1.6,1.84-3.34,3.64-5.29,5.3-1.95,1.65-4.13,3.14-6.44,4.32-2.31,1.18-4.73,2.04-7.11,2.65-2.38.61-4.74,1-7.06,1.3-2.32.29-4.61.48-6.89.62l-.78-6.22c2.16-.4,4.29-.85,6.36-1.37,2.07-.52,4.08-1.12,5.95-1.86,1.87-.74,3.6-1.62,5.15-2.68,1.56-1.06,2.95-2.29,4.25-3.7,2.59-2.82,4.8-6.33,6.88-10.04,2.08-3.72,4.03-7.65,5.96-11.63,1.27-2.6,5.01-3.33,8.22-1.56,3.21,1.77,4.58,5.35,2.97,7.86Z"/>
      </g>
      <g>
        <path class="cls-14" d="M340.38,183.75l2.58,10.32c2.61.9,4.85.33,6.73-1.68l-2.58-10.32-6.73,1.68Z"/>
        <path class="cls-17" d="M340.61,184.68l.64,2.56c1.16.35,2.42.43,3.67.17.07-.02.14-.03.21-.05,1.17-.29,2.18-1.02,2.79-2.01l-.59-2.36-6.73,1.68Z"/>
        <path class="cls-15" d="M335.16,174.73l2.01,7.3c.94,3.3,4.27,5.33,7.63,4.65h0c.98-.2,1.94-.81,2.48-1.77.59-1.04.88-2.09,1.13-3.16.47-2.05.75-4.01.12-6.02l-.89-2.17-11.13-1.83-1.36,3Z"/>
        <path class="cls-1" d="M378.98,179.51c-5.85-2.65-11.66-4.47-16.35-9.21-4.09-4.13-8.25-9.34-14.4-10.14-1.62-.21-3.28-.12-4.87.22-3.07.66-6.32,2.35-8.7,4.4-1.6,1.38-2.91,3.22-3.38,5.3-.46,2.04.48,4.43,2.53,5.25,1.87.74,3.77.1,5.54-.6,1.33-.53,2.69-1.08,4.14-1.06,2.23.02,5.15.99,6.26,3.09.39.75.51,1.61.59,2.46.02.22.05.45.1.66-.07.7-.09,1.4.08,2.08.69,2.74,4.02,3.76,6.77,3.49,5.77-.57,6.83,2.08,7.56,7.22,1.64,11.43,22.64,4.13,20.98-5.78-.04-.27-.11-.53-.18-.79-.91-3.07-3.76-5.27-6.65-6.58Z"/>
        <path class="cls-8" d="M346.53,177.49c.34,1.35,1.71,2.17,3.06,1.84,1.35-.34,2.17-1.71,1.84-3.06-.34-1.35-1.71-2.17-3.06-1.84-1.35.34-2.17,1.71-1.84,3.06Z"/>
      </g>
    </g>
    <g>
      <rect class="cls-7" x="218.23" y="228.23" width="195.53" height="4.97" transform="translate(631.99 461.44) rotate(180)"/>
      <rect class="cls-13" x="228.82" y="233.21" width="174.34" height="4.97" transform="translate(631.99 471.39) rotate(180)"/>
      <polygon class="cls-13" points="391.56 317.7 397.48 317.7 386.1 238.18 372.68 238.18 391.56 317.7"/>
      <polygon class="cls-1" points="340.4 317.7 334.48 317.7 345.86 238.18 359.28 238.18 340.4 317.7"/>
      <polygon class="cls-13" points="234.74 317.7 228.82 317.7 240.2 238.18 253.62 238.18 234.74 317.7"/>
      <polygon class="cls-1" points="285.9 317.7 291.82 317.7 280.44 238.18 267.03 238.18 285.9 317.7"/>
    </g>
    <g>
      <rect class="cls-10" x="287.43" y="226.44" width="53.33" height="1.79"/>
      <polygon class="cls-10" points="287.43 226.44 320.56 226.44 310.32 199.33 277.2 199.33 287.43 226.44"/>
      <path class="cls-3" d="M297.01,215.25c.67,2.78,2.05,4.83,3.08,4.58s1.32-2.71.64-5.49c-.67-2.78-2.05-4.83-3.08-4.58-1.03.25-1.32,2.71-.64,5.49Z"/>
    </g>
    <g>
      <path class="cls-16" d="M341.43,185.07c-.27,0-.5-.21-.53-.48-.03-.29.19-.55.48-.57,1.9-.17,3.73-1.06,5.02-2.46s2.04-3.29,2.06-5.2c0-.29.25-.53.53-.52.29,0,.53.24.52.53-.02,2.16-.87,4.32-2.34,5.91-1.47,1.59-3.55,2.61-5.71,2.8-.02,0-.03,0-.05,0Z"/>
      <circle class="cls-16" cx="349.15" cy="176.73" r="1.89"/>
      <circle class="cls-13" cx="349.15" cy="176.73" r="1.21"/>
    </g>
  </g>
  <g>
    <rect class="cls-7" x="74.98" y="160.34" width="128.17" height="59.05" rx="7.19" ry="7.19"/>
    <g>
      <path class="cls-3" d="M95.26,175.88c.16-.16.07-.44-.15-.47l-3.3-.48c-.09-.01-.17-.07-.21-.15l-1.47-2.99c-.1-.2-.39-.2-.49,0l-1.47,2.99c-.04.08-.12.14-.21.15l-3.3.48c-.23.03-.32.31-.15.47l2.39,2.33c.06.06.09.15.08.24l-.56,3.28c-.04.22.2.4.4.29l2.95-1.55c.08-.04.18-.04.26,0l2.95,1.55c.2.11.44-.07.4-.29l-.56-3.28c-.02-.09.01-.18.08-.24l2.39-2.33Z"/>
      <path class="cls-3" d="M108.4,175.88c.16-.16.07-.44-.15-.47l-3.3-.48c-.09-.01-.17-.07-.21-.15l-1.47-2.99c-.1-.2-.39-.2-.49,0l-1.47,2.99c-.04.08-.12.14-.21.15l-3.3.48c-.23.03-.32.31-.15.47l2.39,2.33c.06.06.09.15.08.24l-.56,3.28c-.04.22.2.4.4.29l2.95-1.55c.08-.04.18-.04.26,0l2.95,1.55c.2.11.44-.07.4-.29l-.56-3.28c-.02-.09.01-.18.08-.24l2.39-2.33Z"/>
      <path class="cls-3" d="M121.55,175.88c.16-.16.07-.44-.15-.47l-3.3-.48c-.09-.01-.17-.07-.21-.15l-1.47-2.99c-.1-.2-.39-.2-.49,0l-1.47,2.99c-.04.08-.12.14-.21.15l-3.3.48c-.23.03-.32.31-.15.47l2.39,2.33c.06.06.09.15.08.24l-.56,3.28c-.04.22.2.4.4.29l2.95-1.55c.08-.04.18-.04.26,0l2.95,1.55c.2.11.44-.07.4-.29l-.56-3.28c-.02-.09.01-.18.08-.24l2.39-2.33Z"/>
      <path class="cls-3" d="M134.69,175.88c.16-.16.07-.44-.15-.47l-3.3-.48c-.09-.01-.17-.07-.21-.15l-1.47-2.99c-.1-.2-.39-.2-.49,0l-1.47,2.99c-.04.08-.12.14-.21.15l-3.3.48c-.23.03-.32.31-.15.47l2.39,2.33c.06.06.09.15.08.24l-.56,3.28c-.04.22.2.4.4.29l2.95-1.55c.08-.04.18-.04.26,0l2.95,1.55c.2.11.44-.07.4-.29l-.56-3.28c-.02-.09.01-.18.08-.24l2.39-2.33Z"/>
      <path class="cls-3" d="M147.83,175.88c.16-.16.07-.44-.15-.47l-3.3-.48c-.09-.01-.17-.07-.21-.15l-1.47-2.99c-.1-.2-.39-.2-.49,0l-1.47,2.99c-.04.08-.12.14-.21.15l-3.3.48c-.23.03-.32.31-.15.47l2.39,2.33c.06.06.09.15.08.24l-.56,3.28c-.04.22.2.4.4.29l2.95-1.55c.08-.04.18-.04.26,0l2.95,1.55c.2.11.44-.07.4-.29l-.56-3.28c-.02-.09.01-.18.08-.24l2.39-2.33Z"/>
    </g>
    <path class="cls-3" d="M200.33,189.86c0,7.47-3.4,14.15-8.74,18.56-4.17,3.45-9.51,5.52-15.33,5.52s-11.17-2.07-15.34-5.52c-5.34-4.42-8.74-11.09-8.74-18.56,0-13.3,10.78-24.08,24.08-24.08s24.08,10.78,24.08,24.08Z"/>
    <rect class="cls-3" x="86.65" y="191.43" width="59.62" height="2.12"/>
    <rect class="cls-3" x="92.71" y="204.69" width="53.57" height="2.12" transform="translate(-2.5 1.47) rotate(-.7)"/>
    <path class="cls-13" d="M191.59,197.53v10.89c-4.17,3.45-9.51,5.52-15.33,5.52s-11.17-2.07-15.34-5.52v-10.89l14.75-6.47,15.92,6.47Z"/>
    <ellipse class="cls-13" cx="176.25" cy="184.42" rx="7.9" ry="9.03"/>
    <path class="cls-16" d="M181.86,181.47v-1.74h-11.21v1.74c-.52,0-.93.42-.93.93v3.47c0,.52.42.93.93.93v.93c0,1.31.45,2.51,1.2,3.46v3.97c0,2.43,1.97,4.41,4.41,4.41s4.41-1.97,4.41-4.41v-3.97c.75-.95,1.2-2.15,1.2-3.46v-.93c.52,0,.93-.42.93-.93v-3.47c0-.52-.42-.93-.93-.93Z"/>
    <path class="cls-13" d="M176.25,175.76c-1.13,0-2.18.32-3.06.79,0,0-.01,0-.02.01-.01,0-.03.01-.04.02,0,0-.01,0-.02,0-1.4.74-2.57,1.66-2.71,3.78,0,.09,0,.17,0,.26-.23.15-.44.38-.59.61-.98,1.49-1.16,3.47-.48,5.11.13.31.29.61.37.94.08.33.07.69-.12.97.95-.49,1.63-1.47,1.8-2.53.2.58.37,1.17.35,1.78-.02.84-.4,1.64-.92,2.31-.52.66-1.17,1.21-1.82,1.75,1.94-.68,3.55-2.25,4.28-4.18.45-1.17.58-2.43.72-3.67.09-.79.19-1.59.39-2.36.59.08,1.22.12,1.88.12,1.75,0,3.31-.3,4.34-.78.52.6,1.26.78,1.26.78l.65-1.94s-3.16-3.78-6.26-3.78Z"/>
  </g>
  <g>
    <rect class="cls-5" x="74.98" y="88.3" width="128.17" height="59.05" rx="7.19" ry="7.19"/>
    <g>
      <path class="cls-3" d="M95.26,103.84c.16-.16.07-.44-.15-.47l-3.3-.48c-.09-.01-.17-.07-.21-.15l-1.47-2.99c-.1-.2-.39-.2-.49,0l-1.47,2.99c-.04.08-.12.14-.21.15l-3.3.48c-.23.03-.32.31-.15.47l2.39,2.33c.06.06.09.15.08.24l-.56,3.28c-.04.22.2.4.4.29l2.95-1.55c.08-.04.18-.04.26,0l2.95,1.55c.2.11.44-.07.4-.29l-.56-3.28c-.02-.09.01-.18.08-.24l2.39-2.33Z"/>
      <path class="cls-3" d="M108.4,103.84c.16-.16.07-.44-.15-.47l-3.3-.48c-.09-.01-.17-.07-.21-.15l-1.47-2.99c-.1-.2-.39-.2-.49,0l-1.47,2.99c-.04.08-.12.14-.21.15l-3.3.48c-.23.03-.32.31-.15.47l2.39,2.33c.06.06.09.15.08.24l-.56,3.28c-.04.22.2.4.4.29l2.95-1.55c.08-.04.18-.04.26,0l2.95,1.55c.2.11.44-.07.4-.29l-.56-3.28c-.02-.09.01-.18.08-.24l2.39-2.33Z"/>
      <path class="cls-3" d="M121.55,103.84c.16-.16.07-.44-.15-.47l-3.3-.48c-.09-.01-.17-.07-.21-.15l-1.47-2.99c-.1-.2-.39-.2-.49,0l-1.47,2.99c-.04.08-.12.14-.21.15l-3.3.48c-.23.03-.32.31-.15.47l2.39,2.33c.06.06.09.15.08.24l-.56,3.28c-.04.22.2.4.4.29l2.95-1.55c.08-.04.18-.04.26,0l2.95,1.55c.2.11.44-.07.4-.29l-.56-3.28c-.02-.09.01-.18.08-.24l2.39-2.33Z"/>
      <path class="cls-3" d="M134.69,103.84c.16-.16.07-.44-.15-.47l-3.3-.48c-.09-.01-.17-.07-.21-.15l-1.47-2.99c-.1-.2-.39-.2-.49,0l-1.47,2.99c-.04.08-.12.14-.21.15l-3.3.48c-.23.03-.32.31-.15.47l2.39,2.33c.06.06.09.15.08.24l-.56,3.28c-.04.22.2.4.4.29l2.95-1.55c.08-.04.18-.04.26,0l2.95,1.55c.2.11.44-.07.4-.29l-.56-3.28c-.02-.09.01-.18.08-.24l2.39-2.33Z"/>
      <path class="cls-3" d="M147.83,103.84c.16-.16.07-.44-.15-.47l-3.3-.48c-.09-.01-.17-.07-.21-.15l-1.47-2.99c-.1-.2-.39-.2-.49,0l-1.47,2.99c-.04.08-.12.14-.21.15l-3.3.48c-.23.03-.32.31-.15.47l2.39,2.33c.06.06.09.15.08.24l-.56,3.28c-.04.22.2.4.4.29l2.95-1.55c.08-.04.18-.04.26,0l2.95,1.55c.2.11.44-.07.4-.29l-.56-3.28c-.02-.09.01-.18.08-.24l2.39-2.33Z"/>
    </g>
    <path class="cls-3" d="M200.33,117.82c0,7.47-3.4,14.15-8.74,18.56-4.17,3.45-9.51,5.52-15.33,5.52s-11.17-2.07-15.34-5.52c-5.34-4.42-8.74-11.09-8.74-18.56,0-13.3,10.78-24.08,24.08-24.08s24.08,10.78,24.08,24.08Z"/>
    <rect class="cls-3" x="86.65" y="119.39" width="59.62" height="2.12"/>
    <rect class="cls-3" x="92.71" y="132.65" width="53.57" height="2.12" transform="translate(-1.62 1.47) rotate(-.7)"/>
    <path class="cls-13" d="M191.59,125.5v10.89c-4.17,3.45-9.51,5.52-15.33,5.52s-11.17-2.07-15.34-5.52v-10.89l14.75-6.47,15.92,6.47Z"/>
    <path class="cls-16" d="M181.86,109.43v-2.88l-11.21-.1v2.98c-.52,0-.93.42-.93.93v3.47c0,.52.42.93.93.93v.93c0,1.31.45,2.51,1.2,3.46v3.97c0,2.43,1.97,4.41,4.41,4.41s4.41-1.97,4.41-4.41v-3.97c.75-.95,1.2-2.15,1.2-3.46v-.93c.52,0,.93-.42.93-.93v-3.47c0-.52-.42-.93-.93-.93Z"/>
    <path class="cls-13" d="M178.49,102.65c-1.59-.49-3-.54-4.47,0-2.41.89-4.25,2.8-3.7,5.31l.65,4.62s4.06-4.99,9.03-4.88l1.7,4.88.49-4.62c.55-2.51-1.24-4.56-3.7-5.31Z"/>
    <g>
      <circle class="cls-10" cx="200.33" cy="93.74" r="13.16"/>
      <polygon class="cls-3" points="209.45 89.29 204.63 85.85 199.26 93.38 194.64 90.09 191.21 94.92 200.65 101.64 204.08 96.82 204.08 96.82 209.45 89.29"/>
    </g>
  </g>
  <g>
    <rect class="cls-10" x="345.38" y="116.65" width="36.71" height="26.7" transform="translate(727.46 260) rotate(180)"/>
    <polygon class="cls-10" points="345.38 143.35 345.38 153.55 359.84 143.35 345.38 143.35"/>
    <path class="cls-3" d="M361.86,126.69c.7-.58.79-1.62.21-2.32l-1.99-2.37c-.64-.77-1.79-.87-2.56-.23-1.12.93-1.69,2.37-1.5,3.82.62,4.78,6.15,11.39,10.74,12.84,1.39.44,2.91.13,4.02-.8.77-.64.87-1.79.23-2.56l-1.99-2.37c-.58-.7-1.62-.79-2.32-.21l-1.21,1.01c-2.73-1-4.34-2.93-4.85-5.8l1.21-1.01Z"/>
  </g>
  <g>
    <g>
      <path class="cls-7" d="M119.88,282.65c0-7.01.83-13.36,2.46-18.86,1.93-6.51,4.93-11.59,8.92-15.11l.96,1.09c-9.46,8.32-10.88,24.17-10.89,32.87h-1.45Z"/>
      <g>
        <path class="cls-7" d="M144.75,232.16l-13.22,17.06c-1,.97-2.11,1.75-3.33,1.94-2.08.34-5.45-1.36-6.56-3.13-.89-1.41-.89-3.23-.41-4.83.48-1.59,1.41-3.01,2.32-4.41.73,2.39,2.18,4.55,4.11,6.14.58.47,1.23.91,1.97,1,.74.09,1.58-.28,1.82-.98.23-.68-.15-1.43-.68-1.92-.53-.49-1.19-.8-1.75-1.25-1.14-.91-1.81-2.37-1.75-3.83.06-1.46.84-2.86,2.05-3.68.07,3.18,2.77,6.08,5.93,6.4.22-.89-.27-1.8-.87-2.49-.6-.69-1.34-1.28-1.79-2.07-.64-1.13-.56-2.63.19-3.69.75-1.06,2.13-1.64,3.41-1.43.3.82.18,1.72.13,2.59-.06.87-.02,1.82.52,2.5.54.69,1.75.88,2.24.16.51-.74-.06-1.74,0-2.64.08-1.13,1.21-1.96,2.34-2.1,1.13-.13,2.25.26,3.32.64Z"/>
        <path class="cls-16" d="M143.62,254.34c-1.12,1.23-2.26,2.48-3.69,3.35-1.42.87-3.19,1.31-4.78.81-1.99-.63-4.48-3.47-4.67-5.57-.11-1.23.36-2.5,1.05-3.71l13.22-17.06c.64.94,1.3,1.93,1.45,3.05.16,1.13-.36,2.43-1.44,2.79-.85.29-1.96-.02-2.56.66-.57.66-.09,1.78.71,2.13.8.35,1.72.15,2.55-.12.83-.27,1.67-.61,2.54-.52.53,1.19.31,2.67-.53,3.66-.84.99-2.27,1.44-3.53,1.11-.89-.23-1.64-.8-2.46-1.22-.82-.41-1.82-.66-2.63-.22,1.09,2.98,4.58,4.87,7.67,4.14-.49,1.37-1.65,2.48-3.05,2.91-1.39.42-2.98.13-4.14-.74-.57-.43-1.04-.99-1.65-1.38-.6-.39-1.42-.57-2.02-.18-.63.41-.77,1.31-.5,2.01.27.69.86,1.22,1.46,1.66,2.02,1.47,4.48,2.34,6.97,2.45Z"/>
      </g>
    </g>
    <g>
      <path class="cls-7" d="M122.16,282.87c1.27-9.56,11.84-13.14,20.91-15.18l.32,1.42c-8.61,1.94-18.63,5.29-19.79,13.96l-1.44-.19Z"/>
      <g>
        <path class="cls-7" d="M157.2,265.37l-14.49,3.14c-.9.33-1.71.79-2.19,1.49-.83,1.19-.77,3.78,0,5,.61.97,1.74,1.51,2.87,1.68,1.13.17,2.28.02,3.42-.13-1.26-1.16-2.18-2.7-2.59-4.37-.12-.5-.2-1.03-.04-1.52.17-.49.64-.9,1.15-.84.49.06.84.52.99.99.15.47.15.97.26,1.45.22.98.93,1.83,1.85,2.22.92.39,2.03.33,2.89-.18-1.95-.99-2.95-3.52-2.21-5.57.62.13,1.04.7,1.29,1.28.25.58.39,1.21.76,1.72.51.73,1.46,1.12,2.34.98.88-.15,1.65-.83,1.89-1.69-.42-.43-1.01-.62-1.57-.85-.56-.22-1.13-.53-1.4-1.06-.27-.54-.03-1.34.57-1.44.61-.1,1.06.55,1.64.78.73.29,1.58-.17,1.99-.83.42-.66.51-1.47.58-2.25Z"/>
        <path class="cls-16" d="M143.11,259.5c-1.1.33-2.21.67-3.17,1.29-.96.63-1.76,1.59-1.92,2.72-.2,1.42.83,3.81,2.07,4.55.73.43,1.66.52,2.61.45l14.49-3.14c-.39-.68-.81-1.38-1.46-1.81-.65-.43-1.62-.5-2.16.07-.43.44-.57,1.22-1.17,1.39-.58.16-1.13-.47-1.11-1.07.02-.6.42-1.11.83-1.55.41-.43.87-.86,1.08-1.42-.58-.68-1.56-.98-2.42-.76-.86.23-1.56.98-1.73,1.86-.12.62.01,1.25.03,1.88.01.63-.13,1.33-.64,1.7-1.53-1.56-1.66-4.28-.29-5.99-1-.11-2.03.29-2.7,1.03-.67.74-.97,1.81-.77,2.79.1.48.31.94.37,1.43.06.49-.07,1.05-.49,1.31-.44.27-1.04.09-1.39-.29-.35-.37-.5-.89-.6-1.4-.31-1.69-.12-3.47.55-5.05Z"/>
      </g>
    </g>
    <g>
      <path class="cls-7" d="M120.55,282.99c-7.6-20.56-10.48-23.58-24.35-38.09l1.05-1c14.04,14.69,16.97,17.75,24.67,38.59l-1.36.5Z"/>
      <g>
        <path class="cls-7" d="M79.03,223.5l18.02,21.27c.96,1.52,1.64,3.14,1.57,4.73-.13,2.72-3.18,6.53-5.71,7.46-2.02.74-4.33.27-6.21-.77-1.89-1.04-3.43-2.59-4.95-4.11,3.22-.28,6.34-1.54,8.86-3.55.75-.6,1.48-1.31,1.79-2.22.31-.91.07-2.07-.76-2.56-.8-.47-1.85-.19-2.6.34-.76.53-1.33,1.29-2.05,1.87-1.45,1.2-3.48,1.65-5.31,1.19-1.82-.46-3.39-1.83-4.1-3.58,4.03.76,8.43-1.87,9.67-5.78-1.06-.52-2.35-.14-3.38.44-1.03.58-1.97,1.36-3.1,1.71-1.6.5-3.47,0-4.61-1.23-1.14-1.23-1.5-3.13-.89-4.69,1.11-.17,2.22.23,3.31.53,1.08.3,2.29.51,3.3.02,1.01-.5,1.58-1.97.8-2.79-.8-.84-2.22-.39-3.34-.71-1.41-.4-2.16-2.06-2.02-3.52.14-1.46.93-2.77,1.7-4.02Z"/>
        <path class="cls-16" d="M106.77,230.87c1.26,1.75,2.53,3.52,3.25,5.55.72,2.03.81,4.38-.26,6.26-1.33,2.35-5.59,4.73-8.29,4.41-1.58-.19-3.06-1.13-4.4-2.32l-18.02-21.27c1.36-.56,2.78-1.13,4.25-1.02,1.47.11,2.98,1.11,3.14,2.57.13,1.16-.55,2.48.15,3.41.68.9,2.23.59,2.88-.33.65-.92.65-2.14.53-3.26-.12-1.12-.33-2.28.02-3.35,1.64-.35,3.46.32,4.48,1.65,1.02,1.33,1.21,3.25.45,4.75-.53,1.06-1.45,1.86-2.19,2.78-.74.92-1.32,2.13-.98,3.26,4.06-.58,7.38-4.49,7.29-8.59,1.61.98,2.7,2.75,2.86,4.63.16,1.87-.63,3.8-2.05,5.04-.7.61-1.53,1.05-2.19,1.71-.65.66-1.1,1.65-.76,2.51.35.9,1.45,1.32,2.41,1.17.95-.15,1.77-.76,2.49-1.4,2.4-2.16,4.15-5.03,4.96-8.16Z"/>
      </g>
    </g>
    <g>
      <path class="cls-7" d="M115.77,284.81c-2.54-9.15-13.81-15.08-22.7-17.38l.36-1.41c9.26,2.39,21.03,8.64,23.73,18.4l-1.4.39Z"/>
      <path class="cls-7" d="M77.93,261.46l15.93,4.68c.97.44,1.84,1.02,2.33,1.84.83,1.4.56,4.29-.4,5.58-.76,1.03-2.07,1.55-3.34,1.65-1.28.1-2.55-.16-3.81-.43,1.51-1.19,2.65-2.84,3.25-4.67.18-.55.31-1.14.16-1.69-.15-.56-.64-1.06-1.22-1.03-.55.02-.98.51-1.18,1.02-.2.51-.24,1.08-.4,1.6-.33,1.07-1.19,1.96-2.25,2.33-1.06.37-2.29.2-3.21-.44,2.26-.94,3.58-3.69,2.92-6.04-.7.09-1.21.7-1.54,1.32-.32.63-.54,1.32-.98,1.86-.63.77-1.73,1.14-2.7.9-.97-.24-1.77-1.06-1.98-2.04.5-.45,1.18-.62,1.82-.82.64-.2,1.31-.5,1.65-1.07.34-.58.14-1.5-.52-1.65-.67-.16-1.23.53-1.89.74-.83.26-1.75-.32-2.16-1.09-.41-.77-.45-1.68-.47-2.56Z"/>
    </g>
    <path class="cls-4" d="M134.03,281.05v30.4c0,1.99-.93,3.76-2.38,4.9-1.06.84-2.41,1.35-3.87,1.35h-17.56c-3.45,0-6.25-2.8-6.25-6.25v-30.4h30.06Z"/>
  </g>
</svg>