<?xml version="1.0" encoding="UTF-8"?>
<svg xmlns="http://www.w3.org/2000/svg" xmlns:xlink="http://www.w3.org/1999/xlink" viewBox="0 0 478 359">
  <defs>
    <style>
      .cls-1 {
        fill: #04293c;
      }

      .cls-2 {
        fill: #fff;
      }

      .cls-3 {
        fill: #4983b8;
      }

      .cls-4 {
        fill: #e2e2e2;
      }

      .cls-5 {
        opacity: .28;
      }

      .cls-5, .cls-6 {
        mix-blend-mode: multiply;
      }

      .cls-7 {
        fill: none;
      }

      .cls-8 {
        fill: #f7f8f8;
      }

      .cls-9 {
        fill: #78b3e1;
      }

      .cls-10 {
        fill: #e85e4b;
      }

      .cls-11 {
        fill: #081a22;
      }

      .cls-12 {
        fill: #4987bf;
      }

      .cls-13 {
        clip-path: url(#clippath-1);
      }

      .cls-14 {
        isolation: isolate;
      }

      .cls-15 {
        fill: #2f73b6;
      }

      .cls-16 {
        fill: #5e5e5e;
      }

      .cls-17 {
        fill: #fbcdca;
      }

      .cls-18 {
        fill: #3981c3;
      }

      .cls-19 {
        clip-path: url(#clippath-3);
      }

      .cls-20 {
        fill: #c8dcf1;
      }

      .cls-21 {
        fill: #221f20;
      }

      .cls-22 {
        fill: #f9babb;
      }

      .cls-23 {
        fill: #dd5248;
      }

      .cls-24 {
        fill: #4d89c8;
      }

      .cls-25 {
        fill: #eab0ad;
      }

      .cls-26 {
        fill: #edac80;
      }

      .cls-6 {
        opacity: .43;
      }
    </style>
    <clipPath id="clippath-1">
      <path class="cls-7" d="M195.11,336.65l61-36.85c4.75-2.87,5.85-9.28,2.34-13.57l-111.72-136.54c-5.07-6.2-13.83-7.95-20.89-4.17l-59.02,31.59c-4.97,2.66-6.36,9.16-2.9,13.62l110.2,142.02c4.99,6.44,14.02,8.11,20.99,3.9Z"/>
    </clipPath>
    <clipPath id="clippath-3">
      <path class="cls-7" d="M273.48,342.82l-55.8-47.41c-4.34-3.69-4.41-10.37-.14-14.14l135.77-120.07c6.17-5.45,15.33-5.78,21.87-.78l54.65,41.76c4.61,3.52,4.94,10.34.7,14.29l-135.13,125.88c-6.12,5.71-15.55,5.92-21.93.5Z"/>
    </clipPath>
  </defs>
  <g class="cls-14">
    <g id="Refer_and_earn" data-name="Refer and earn">
      <g>
        <path class="cls-11" d="M239.45,100.06c-.06,0-.11-.03-.13-.09-.03-.07,0-.15.08-.18.05-.02,4.64-1.8,8.97-6.47,3.99-4.3,8.58-12.02,7.73-24.31,0-.05-.4-4.83-3.27-10.1-2.65-4.86-8.01-11.15-18.51-13.49-.07-.02-.12-.09-.1-.16.02-.07.09-.12.16-.1,10.61,2.37,16.02,8.72,18.7,13.64,2.9,5.32,3.3,10.16,3.3,10.2.85,12.4-3.78,20.18-7.81,24.52-4.37,4.71-9.01,6.51-9.06,6.53-.02,0-.03,0-.05,0Z"/>
        <path class="cls-20" d="M77.84,358.18s-61.94-78.75,5.76-165.83c4.29-5.52,6.94-12.48,7.23-19.79.36-8.83,3.61-19.74,18.1-16.95,4.07.79,7.9,2.7,11.3,5.33,7.12,5.51,25.67,16.62,51.76,8.49,6-1.87,11.23-6.01,14.96-11.59,12.83-19.18,50.52-65.38,91.75-20.38,8.78,9.58,15.47,21.28,20.09,33.99,6.38,17.57,22.94,52.27,57.73,67.13.68.29,1.37.54,2.06.78,9.21,3.12,82.5,31.04,49.84,118.67l-330.58.16Z"/>
        <path class="cls-20" d="M167.94,188.04c5.83-.84,11.49-2.7,16.61-5.61,6.31-3.58,13.23-9.43,16.54-18.69,1.04-2.91,2.17-5.77,3.57-8.53,5.59-10.97,19.54-33.63,40.71-36.69-27.05-2.3-49.18,25.52-58.42,39.32-3.73,5.58-8.96,9.72-14.96,11.59-26.1,8.12-44.64-2.99-51.76-8.49-3.4-2.63-7.23-4.54-11.3-5.33-14.49-2.8-17.74,8.12-18.1,16.95-.3,7.31-2.94,14.27-7.23,19.79-67.69,87.08-5.76,165.83-5.76,165.83h14.06c-.31-.57-82.14-147.45,76.04-170.14Z"/>
        <path class="cls-11" d="M70.16,324.2c-.06,0-.11-.03-.13-.09-.05-.13-4.72-12.67-6.93-29.62-2.04-15.64-2.34-38.34,7.81-57.64,9.47-18,26.32-30.1,50.08-35.98.07-.02.15.03.17.1.02.07-.03.15-.1.17-23.68,5.86-40.47,17.92-49.9,35.84-10.12,19.23-9.82,41.87-7.79,57.47,2.2,16.91,6.86,29.44,6.91,29.56.03.07,0,.15-.08.18-.02,0-.03,0-.05,0Z"/>
        <path class="cls-11" d="M416.75,286.25c-.05,0-.1-.03-.13-.08-.13-.31-13.13-31.27-32.93-43.07-.06-.04-.09-.12-.05-.19.04-.07.12-.09.19-.05,19.88,11.85,32.91,42.89,33.04,43.2.03.07,0,.15-.07.18-.02,0-.04.01-.05.01Z"/>
        <path class="cls-20" d="M130.81,358.16h0l277.61-.13c9.74-26.12,10.05-46.93,5.46-63.37-195.02-92.26-283.08,63.5-283.08,63.5Z"/>
        <g>
          <g>
            <circle class="cls-21" cx="225.82" cy="73.59" r="26.32"/>
            <g>
              <circle class="cls-2" cx="225.82" cy="73.59" r="23.91"/>
              <path class="cls-2" d="M230.67,97.45c-13.15,2.67-26.03-5.85-28.71-19-2.67-13.15,5.85-26.03,19-28.71,13.15-2.67,26.03,5.85,28.71,19,2.67,13.15-5.85,26.03-19,28.71ZM221.14,50.59c-12.68,2.58-20.9,14.99-18.32,27.68,2.58,12.68,14.99,20.9,27.68,18.32,12.68-2.58,20.9-14.99,18.32-27.68-2.58-12.68-14.99-20.9-27.68-18.32Z"/>
            </g>
            <path class="cls-24" d="M227.88,90.98l-.86-4.21c-2.43.45-5.08.21-6.75-.54l.43-3c1.7.69,4.03,1.05,6.36.57,2.96-.6,4.61-2.72,4.13-5.09-.47-2.29-2.38-3.38-5.72-4-4.59-.8-7.6-2.19-8.34-5.81-.7-3.46,1.22-6.58,4.93-7.99l-.86-4.21,2.58-.53.82,4.04c2.52-.43,4.36-.11,5.71.36l-.48,2.96c-.98-.32-2.87-.89-5.54-.35-3.21.65-4.03,2.81-3.69,4.48.44,2.17,2.2,2.94,6.13,3.7,4.65.88,7.25,2.6,8.01,6.31.67,3.29-1,6.84-5.14,8.42l.88,4.33-2.62.53Z"/>
          </g>
          <g>
            <path class="cls-11" d="M264.8,302.5c.05-.28.08-.56.1-.85l.74-6.26-2.69,4.05-.06,1.94c-.55.55-1.15,1.07-1.85,1.49l-64.19,38.78c-7.34,4.43-16.83,2.67-22.09-4.1L58.81,188.11c-.21-.27-.4-.55-.58-.84l.29-.88-1.66-5.32-.7,6.1v.03c-.32,2.44.26,5.01,1.91,7.15l115.96,149.43c5.26,6.77,14.75,8.54,22.09,4.1l64.19-38.78c2.51-1.51,4.04-3.97,4.49-6.61h0s0,0,0,0Z"/>
            <path class="cls-1" d="M196.85,341.65l64.19-38.78c4.99-3.02,6.16-9.76,2.46-14.28l-117.56-143.67c-5.34-6.53-14.55-8.36-21.98-4.38l-62.11,33.24c-5.23,2.8-6.69,9.64-3.05,14.33l115.96,149.43c5.26,6.77,14.75,8.54,22.09,4.1Z"/>
            <path class="cls-8" d="M195.11,336.65l61-36.85c4.75-2.87,5.85-9.28,2.34-13.57l-111.72-136.54c-5.07-6.2-13.83-7.95-20.89-4.17l-59.02,31.59c-4.97,2.66-6.36,9.16-2.9,13.62l110.2,142.02c4.99,6.44,14.02,8.11,20.99,3.9Z"/>
            <path class="cls-4" d="M67.16,194.91l-3.24-4.18c-3.46-4.46-2.08-10.96,2.9-13.62l59.02-31.59c7.06-3.78,15.82-2.04,20.89,4.17l85.3,104.25c-108.96-111.86-164.87-59.02-164.87-59.02Z"/>
            <g class="cls-13">
              <g>
                <path class="cls-26" d="M208.49,84.65s-38.53,41.97-60.65,54.75c-4.77,2.76-10.65,2.74-15.43,0-9.7-5.58-28.57-20.3-55.61-58.71l-4.43,3.48,35.92,55.96c6.12,8.64,10.2,17.35,9.66,27.92-1.86,36.08-4.74,124.73,7.61,184.48h9.19s10.78-53.41,11.17-113.72c0,0,7.08,15.12,20.87,30.44,0,0-21.32,38.07-21.32,60.54l4.09,3.34s30.89-20.68,41.86-66.88c0,0-5.03-25.13-23.29-54.42-2.45-3.94-4.11-8.32-4.74-12.92-.93-6.75-1.75-17.77-.62-32.7.68-9.07,4.02-17.74,9.55-24.96l40.04-52.34-3.85-4.26Z"/>
                <path class="cls-26" d="M149.55,333.13l6.4,11.8c.91,1.68-1.14,3.4-2.64,2.21l-9.95-7.94c-2.2-1.76-2.37-5.05-.35-7.02l2.45-2.38,4.09,3.34Z"/>
                <path class="cls-26" d="M134.74,352.53l2.8,4.92c.74,1.31-.2,2.93-1.7,2.93h-9.92c-1.3,0-2.24-1.25-1.89-2.5l1.52-5.35h9.19Z"/>
                <path class="cls-1" d="M163.38,198.91c.63,4.59,2.29,8.98,4.74,12.92,18.26,29.29,23.29,54.42,23.29,54.42-10.98,46.2-41.86,66.88-41.86,66.88l-4.09-3.34c0-22.46,21.32-60.54,21.32-60.54-13.78-15.32-20.87-30.44-20.87-30.44-.38,60.31-11.17,113.72-11.17,113.72h-9.19c-10.9-52.73-9.93-127.95-8.28-169.7l44.94-1.7c.04,7.56.58,13.52,1.16,17.78Z"/>
                <path class="cls-11" d="M116.93,192.59c15.17,0,30.34,0,45.5,0,.66,3.87,1.33,7.73,1.99,11.6.08.45.15.92-.03,1.34-.16.36-.5.61-.82.84-6.11,4.35-13.32,6.98-20.77,7.76-3.7.39-7.44.32-11.13-.14-2.55-.32-5.31-2.44-7.95-1.72-3.36.92-3.68,5.08-3.2,7.97,1.5,9,4.34,17.7,6.1,26.65,3.65,18.51-.12,36.81-1.38,55.34-.89,13.1,1.56,26.06,2.14,39.12.16,3.65.49,7.54-.12,11.17h-1.7c-7.3-35.32-8.84-71.89-9.23-107.86-.19-17.36.26-34.71.55-52.07h.05Z"/>
                <path class="cls-11" d="M119.43,111.73c-1.91-.65-3.29-2.52-3.29-4.74,0-2.76,2.13-5.01,4.77-5.01s4.77,2.24,4.77,5.01c0,.3-.04.6-.09.89,1.64-.57,3.39-.89,5.22-.89,9.2,0,16.66,7.83,16.66,17.49s-7.46,17.49-16.66,17.49-16.66-7.83-16.66-17.49c0-5.04,2.04-9.56,5.28-12.75Z"/>
                <path class="cls-26" d="M76.8,80.67l-4.77-6.65c-.66-.91-2.09-.26-1.84.83l2.18,9.3,4.43-3.48Z"/>
                <path class="cls-26" d="M208.49,84.65l4.57-5.64c.89-1.09,2.63-.14,2.18,1.2l-2.9,8.7-3.85-4.26Z"/>
                <path class="cls-10" d="M132.41,139.39c4.78,2.75,10.66,2.76,15.43,0,5.93-3.43,13.05-8.96,20.28-15.22l9.38,10.89c1.19,1.39.72,3.53-.96,4.28l-.59.38c-2.67,1.7-4.92,3.98-6.59,6.67-3.72,5.99-6.05,12.49-6.6,19.7-1.15,15.02,1.85,19.35,2.78,26.12.18,1.29.69,4.19,1.3,7.18.48,2.34-5.61,6.17-11.6,9.33-7.05,3.71-15.31,4.46-22.9,2.01-9.44-3.05-20.98-7.88-20.04-13.05,2.11-11.7,5.28-22.44,5.65-29.65.47-9.13-2.86-16.02-7.73-23.3-1.5-2.24-3.23-4.31-5.12-6.23l-1.91-1.93c-2.19-1.52-2.84-4.47-1.49-6.77l6.26-10.66c10.86,11.21,19.07,17.13,24.45,20.22Z"/>
                <path class="cls-11" d="M173.85,264.8c4.05,4.46-1.39,10.49-4.92,13.68-2.52,2.28-4.7,4.94-6.67,7.73-3.89,5.52-6.78,11.65-8.67,18.13-2.06,7.04-4.63,13.84-6,21.09-.18.93-.33,1.86-.47,2.8-.05.33-.55,2.46-.33,2.64l-1.32-1.08c0-22.46,21.32-60.54,21.32-60.54-13.78-15.32-20.87-30.44-20.87-30.44v-5.04c0,.6.74,1.6,1,2.11,2.89,5.74,6.51,11.14,10.85,15.88,2.19,2.4,4.57,4.63,7.12,6.64,2.62,2.07,5.66,3.55,8.21,5.67.29.24.54.48.77.73Z"/>
                <path class="cls-23" d="M112.3,197.69c2.11-11.7,5.28-22.44,5.65-29.65.47-9.13-2.86-16.02-7.73-23.3-1.5-2.24-3.23-4.31-5.12-6.23l-1.91-1.93c-2.19-1.52-2.84-4.47-1.49-6.77l1.71-2.91c.69,0,2.45,2.22,2.9,2.65,2.47,2.41,4.78,5,6.93,7.7,6.65,8.36,11.85,17.99,14.54,28.36.78,3.01,1.38,6.37,1.37,9.47,0,3.41.06,6.84.65,10.21.64,3.63,1.96,7.37,4.45,10.21,2.85,3.24,7.16,5.11,11.23,6.28,6.16,1.77,12.7,1.9,19.03,1.16h0c-2.24,1.87-5.76,3.94-9.26,5.79-7.05,3.71-15.31,4.46-22.9,2.01-9.44-3.05-20.98-7.88-20.04-13.05Z"/>
                <path class="cls-26" d="M136.27,141.01s-.02-.04-.03-.06h.01s.05,0,.08.02c7.55-4.95,10.1-18.82,10.1-18.82l7.18,6.6-2.18,4.54c-.85,1.76-2.53,2.97-4.47,3.22l-2.14.27c-.94.12-1.64.92-1.64,1.86h0c0,1.31,1.31,2.24,2.53,1.77.09-.04.19-.07.28-.11l.03.03s-1.55,1.55-1.2,4.54c.1.85.16,2.25.09,3.1-.1,1.18-.13,2.32-.71,4.25-.59,1.98-3.58,2.08-4.71.35-.88-1.36-3.5-11.38-3.21-11.57Z"/>
              </g>
              <g>
                <circle class="cls-21" cx="83.52" cy="207.81" r="19.85"/>
                <g>
                  <circle class="cls-2" cx="83.52" cy="207.81" r="18.03" transform="translate(-55.42 32.15) rotate(-16.45)"/>
                  <path class="cls-2" d="M74.61,223.86c-8.85-4.91-12.06-16.11-7.15-24.96,4.91-8.85,16.11-12.06,24.96-7.15,8.85,4.91,12.06,16.11,7.15,24.96-4.91,8.85-16.11,12.06-24.96,7.15ZM92.1,192.33c-8.53-4.73-19.33-1.64-24.06,6.89-4.73,8.53-1.64,19.33,6.89,24.06,8.53,4.73,19.33,1.64,24.06-6.89,4.73-8.53,1.64-19.33-6.89-24.06Z"/>
                </g>
                <path class="cls-24" d="M76.18,218.79l1.57-2.83c-1.61-.93-3.01-2.37-3.61-3.61l1.72-1.51c.64,1.23,1.8,2.58,3.37,3.45,1.99,1.1,3.97.7,4.86-.9.86-1.54.29-3.1-1.32-5.09-2.24-2.71-3.29-4.98-1.94-7.42,1.29-2.33,3.93-3.18,6.74-2.17l1.57-2.83,1.74.96-1.51,2.72c1.65.99,2.55,2.08,3.1,3l-1.73,1.46c-.4-.66-1.21-1.92-3-2.91-2.16-1.2-3.69-.36-4.31.76-.81,1.46-.18,2.76,1.7,5.13,2.23,2.78,2.88,5.05,1.5,7.54-1.23,2.22-3.92,3.43-7.07,2.31l-1.62,2.92-1.77-.98Z"/>
              </g>
            </g>
            <path class="cls-11" d="M119.43,111.73c-1.91-.65-3.29-2.52-3.29-4.74,0-2.76,2.13-5.01,4.77-5.01s4.77,2.24,4.77,5.01c0,.3-.04.6-.09.89,1.64-.57,3.39-.89,5.22-.89,9.2,0,16.66,7.83,16.66,17.49s-7.46,17.49-16.66,17.49-16.66-7.83-16.66-17.49c0-5.04,2.04-9.56,5.28-12.75Z"/>
            <path class="cls-26" d="M76.8,80.67l-4.77-6.65c-.66-.91-2.09-.26-1.84.83l2.18,9.3,4.43-3.48Z"/>
            <path class="cls-26" d="M136.27,141.01s-.02-.04-.03-.06h.01s.05,0,.08.02c7.55-4.95,10.1-18.82,10.1-18.82l7.18,6.6-2.18,4.54c-.85,1.76-2.53,2.97-4.47,3.22l-2.14.27c-.94.12-1.64.92-1.64,1.86h0c0,1.31,1.31,2.24,2.53,1.77.09-.04.19-.07.28-.11l.03.03s-1.55,1.55-1.2,4.54c.1.85.16,2.25.09,3.1-.1,1.18-.13,2.32-.71,4.25-.59,1.98-3.58,2.08-4.71.35-.88-1.36-3.5-11.38-3.21-11.57Z"/>
            <path class="cls-26" d="M117.95,168.04c-.29,5.55-.6,12.36-.87,20.1h45.33c-.3-5.96-.3-13.28.35-21.94.68-9.07,4.02-17.74,9.55-24.96l40.04-52.34-3.85-4.26s-38.53,41.97-60.65,54.75c-4.77,2.76-10.65,2.74-15.43,0-9.7-5.58-28.57-20.3-55.61-58.71l-4.43,3.48,35.92,55.96c6.12,8.64,10.2,17.35,9.66,27.92Z"/>
            <path class="cls-18" d="M132.41,139.39c4.78,2.75,10.66,2.76,15.43,0,5.93-3.43,13.05-8.96,20.28-15.22l9.38,10.89c1.19,1.39.72,3.53-.96,4.28l-.59.38c-2.67,1.7-4.92,3.98-6.59,6.67-3.72,5.99-6.05,12.49-6.6,19.7-1.15,15.02,1.85,19.35,2.78,26.12.18,1.29.69,4.19,1.3,7.18.48,2.34-5.61,6.17-11.6,9.33-7.05,3.71-15.31,4.46-22.9,2.01-9.44-3.05-20.98-7.88-20.04-13.05,2.11-11.7,5.28-22.44,5.65-29.65.47-9.13-2.86-16.02-7.73-23.3-1.5-2.24-3.23-4.31-5.12-6.23l-1.91-1.93c-2.19-1.52-2.84-4.47-1.49-6.77l6.26-10.66c10.86,11.21,19.07,17.13,24.45,20.22Z"/>
            <path class="cls-15" d="M112.3,197.69c2.11-11.7,5.28-22.44,5.65-29.65.47-9.13-2.86-16.02-7.73-23.3-1.5-2.24-3.23-4.31-5.12-6.23l-1.91-1.93c-2.19-1.52-2.84-4.47-1.49-6.77l1.71-2.91c.69,0,2.45,2.22,2.9,2.65,2.47,2.41,4.78,5,6.93,7.7,6.65,8.36,11.85,17.99,14.54,28.36.78,3.01,1.38,6.37,1.37,9.47,0,3.41.06,6.84.65,10.21.64,3.63,1.96,7.37,4.45,10.21,2.85,3.24,7.16,5.11,11.23,6.28,6.16,1.77,12.7,1.9,19.03,1.16h0c-2.24,1.87-5.76,3.94-9.26,5.79-7.05,3.71-15.31,4.46-22.9,2.01-9.44-3.05-20.98-7.88-20.04-13.05Z"/>
          </g>
          <g class="cls-5">
            <circle class="cls-16" cx="237.6" cy="249.01" r="35.17" transform="translate(-51.74 435.4) rotate(-79.13)"/>
          </g>
          <g class="cls-6">
            <path class="cls-16" d="M213.78,305.76l-9.61,5.51c-3.79,2.17-4.57,7.3-1.61,10.5l9.74,10.54.29,5.63,22.84-13.8-1.01-7.56-19.1-12.98-1.53,2.15Z"/>
          </g>
          <g>
            <circle class="cls-21" cx="237.6" cy="242.98" r="35.17"/>
            <g>
              <circle class="cls-2" cx="237.6" cy="242.98" r="31.94"/>
              <path class="cls-2" d="M244.08,274.85c-17.57,3.57-34.78-7.82-38.35-25.39-3.57-17.57,7.82-34.78,25.39-38.35,17.57-3.57,34.78,7.82,38.35,25.39,3.57,17.57-7.82,34.78-25.39,38.35ZM231.35,212.25c-16.94,3.45-27.92,20.03-24.48,36.98,3.45,16.94,20.03,27.92,36.98,24.48,16.94-3.45,27.92-20.03,24.48-36.98-3.45-16.94-20.03-27.93-36.98-24.48Z"/>
            </g>
            <path class="cls-24" d="M240.35,266.22l-1.14-5.62c-3.24.6-6.78.28-9.02-.72l.58-4c2.28.93,5.39,1.4,8.5.76,3.95-.8,6.16-3.63,5.51-6.8-.62-3.06-3.18-4.51-7.64-5.34-6.13-1.07-10.16-2.92-11.14-7.76-.94-4.62,1.63-8.79,6.58-10.67l-1.14-5.62,3.45-.7,1.1,5.4c3.36-.57,5.83-.14,7.63.48l-.64,3.96c-1.3-.43-3.84-1.19-7.4-.47-4.29.87-5.38,3.76-4.93,5.99.59,2.89,2.94,3.92,8.19,4.94,6.21,1.17,9.69,3.48,10.7,8.43.89,4.4-1.33,9.14-6.87,11.25l1.18,5.79-3.51.71Z"/>
          </g>
          <g>
            <path class="cls-22" d="M190,201.01l1.57-.25c1.91-.3,3.2-2.1,2.9-4l-.98-6.1h0c2.46-.39,4.78,1.28,5.17,3.75l.62,3.9c.1.65.72,1.1,1.37,1l5.47-.87c1.1-.18,2.13.57,2.3,1.67l.5,3.1c.78,4.89-2.55,9.49-7.44,10.27l-9.27,1.48-2.23-13.94Z"/>
            <rect class="cls-11" x="186.24" y="201.31" width="4.91" height="14.12" transform="translate(-30.52 32.39) rotate(-9.08)"/>
          </g>
          <g>
            <path class="cls-11" d="M208.43,296.71c0-.29.01-.59.04-.88l.28-6.47,2.07,4.56-.26,1.98c.46.65.99,1.27,1.63,1.81l58.71,49.89c6.71,5.7,16.63,5.48,23.07-.53l142.19-132.45c.26-.24.5-.5.73-.76l-.15-.94,2.55-5.12-.29,6.31-.02.03c-.06,2.53-1.07,5.04-3.1,6.94l-142.19,132.45c-6.44,6-16.36,6.23-23.07.53l-58.71-49.89c-2.29-1.95-3.45-4.69-3.46-7.44h0s0,0,0,0Z"/>
            <path class="cls-1" d="M270.89,347.6l-58.71-49.89c-4.57-3.88-4.64-10.91-.15-14.88l142.86-126.34c6.49-5.74,16.13-6.08,23.01-.83l57.51,43.94c4.85,3.7,5.2,10.88.73,15.03l-142.19,132.45c-6.44,6-16.36,6.23-23.07.53Z"/>
            <path class="cls-8" d="M273.48,342.82l-55.8-47.41c-4.34-3.69-4.41-10.37-.14-14.14l135.77-120.07c6.17-5.45,15.33-5.78,21.87-.78l54.65,41.76c4.61,3.52,4.94,10.34.7,14.29l-135.13,125.88c-6.12,5.71-15.55,5.92-21.93.5Z"/>
            <path class="cls-4" d="M426.56,220.14l3.98-3.7c4.24-3.95,3.91-10.77-.7-14.29l-54.65-41.76c-6.54-5-15.7-4.67-21.87.78l-103.66,91.68c128.9-95.5,176.91-32.72,176.91-32.72Z"/>
            <g class="cls-19">
              <g>
                <path class="cls-1" d="M364.27,233.65c-29.13,10.97-52.1,4.23-58.29,1.99-1.6,4.58-3.72,8.99-6.34,13.11-8.88,13.94-18.18,22.16-31.2,44.48,0,0,8.51,26.56,34.9,48.02,0,0-11.7,51.13-19.4,80.08l12.41,1.73s24.68-57.36,30.23-73.44l18.08,11.64,6.26-9.06-16.01-17.78s22.56-49.35,28.84-95.38c.24-1.79.42-3.58.53-5.38ZM312.44,308.5l-5.7-10.8,11.53-15.84-5.82,26.64Z"/>
                <path class="cls-11" d="M363.75,239.03c.24-1.79.42-3.58.53-5.38-24.09,9.07-43.96,6.03-53.62,3.44l-1.48,1.49s14.72,5.32,38.88,2.88c5.92-.6,10.96,4.2,10.65,10.14-.3,5.77-1.28,14.36-3.61,27.09,3.62-12.65,6.83-26.29,8.65-39.67Z"/>
                <path class="cls-11" d="M318.38,127.72s-4.51-10.99,5.45-9.91c0,0,8.24-7.3,11.27,2.72,0,0,9.74-.25,6.72,10.47,0,0,7.03,7.08-1.45,11.96l-11.6,3.97-1.34-4.21-9.05-15Z"/>
                <path class="cls-17" d="M373.57,144.23c11.39-8.44,31.46-22.2,63.13-40.54l-.28-7.33s-80.07,40.2-106.9,48.69c-2.94.93-6.07,1.04-9.07.32-7.94-1.92-35.69-15.7-39.97-20.09-6.57-6.73-18.96-22.4-30.29-38.83l-5.96,1.55s9.59,21.96,26.71,45.14c3.64,4.93,18.19,14.98,26.49,20.84,5.76,4.07,8.37,9.55,9.64,15.77,2.08,10.16,1.41,28.11-.64,51.38-.29,3.28-1.85,7.22-2.22,10.76-.32,3.06,1.65,5.9,4.65,6.62,9.3,2.26,30.32,4.58,55.41-4.86,2.75-1.3,2.48-3.97,2.47-5.69-.03-11.41-2.59-39.26-4.04-60.1-.64-9.22,3.44-18.13,10.86-23.63Z"/>
                <path class="cls-26" d="M329.61,140.21c1.37-.95,2.19-3.23,2.19-3.23.85-5.18-4.53-1.96-4.53-1.96-4.72-.97-5.88-9.28-5.88-9.28l-7.79,5.09,1.81,6.92c.52,1.97,2.09,3.48,4.08,3.9l4.32.93c.76.16,1.29.85,1.24,1.63h0c-.05.89-.82,1.56-1.7,1.49l-2.13-.17s1.66,3.08,3.13,6.24c.83,1.78,3.41,1.58,3.96-.3.86-2.98,1.82-6.05,2.3-6.78,0,0-.16-.01-.28-.02h-.02c-1.23-.03-2.14-1.06-2.02-2.28h0c.08-.89.57-1.68,1.31-2.19Z"/>
                <polygon class="cls-11" points="320.46 270.29 318.26 281.86 306.73 297.7 312.44 308.5 303.34 341.24 308.46 311.88 300.7 295.74 320.46 270.29"/>
                <polygon class="cls-11" points="334.91 334.41 326.58 349.6 328.89 351.09 335.35 334.9 334.91 334.41"/>
                <path class="cls-25" d="M356.93,175.14c2.33,23.31-.05,43.26-.05,43.26-2.98,17.55-30.62,21.88-31.9,22.08,10.5.27,24.15-1.13,39.3-6.83,2.75-1.3,2.48-3.97,2.47-5.69-.03-11.41-2.59-39.26-4.04-60.1-.64-9.22,3.44-18.13,10.86-23.63.43-.32.9-.66,1.36-1h0c-3.26,1.14-6.09,3.09-8.51,5.39-7.15,6.79-10.47,16.71-9.49,26.52Z"/>
                <path class="cls-26" d="M344.66,361.25l11.05,7.53c1.94,1.32,4.32-.9,3.15-2.93l-7.93-13.65-6.26,9.06Z"/>
                <path class="cls-26" d="M250.2,86.45l-3.64-9.35c-.58-1.48-2.78-1.02-2.72.57l.4,10.34,5.96-1.55Z"/>
                <path class="cls-26" d="M436.42,96.36l5.42-2.42c1.44-.64,2.74,1.15,1.67,2.31l-6.8,7.44-.28-7.33Z"/>
              </g>
              <g>
                <rect class="cls-20" x="226.81" y="286.2" width="34.84" height="34.84" rx="6.56" ry="6.56" transform="translate(-66.57 68.59) rotate(-14.09)"/>
                <path class="cls-24" d="M250.74,295.12c-4.13-2.79-8.11,2.11-8.11,2.11,0,0-5.82-2.44-8.14,1.97-.83,1.58-.78,3.48-.05,5.11,1.22,2.75,5.45,7.03,11.82,7.35,6.01-4.2,7.17-9.05,6.95-12.06-.13-1.78-.98-3.48-2.46-4.48Z"/>
              </g>
            </g>
            <polygon class="cls-11" points="320.46 270.29 318.26 281.86 306.73 297.7 312.44 308.5 303.34 341.24 308.46 311.88 300.7 295.74 320.46 270.29"/>
            <g>
              <path class="cls-11" d="M318.38,127.72s-4.51-10.99,5.45-9.91c0,0,8.24-7.3,11.27,2.72,0,0,9.74-.25,6.72,10.47,0,0,7.03,7.08-1.45,11.96l-11.6,3.97-1.34-4.21-9.05-15Z"/>
              <path class="cls-17" d="M373.57,144.23c11.39-8.44,31.46-22.2,63.13-40.54l-.28-7.33s-80.07,40.2-106.9,48.69c-2.94.93-6.07,1.04-9.07.32-7.94-1.92-35.69-15.7-39.97-20.09-6.57-6.73-18.96-22.4-30.29-38.83l-5.96,1.55s9.59,21.96,26.71,45.14c3.64,4.93,18.19,14.98,26.49,20.84,5.76,4.07,8.37,9.55,9.64,15.77,2.08,10.16,1.41,28.11-.64,51.38-.29,3.28-1.85,7.22-2.22,10.76-.32,3.06,1.65,5.9,4.65,6.62,9.3,2.26,30.32,4.58,55.41-4.86,2.75-1.3,2.48-3.97,2.47-5.69-.03-11.41-2.59-39.26-4.04-60.1-.64-9.22,3.44-18.13,10.86-23.63Z"/>
              <path class="cls-26" d="M329.61,140.21c1.37-.95,2.19-3.23,2.19-3.23.85-5.18-4.53-1.96-4.53-1.96-4.72-.97-5.88-9.28-5.88-9.28l-7.79,5.09,1.81,6.92c.52,1.97,2.09,3.48,4.08,3.9l4.32.93c.76.16,1.29.85,1.24,1.63h0c-.05.89-.82,1.56-1.7,1.49l-2.13-.17s1.66,3.08,3.13,6.24c.83,1.78,3.41,1.58,3.96-.3.86-2.98,1.82-6.05,2.3-6.78,0,0-.16-.01-.28-.02h-.02c-1.23-.03-2.14-1.06-2.02-2.28h0c.08-.89.57-1.68,1.31-2.19Z"/>
              <path class="cls-25" d="M356.93,175.14c2.33,23.31-.05,43.26-.05,43.26-2.98,17.55-30.62,21.88-31.9,22.08,10.5.27,24.15-1.13,39.3-6.83,2.75-1.3,2.48-3.97,2.47-5.69-.03-11.41-2.59-39.26-4.04-60.1-.64-9.22,3.44-18.13,10.86-23.63.43-.32.9-.66,1.36-1h0c-3.26,1.14-6.09,3.09-8.51,5.39-7.15,6.79-10.47,16.71-9.49,26.52Z"/>
              <path class="cls-26" d="M250.2,86.45l-3.64-9.35c-.58-1.48-2.78-1.02-2.72.57l.4,10.34,5.96-1.55Z"/>
              <path class="cls-26" d="M436.42,96.36l5.42-2.42c1.44-.64,2.74,1.15,1.67,2.31l-6.8,7.44-.28-7.33Z"/>
            </g>
          </g>
          <path class="cls-26" d="M208.49,84.65l4.57-5.64c.89-1.09,2.63-.14,2.18,1.2l-2.9,8.7-3.85-4.26Z"/>
          <g>
            <path class="cls-24" d="M389.89,220.84h.27c1.67-.01,3.02,1.33,3.03,3h0c.01,2.52,2.93,3.92,4.9,2.34l5.95-4.76c.53-.42,1.19-.66,1.87-.66l34.5-.19c1.67,0,3.01-1.37,3-3.03l-.15-27.68c0-1.67-1.37-3.01-3.03-3l-50.53.28c-1.67,0-3.01,1.37-3,3.03l.15,27.68c0,1.67,1.37,3.01,3.03,3Z"/>
            <g>
              <path class="cls-20" d="M430.5,197.12c.24-.08.42-.32.42-.59,0-.34-.28-.61-.62-.61l-30.02.26c-.34,0-.61.28-.61.62,0,.34.28.61.62.61l30.02-.26c.07,0,.13-.01.19-.03Z"/>
              <path class="cls-20" d="M430.7,202.87c.24-.08.42-.32.42-.59,0-.34-.28-.61-.62-.61l-30.02.26c-.34,0-.61.28-.61.62,0,.34.28.61.62.61l30.02-.26c.07,0,.13-.01.19-.03Z"/>
              <path class="cls-20" d="M430.9,208.62c.24-.08.42-.32.42-.59,0-.34-.28-.61-.62-.61l-30.02.26c-.34,0-.61.28-.61.62,0,.34.28.61.62.61l30.02-.26c.07,0,.13-.01.19-.03Z"/>
            </g>
          </g>
          <g>
            <path class="cls-24" d="M249.87,152.26h5.68v19.15h-5.68c-3.6,0-6.53-2.92-6.53-6.53v-6.1c0-3.6,2.92-6.53,6.53-6.53Z" transform="translate(373.23 432.19) rotate(-147.58)"/>
            <path class="cls-24" d="M231.72,130.74l17.71,19.74-10.27,16.17-25.4-7.64c-1.26-.38-1.82-1.86-1.11-2.98l15.9-25.03c.71-1.11,2.29-1.25,3.17-.26Z"/>
            <path class="cls-3" d="M216.95,149.27h0s7.3-11.5,7.3-11.5h0c-.96-.61-2.22-.32-2.83.63l-5.1,8.04c-.61.96-.32,2.22.63,2.83Z"/>
            <path class="cls-12" d="M235.73,177.1h0c1.26.8,2.94.43,3.74-.83l4.27-6.71-4.57-2.9-4.27,6.71c-.8,1.26-.43,2.94.83,3.74Z"/>
            <path class="cls-3" d="M220.6,143.52l-3.65,5.75c-.96-.61-1.24-1.88-.63-2.83l2.55-4.02,1.73,1.1Z"/>
            <path class="cls-12" d="M220.6,143.52l-7.95,12.51c-.71,1.11-.16,2.6,1.11,2.98l25.4,7.64,5.13-8.08-23.69-15.05Z"/>
            <path class="cls-12" d="M244.29,158.57l-5.13,8.08,8.12,5.16c1.2.77,2.8.41,3.57-.8l3.75-5.9-10.3-6.54Z"/>
          </g>
          <g>
            <rect class="cls-24" x="275.26" y="182.44" width="20.75" height="20.75" transform="translate(-47.21 103.49) rotate(-19)"/>
            <rect class="cls-24" x="272.28" y="182.88" width="21.45" height="4.66" transform="translate(-44.88 102.22) rotate(-19)"/>
            <rect class="cls-9" x="284.3" y="182.44" width="2.65" height="20.75" transform="translate(-47.21 103.49) rotate(-19)"/>
            <rect class="cls-9" x="284.3" y="182.44" width="2.65" height="20.75" transform="translate(374.96 -140.03) rotate(71)"/>
            <path class="cls-9" d="M285.76,175.97c-1.19-.44-2.91-.02-3.75,1.62-.41.79-.59,1.54-.65,2.25-.36-.44-.77-.77-1.23-.98-1.36-.62-2.57,0-3.17.89-.73,1.08-.57,2.45.37,3.34.99.93,2.54.92,3.67.75-.44.71-.95,1.83-1.3,3.48l.74-.34.55.58s.39-2.22,1.3-3.51c1.41,1,3.71,3.21,3.71,3.21l.08-.8.79-.19c-1.65-1.39-2.84-2.45-3.52-3.06,1.28-.65,3.58-2.02,3.98-3.73.47-2-.55-3.14-1.57-3.51ZM277.99,182.39c-.7-.66-1-1.75-.68-2.37.17-.34.57-.62,1.1-.75.34-.08.94,0,1.38.19.86.39,1.45,1.66,1.86,3.26-.99.26-2.78.5-3.66-.34ZM286.55,179.28c-.55,1.23-2.64,2.59-3.9,3.2-.38-1.44-.62-2.85.21-4.46.31-.6.83-1.1,1.3-1.33.82-.4,1.29-.35,1.68-.21.88.32,1.34,1.41.71,2.8Z"/>
          </g>
        </g>
        <path class="cls-11" d="M300.7,355.95s-.07-.01-.1-.04c-.05-.06-.05-.14,0-.19l62.27-56.19c.06-.05.14-.05.19,0s.05.14,0,.19l-62.27,56.19s-.06.04-.09.04Z"/>
        <path class="cls-11" d="M365.89,166.82c-.07,0-.13-.06-.14-.13,0-.16-.18-15.75,15.95-23.28l30.74-13.59c.07-.03.15,0,.18.07.03.07,0,.15-.07.18l-30.74,13.59c-15.97,7.45-15.79,22.87-15.79,23.02,0,.08-.06.14-.13.14h0Z"/>
        <path class="cls-11" d="M91.49,93.05s-.08-.02-.11-.05l-14.7-19.32c-.05-.06-.03-.15.03-.19.06-.05.15-.03.19.03l14.7,19.32c.05.06.03.15-.03.19-.02.02-.05.03-.08.03Z"/>
        <path class="cls-11" d="M271.2,223.49c-.06,0-.11-.04-.13-.09-.02-.05-1.69-4.89-6.34-9.76-4.29-4.49-12.06-9.94-24.73-10.34-.08,0-.13-.07-.13-.14,0-.07.06-.13.14-.13h0c12.77.41,20.61,5.9,24.93,10.44,4.69,4.92,6.38,9.8,6.39,9.85.02.07-.01.15-.09.17-.01,0-.03,0-.04,0Z"/>
      </g>
    </g>
  </g>
</svg>