<?xml version="1.0" encoding="UTF-8"?>
<svg xmlns="http://www.w3.org/2000/svg" width="100" height="100" viewBox="0 0 100 100">
  <g id="Group_238" data-name="Group 238" transform="translate(-0.477)">
    <g id="Rectangle_165" data-name="Rectangle 165" transform="translate(0.477)" fill="#fff" stroke="#707070" strokeWidth="1" opacity="0">
      <rect width="100" height="100" stroke="none"></rect>
      <rect x="0.5" y="0.5" width="99" height="99" fill="none"></rect>
    </g>
    <g id="noun-apartment-5246704" transform="translate(8 12.413)">
      <path id="Path_76" data-name="Path 76" d="M277.2,56h27.548v1.968H277.2Z" transform="translate(-247.782 -56)" fill="#fcaa2e"></path>
      <path id="Path_77" data-name="Path 77" d="M450.8,448h1.968v4.919H450.8Z" transform="translate(-390.922 -379.318)" fill="#fcaa2e"></path>
      <path id="Path_78" data-name="Path 78" d="M450.8,375.2h1.968v4.919H450.8Z" transform="translate(-390.922 -319.254)" fill="#fcaa2e"></path>
      <path id="Path_79" data-name="Path 79" d="M501.2,302.4h1.967v4.919H501.2Z" transform="translate(-432.52 -259.214)" fill="#fcaa2e"></path>
      <path id="Path_80" data-name="Path 80" d="M450.8,302.4h1.968v4.919H450.8Z" transform="translate(-390.922 -259.214)" fill="#fcaa2e"></path>
      <path id="Path_81" data-name="Path 81" d="M260.4,78.4v75.569h4.919V137.282a.986.986,0,0,1,.984-.982h12.79a.986.986,0,0,1,.984.982v16.684h5.9V109.8a.986.986,0,0,1,.984-.982h6.887V78.4Zm10.823,51.033a.986.986,0,0,1-.984.982H266.3a.986.986,0,0,1-.984-.982v-6.87a.986.986,0,0,1,.984-.982h3.935a.986.986,0,0,1,.984.982Zm0-12.759a.986.986,0,0,1-.984.982H266.3a.986.986,0,0,1-.984-.982V109.8a.986.986,0,0,1,.984-.982h3.935a.986.986,0,0,1,.984.982Zm0-12.759a.986.986,0,0,1-.984.982H266.3a.986.986,0,0,1-.984-.982v-6.87a.986.986,0,0,1,.984-.982h3.935a.986.986,0,0,1,.984.982Zm0-12.759a.986.986,0,0,1-.984.982H266.3a.986.986,0,0,1-.984-.982v-6.87a.986.986,0,0,1,.984-.982h3.935a.986.986,0,0,1,.984.982Zm8.854,38.275a.986.986,0,0,1-.984.982h-3.935a.986.986,0,0,1-.984-.982v-6.87a.986.986,0,0,1,.984-.982h3.935a.986.986,0,0,1,.984.982Zm0-12.759a.986.986,0,0,1-.984.982h-3.935a.986.986,0,0,1-.984-.982V109.8a.986.986,0,0,1,.984-.982h3.935a.986.986,0,0,1,.984.982Zm0-12.759a.986.986,0,0,1-.984.982h-3.935a.986.986,0,0,1-.984-.982v-6.87a.986.986,0,0,1,.984-.982h3.935a.986.986,0,0,1,.984.982Zm0-12.759a.986.986,0,0,1-.984.982h-3.935a.986.986,0,0,1-.984-.982v-6.87a.986.986,0,0,1,.984-.982h3.935a.986.986,0,0,1,.984.982Zm8.855,12.759a.986.986,0,0,1-.984.982h-3.935a.986.986,0,0,1-.984-.982v-6.87a.986.986,0,0,1,.984-.982h3.935a.986.986,0,0,1,.984.982Zm0-12.759a.986.986,0,0,1-.984.982h-3.935a.986.986,0,0,1-.984-.982v-6.87a.986.986,0,0,1,.984-.982h3.935a.986.986,0,0,1,.984.982Z" transform="translate(-233.933 -74.462)" fill="#fcaa2e"></path>
      <path id="Path_82" data-name="Path 82" d="M350,336h1.967v4.919H350Z" transform="translate(-307.791 -286.925)" fill="#fcaa2e"></path>
      <path id="Path_83" data-name="Path 83" d="M299.6,336h1.968v4.919H299.6Z" transform="translate(-266.225 -286.925)" fill="#fcaa2e"></path>
      <path id="Path_84" data-name="Path 84" d="M350,263.2h1.967v4.919H350Z" transform="translate(-307.791 -226.884)" fill="#fcaa2e"></path>
      <path id="Path_85" data-name="Path 85" d="M299.6,263.2h1.968v4.919H299.6Z" transform="translate(-266.225 -226.884)" fill="#fcaa2e"></path>
      <path id="Path_86" data-name="Path 86" d="M299.6,190.4h1.968v4.919H299.6Z" transform="translate(-266.225 -166.844)" fill="#fcaa2e"></path>
      <path id="Path_87" data-name="Path 87" d="M350,190.4h1.967v4.919H350Z" transform="translate(-307.791 -166.844)" fill="#fcaa2e"></path>
      <path id="Path_88" data-name="Path 88" d="M400.4,190.4h1.968v4.919H400.4Z" transform="translate(-349.356 -166.844)" fill="#fcaa2e"></path>
      <path id="Path_89" data-name="Path 89" d="M400.4,117.6h1.968v4.919H400.4Z" transform="translate(-349.356 -106.778)" fill="#fcaa2e"></path>
      <path id="Path_90" data-name="Path 90" d="M350,117.6h1.967v4.919H350Z" transform="translate(-307.791 -106.778)" fill="#fcaa2e"></path>
      <path id="Path_91" data-name="Path 91" d="M299.6,117.6h1.968v4.919H299.6Z" transform="translate(-266.225 -106.778)" fill="#fcaa2e"></path>
      <path id="Path_92" data-name="Path 92" d="M299.6,420h10.823v15.742H299.6Z" transform="translate(-266.234 -356.237)" fill="#fcaa2e"></path>
      <path id="Path_93" data-name="Path 93" d="M131.6,196v55.1h20.661V196Zm8.854,50.176a.987.987,0,0,1-.984.984h-3.935a.987.987,0,0,1-.984-.984v-6.887a.987.987,0,0,1,.984-.984h3.935a.987.987,0,0,1,.984.984Zm0-12.79a.987.987,0,0,1-.984.984h-3.935a.987.987,0,0,1-.984-.984V226.5a.987.987,0,0,1,.984-.984h3.935a.987.987,0,0,1,.984.984Zm0-12.79a.987.987,0,0,1-.984.984h-3.935a.987.987,0,0,1-.984-.984v-6.887a.987.987,0,0,1,.984-.984h3.935a.987.987,0,0,1,.984.984Zm0-12.79a.987.987,0,0,1-.984.984h-3.935a.987.987,0,0,1-.984-.984v-6.887a.987.987,0,0,1,.984-.984h3.935a.987.987,0,0,1,.984.984Zm8.854,38.37a.987.987,0,0,1-.984.984h-3.935a.987.987,0,0,1-.984-.984v-6.887a.987.987,0,0,1,.984-.984h3.935a.987.987,0,0,1,.984.984Zm0-12.79a.987.987,0,0,1-.984.984h-3.935a.987.987,0,0,1-.984-.984V226.5a.987.987,0,0,1,.984-.984h3.935a.987.987,0,0,1,.984.984Zm0-12.79a.987.987,0,0,1-.984.984h-3.935a.987.987,0,0,1-.984-.984v-6.887a.987.987,0,0,1,.984-.984h3.935a.987.987,0,0,1,.984.984Zm0-12.79a.987.987,0,0,1-.984.984h-3.935a.987.987,0,0,1-.984-.984v-6.887a.987.987,0,0,1,.984-.984h3.935a.987.987,0,0,1,.984.984Z" transform="translate(-127.664 -171.591)" fill="#fcaa2e"></path>
      <path id="Path_94" data-name="Path 94" d="M159.6,448h1.968v4.919H159.6Z" transform="translate(-150.744 -379.318)" fill="#fcaa2e"></path>
      <path id="Path_95" data-name="Path 95" d="M210,448h1.968v4.919H210Z" transform="translate(-192.33 -379.318)" fill="#fcaa2e"></path>
      <path id="Path_96" data-name="Path 96" d="M210,375.2h1.968v4.919H210Z" transform="translate(-192.33 -319.254)" fill="#fcaa2e"></path>
      <path id="Path_97" data-name="Path 97" d="M159.6,375.2h1.968v4.919H159.6Z" transform="translate(-150.744 -319.254)" fill="#fcaa2e"></path>
      <path id="Path_98" data-name="Path 98" d="M159.6,302.4h1.968v4.919H159.6Z" transform="translate(-150.744 -259.214)" fill="#fcaa2e"></path>
      <path id="Path_99" data-name="Path 99" d="M210,302.4h1.968v4.919H210Z" transform="translate(-192.33 -259.214)" fill="#fcaa2e"></path>
      <path id="Path_100" data-name="Path 100" d="M210,229.6h1.968v4.919H210Z" transform="translate(-192.33 -199.173)" fill="#fcaa2e"></path>
      <path id="Path_101" data-name="Path 101" d="M159.6,229.6h1.968v4.919H159.6Z" transform="translate(-150.744 -199.173)" fill="#fcaa2e"></path>
      <path id="Path_102" data-name="Path 102" d="M193.851,390.269a8.109,8.109,0,1,0-9.091,8.062V406.5H109.194v1.968h80.494V406.5h-2.964v-8.171A8.121,8.121,0,0,0,193.851,390.269Z" transform="translate(-109.194 -325.031)" fill="#fcaa2e"></path>
      <path id="Path_103" data-name="Path 103" d="M436.858,301.864a10.09,10.09,0,0,1,2.952-19.74h.02v-18.93H417.2v43.289h19.658ZM429.991,269.1a.987.987,0,0,1,.984-.984h3.935a.987.987,0,0,1,.984.984v6.887a.987.987,0,0,1-.984.984h-3.935a.987.987,0,0,1-.984-.984Zm-2.952,32.467a.987.987,0,0,1-.984.984h-3.935a.987.987,0,0,1-.984-.984v-6.887a.987.987,0,0,1,.984-.984h3.935a.987.987,0,0,1,.984.984Zm0-12.79a.987.987,0,0,1-.984.984h-3.935a.987.987,0,0,1-.984-.984v-6.887a.987.987,0,0,1,.984-.984h3.935a.987.987,0,0,1,.984.984Zm0-12.79a.987.987,0,0,1-.984.984h-3.935a.987.987,0,0,1-.984-.984V269.1a.987.987,0,0,1,.984-.984h3.935a.987.987,0,0,1,.984.984Z" transform="translate(-363.278 -226.981)" fill="#fcaa2e"></path>
    </g>
  </g>
</svg>
