<?xml version="1.0" encoding="UTF-8"?>
<svg xmlns="http://www.w3.org/2000/svg" id="Group_236" data-name="Group 236" width="100" height="100" viewBox="0 0 100 100">
  <g id="Rectangle_163" data-name="Rectangle 163" fill="#fff" stroke="#707070" strokeWidth="1" opacity="0">
    <rect width="100" height="100" stroke="none"></rect>
    <rect x="0.5" y="0.5" width="99" height="99" fill="none"></rect>
  </g>
  <g id="noun-laurel-wreath-692551" transform="translate(1 11)">
    <path id="Path_119" data-name="Path 119" d="M401.645,116.886c.1-.367,6.064,1.913,6.064,1.913a8.434,8.434,0,0,0-3.119-3.957c-1.907-1.1-5.061-1.162-8.125,1h0c2.421,3.432,4.428,4.091,6.382,4.26a9.4,9.4,0,0,0,4.579-.619c-.02,0-5.645-2.948-5.783-2.6Z" transform="translate(-338.958 -109.723)" fill="#fcaa2e"></path>
    <path id="Path_120" data-name="Path 120" d="M430.152,153.6a45.577,45.577,0,0,1,5.452-2.464,6.436,6.436,0,0,0-4.529-.786c-2.024.561-3.847,2.266-5.059,6.007,2.875.448,4.792.179,6.568-1.033a10.192,10.192,0,0,0,3.265-3.494,42.486,42.486,0,0,0-5.7,1.769Z" transform="translate(-362.494 -138.452)" fill="#fcaa2e"></path>
    <path id="Path_121" data-name="Path 121" d="M460.484,98.019a60.916,60.916,0,0,1,.519,6.6,13.316,13.316,0,0,1-2.959-4.043c-.92-1.839-1.407-4.519.688-7.89l-.011-.019h.011l.006.019c4.647,2.316,5.359,5.7,5.214,7.672a7.543,7.543,0,0,1-2.181,4.26,62.123,62.123,0,0,0-1.288-6.6Z" transform="translate(-387.357 -92.671)" fill="#fcaa2e"></path>
    <path id="Path_122" data-name="Path 122" d="M454.623,174.83a46.821,46.821,0,0,1,6-1.209,7.558,7.558,0,0,0-4.241-1.8c-1.976-.1-4.314,1.324-6.319,4.592l-.016.009h.016c4.72,2.837,9.476-.672,10.67-2.11a47.9,47.9,0,0,0-6.108.518Z" transform="translate(-381.616 -155.672)" fill="#fcaa2e"></path>
    <path id="Path_123" data-name="Path 123" d="M497.944,123.981a50.326,50.326,0,0,1-.923,6.4,10.193,10.193,0,0,1-1.978-4.578,7.958,7.958,0,0,1,2.576-7.543l-.009-.007h.009l.013.007c3.828,3.48,3.865,6.834,3.266,8.714a7.457,7.457,0,0,1-3.106,3.565,55.382,55.382,0,0,0,.151-6.556Z" transform="translate(-417.313 -113.033)" fill="#fcaa2e"></path>
    <path id="Path_124" data-name="Path 124" d="M475.189,201.279a44.752,44.752,0,0,1,6.226.143c-1.163-1.5-5.407-5.616-10.935.239h0c3.888,3.955,9.354,1.591,10.781.516.131-.261-6.187-1.032-6.071-.9Z" transform="translate(-397.859 -177.003)" fill="#fcaa2e"></path>
    <path id="Path_125" data-name="Path 125" d="M526.42,158.9a44.88,44.88,0,0,1-2.308,5.924c-.7-1.562-3.092-7.455,3.426-11.658h.011c5.19,9.159-1.3,11.469-2.8,12.06C525.042,165.24,526.486,159.047,526.42,158.9Z" transform="translate(-439.753 -140.83)" fill="#fcaa2e"></path>
    <path id="Path_126" data-name="Path 126" d="M489.887,231.221s1.505.261,3.072.651c1.419.414,2.818.994,2.818.994a5.586,5.586,0,0,0-3.035-3.516c-1.816-.929-4.234-.858-7.625,1.191,3.183,4.611,8.5,3.793,10.356,3.022,0,0-1.342-.757-2.66-1.359-1.44-.566-2.926-.983-2.926-.983Z" transform="translate(-409.515 -201.014)" fill="#fcaa2e"></path>
    <path id="Path_127" data-name="Path 127" d="M545.326,201.394s-.822,1.438-1.683,2.718a31.056,31.056,0,0,1-2.093,2.539c.182-1.849-1.452-7.868,6.08-10.512v-.015l.013.015c1.634,4.958.65,7.737-1.083,9.236a7.818,7.818,0,0,1-4.468,1.813s.945-1.344,1.839-2.822a31.647,31.647,0,0,0,1.4-2.972Z" transform="translate(-454.411 -175.021)" fill="#fcaa2e"></path>
    <path id="Path_128" data-name="Path 128" d="M498.378,262.881c.211-.177,5.161,2.852,5.211,2.988.166-1.923-2.314-7.423-9.8-4.767h-.022l.022.013a8.451,8.451,0,0,0,4.637,4.755,9.949,9.949,0,0,0,4.716.608c-.051-.158-4.555-3.781-4.767-3.6Z" transform="translate(-416.404 -226.178)" fill="#fcaa2e"></path>
    <path id="Path_129" data-name="Path 129" d="M551.384,248.713c.243.132-5.059,4.4-5.021,4.236.6-1.757.584-7.98,8.391-8.776v-.01l.017.011v.011c.705,5.169-1.4,7.661-3.243,8.707a7.618,7.618,0,0,1-4.736.69c-.045.178,4.836-4.705,4.592-4.868Z" transform="translate(-458.267 -213.26)" fill="#fcaa2e"></path>
    <path id="Path_130" data-name="Path 130" d="M500.285,294.356a47.366,47.366,0,0,1,4.37,4.159,7.133,7.133,0,0,0-.914-4.479c-1.308-1.694-3.591-2.75-7.5-2.46v-.015l-.015.015h.015c.588,5.5,5.935,7.29,7.867,7.425a49.334,49.334,0,0,0-3.819-4.645Z" transform="translate(-418.355 -250.965)" fill="#fcaa2e"></path>
    <path id="Path_131" data-name="Path 131" d="M547.78,297.587a59.984,59.984,0,0,1-5.875,2.953,10.648,10.648,0,0,1,2.665-4.238c1.326-1.554,3.622-3,7.543-2.308v0a15.85,15.85,0,0,1-.664,3.289,10.51,10.51,0,0,1-1.417,2.268,6.249,6.249,0,0,1-3.1,2.142,7.358,7.358,0,0,1-4.747-.445,60.8,60.8,0,0,0,5.59-3.66Z" transform="translate(-454.719 -252.786)" fill="#fcaa2e"></path>
    <path id="Path_132" data-name="Path 132" d="M495.117,322.957a48.211,48.211,0,0,1,3.375,5.116,7.745,7.745,0,0,0,.068-4.641c-.578-1.81-2.84-3.484-6.629-4.107v0c-.884,5.43,4.223,8.547,5.944,9.1a51.368,51.368,0,0,0-2.758-5.468Z" transform="translate(-414.858 -273.083)" fill="#fcaa2e"></path>
    <path id="Path_133" data-name="Path 133" d="M534.774,343.748a50.752,50.752,0,0,1-6.269,1.563A10.045,10.045,0,0,1,532,341.744a8.01,8.01,0,0,1,7.957-.433h.024l-.024.016c-4.335,9.522-10.014,5.682-11.321,4.765a55.08,55.08,0,0,0,6.14-2.344Z" transform="translate(-444.052 -289.917)" fill="#fcaa2e"></path>
    <path id="Path_134" data-name="Path 134" d="M481.929,349.619a40.086,40.086,0,0,1,2.2,5.822c.987-1.639,3.185-7.147-4.273-10.053l-.011-.01v.01c-2.221,5.033,2.021,9.252,3.523,10.182C483.654,355.586,482.03,349.439,481.929,349.619Z" transform="translate(-404.831 -293.829)" fill="#fcaa2e"></path>
    <path id="Path_135" data-name="Path 135" d="M512.58,385.236a47.327,47.327,0,0,1-6.386.082c1.217-1.222,5.753-5.678,12.124-1.175h0c-6.58,8.257-11.128,3.1-12.24,1.912C506.149,386.342,512.462,385.37,512.58,385.236Z" transform="translate(-426.202 -323.118)" fill="#fcaa2e"></path>
    <path id="Path_136" data-name="Path 136" d="M461.208,372.515s.346,1.491.567,3.087c.124,1.444.124,3,.124,3a5.6,5.6,0,0,0,2.123-4.117c.187-2.044-.761-4.258-3.938-6.646h-.005a8.228,8.228,0,0,0-1.187,6.566,10.4,10.4,0,0,0,2.253,4.174s.189-1.541.26-3a23.087,23.087,0,0,0-.2-3.062Z" transform="translate(-388.49 -311.706)" fill="#fcaa2e"></path>
    <path id="Path_137" data-name="Path 137" d="M482.281,419.274s-1.636-.218-3.15-.572c-1.645-.413-3.145-.959-3.145-.959,1.775-.52,6.763-4.3,12.023,1.689l.007.029h-.007c-3.973,3.37-6.934,3.488-8.96,2.437a7.662,7.662,0,0,1-3.346-3.451s1.579.36,3.285.638A24.961,24.961,0,0,0,482.281,419.274Z" transform="translate(-402.022 -350.118)" fill="#fcaa2e"></path>
    <path id="Path_138" data-name="Path 138" d="M433.827,390.782a42,42,0,0,1-.819,5.944c.728-.519,2.54-1.336,3.068-3.428.627-1.979.169-4.431-2.326-7.482h-.015a8.5,8.5,0,0,0-2.671,6.11,10.157,10.157,0,0,0,1.217,4.61A38.207,38.207,0,0,0,433.827,390.782Z" transform="translate(-366.514 -326.019)" fill="#fcaa2e"></path>
    <path id="Path_139" data-name="Path 139" d="M446.385,444.915a48.817,48.817,0,0,1-5.823-3.072,15.075,15.075,0,0,1,4.972-.362c2.057.237,4.586,1.276,6.314,4.837h0v.027c-4.494,2.594-7.642,1.531-9.281.259a7.62,7.62,0,0,1-2.427-4.129A46.766,46.766,0,0,0,446.385,444.915Z" transform="translate(-373.73 -370.3)" fill="#fcaa2e"></path>
    <path id="Path_140" data-name="Path 140" d="M401.627,403.394a49.338,49.338,0,0,1-2.191,5.673,7.471,7.471,0,0,0,3.8-2.582c1.1-1.723,1.178-4.318-.524-7.833v0c-4.9,2.508-4.516,8.322-3.943,10.1a52.293,52.293,0,0,0,2.853-5.359Z" transform="translate(-340.556 -336.235)" fill="#fcaa2e"></path>
    <path id="Path_141" data-name="Path 141" d="M406.667,458.3a60.674,60.674,0,0,1-4.922-4.26,10.2,10.2,0,0,1,4.932.845c1.956.754,4.129,2.231,5,6.144h-.031c-4.953,1.5-7.853-.414-9.077-1.894a7.556,7.556,0,0,1-1.378-4.552,59.034,59.034,0,0,0,5.479,3.716Z" transform="translate(-342.733 -380.303)" fill="#fcaa2e"></path>
    <path id="Path_142" data-name="Path 142" d="M365.748,409.739a44.983,44.983,0,0,1-3.489,5.116c1.925-.186,7.672-1.388,5.682-9.324h-.009c-5.39,1.045-6.366,7.158-6.239,8.905a48.036,48.036,0,0,0,4.054-4.7Z" transform="translate(-311.299 -341.712)" fill="#fcaa2e"></path>
    <path id="Path_143" data-name="Path 143" d="M364.283,460.939a53.562,53.562,0,0,1-3.771-5.156c1.712.225,7.94,1.525,8,9.147h-.025c-10.458-.618-8.98-7.108-8.639-8.739A55.4,55.4,0,0,0,364.283,460.939Z" transform="translate(-309.623 -381.714)" fill="#fcaa2e"></path>
    <path id="Path_144" data-name="Path 144" d="M261.342,116.886c-.092-.367-6.057,1.913-6.057,1.913a8.3,8.3,0,0,1,3.117-3.957c1.9-1.1,5.059-1.162,8.133,1h0c-2.435,3.432-4.445,4.091-6.4,4.26a9.407,9.407,0,0,1-4.571-.619c.011,0,5.66-2.948,5.778-2.6Z" transform="translate(-226.624 -109.723)" fill="#fcaa2e"></path>
    <path id="Path_145" data-name="Path 145" d="M238.35,153.6a46.291,46.291,0,0,0-5.454-2.464,6.419,6.419,0,0,1,4.524-.786c2.037.561,3.843,2.266,5.066,6.007-2.875.448-4.8.179-6.586-1.033a10.532,10.532,0,0,1-3.265-3.494,42.271,42.271,0,0,1,5.715,1.769Z" transform="translate(-208.599 -138.452)" fill="#fcaa2e"></path>
    <path id="Path_146" data-name="Path 146" d="M220.251,98.019a55.751,55.751,0,0,0-.513,6.6,13.381,13.381,0,0,0,2.958-4.043c.909-1.839,1.4-4.519-.683-7.89v-.019H222l-.018.019c-4.637,2.316-5.367,5.7-5.2,7.672a7.5,7.5,0,0,0,2.174,4.26A60.162,60.162,0,0,1,220.251,98.019Z" transform="translate(-195.971 -92.671)" fill="#fcaa2e"></path>
    <path id="Path_147" data-name="Path 147" d="M210.576,174.83a46.5,46.5,0,0,0-5.986-1.209,7.6,7.6,0,0,1,4.236-1.8c1.987-.1,4.331,1.324,6.319,4.592l.015.009h-.015c-4.711,2.837-9.488-.672-10.667-2.11a47.525,47.525,0,0,1,6.1.518Z" transform="translate(-186.192 -155.672)" fill="#fcaa2e"></path>
    <path id="Path_148" data-name="Path 148" d="M184.531,123.981a52.132,52.132,0,0,0,.931,6.4,10.181,10.181,0,0,0,1.976-4.578,7.917,7.917,0,0,0-2.595-7.543l.024-.007h-.024v.007c-3.823,3.48-3.859,6.834-3.257,8.714a7.446,7.446,0,0,0,3.1,3.565,53.247,53.247,0,0,1-.154-6.556Z" transform="translate(-167.76 -113.033)" fill="#fcaa2e"></path>
    <path id="Path_149" data-name="Path 149" d="M189.079,201.279a44.539,44.539,0,0,0-6.212.143c1.151-1.5,5.4-5.616,10.917.239-3.872,3.955-9.335,1.591-10.773.516-.139-.261,6.2-1.032,6.068-.9Z" transform="translate(-169.007 -177.003)" fill="#fcaa2e"></path>
    <path id="Path_150" data-name="Path 150" d="M155.435,158.9a46,46,0,0,0,2.3,5.924c.692-1.562,3.1-7.455-3.433-11.658-5.179,9.159,1.284,11.469,2.81,12.06-.3.01-1.753-6.184-1.68-6.326Z" transform="translate(-144.697 -140.83)" fill="#fcaa2e"></path>
    <path id="Path_151" data-name="Path 151" d="M175.447,231.221s-1.515.261-3.072.651c-1.425.414-2.825.994-2.825.994a5.573,5.573,0,0,1,3.025-3.516c1.815-.929,4.237-.858,7.629,1.191h0c-3.183,4.611-8.483,3.793-10.351,3.022,0,0,1.343-.757,2.665-1.359,1.43-.566,2.929-.983,2.929-.983Z" transform="translate(-158.406 -201.014)" fill="#fcaa2e"></path>
    <path id="Path_152" data-name="Path 152" d="M134.423,201.394s.824,1.438,1.667,2.718c.99,1.346,2.1,2.539,2.1,2.539-.181-1.849,1.453-7.868-6.092-10.512v-.015l-.011.015c-1.631,4.958-.651,7.737,1.1,9.236a7.761,7.761,0,0,0,4.456,1.813s-.938-1.344-1.831-2.822a27.777,27.777,0,0,1-1.386-2.972Z" transform="translate(-127.92 -175.021)" fill="#fcaa2e"></path>
    <path id="Path_153" data-name="Path 153" d="M170.216,262.881c-.215-.177-5.174,2.852-5.219,2.988-.156-1.923,2.311-7.423,9.81-4.767v.013a8.511,8.511,0,0,1-4.645,4.755,10.058,10.058,0,0,1-4.74.608c.073-.158,4.579-3.781,4.794-3.6Z" transform="translate(-154.777 -226.178)" fill="#fcaa2e"></path>
    <path id="Path_154" data-name="Path 154" d="M122.214,248.713c-.237.132,5.065,4.4,5.019,4.236-.584-1.757-.567-7.98-8.38-8.776l0-.01v.022c-.725,5.169,1.385,7.661,3.234,8.707a7.611,7.611,0,0,0,4.736.69c.042.178-4.842-4.705-4.6-4.868Z" transform="translate(-117.931 -213.26)" fill="#fcaa2e"></path>
    <path id="Path_155" data-name="Path 155" d="M173.578,294.356a47.1,47.1,0,0,0-4.375,4.159,7.085,7.085,0,0,1,.909-4.479c1.316-1.694,3.6-2.75,7.521-2.46v0c-.59,5.5-5.948,7.29-7.879,7.425A48.283,48.283,0,0,1,173.578,294.356Z" transform="translate(-158.098 -250.965)" fill="#fcaa2e"></path>
    <path id="Path_156" data-name="Path 156" d="M119.269,297.587a59.274,59.274,0,0,0,5.872,2.953,10.713,10.713,0,0,0-2.665-4.238c-1.326-1.554-3.623-3-7.54-2.308v-.024l-.015.024a16.734,16.734,0,0,0,.675,3.289,10.826,10.826,0,0,0,1.412,2.268,6.273,6.273,0,0,0,3.1,2.142,7.388,7.388,0,0,0,4.75-.445,58.907,58.907,0,0,1-5.588-3.66Z" transform="translate(-114.92 -252.786)" fill="#fcaa2e"></path>
    <path id="Path_157" data-name="Path 157" d="M184.2,322.957a49.987,49.987,0,0,0-3.4,5.116,7.709,7.709,0,0,1-.053-4.641c.572-1.81,2.855-3.484,6.628-4.107v0c.891,5.43-4.213,8.547-5.944,9.1a50.114,50.114,0,0,1,2.766-5.468Z" transform="translate(-167.052 -273.083)" fill="#fcaa2e"></path>
    <path id="Path_158" data-name="Path 158" d="M127.383,343.748a51.344,51.344,0,0,0,6.288,1.563,10.155,10.155,0,0,0-3.5-3.566,8.014,8.014,0,0,0-7.955-.433H122.2v.016c4.351,9.522,10.035,5.682,11.328,4.765a57.05,57.05,0,0,1-6.145-2.344Z" transform="translate(-120.715 -289.917)" fill="#fcaa2e"></path>
    <path id="Path_159" data-name="Path 159" d="M201.607,349.619a42.1,42.1,0,0,0-2.179,5.822c-.991-1.639-3.188-7.147,4.276-10.053v-.01l.008.01c2.219,5.033-2.022,9.252-3.531,10.182-.3.017,1.346-6.13,1.426-5.951Z" transform="translate(-181.31 -293.829)" fill="#fcaa2e"></path>
    <path id="Path_160" data-name="Path 160" d="M146.53,385.236a47.231,47.231,0,0,0,6.38.082c-1.211-1.222-5.751-5.678-12.112-1.175h0c6.566,8.257,11.128,3.1,12.235,1.912-.083.287-6.388-.685-6.5-.819Z" transform="translate(-135.502 -323.118)" fill="#fcaa2e"></path>
    <path id="Path_161" data-name="Path 161" d="M224.742,372.515s-.326,1.491-.546,3.087c-.134,1.444-.12,3-.12,3a5.586,5.586,0,0,1-2.135-4.117c-.2-2.044.766-4.258,3.947-6.646h.006a8.287,8.287,0,0,1,1.189,6.566,10.363,10.363,0,0,1-2.25,4.174s-.2-1.541-.277-3a25.671,25.671,0,0,1,.187-3.062Z" transform="translate(-200.07 -311.706)" fill="#fcaa2e"></path>
    <path id="Path_162" data-name="Path 162" d="M176.565,419.274s1.633-.218,3.151-.572c1.625-.413,3.143-.959,3.143-.959-1.794-.52-6.76-4.3-12.019,1.689l-.023.029h.023c3.959,3.37,6.918,3.488,8.957,2.437a7.782,7.782,0,0,0,3.35-3.451s-1.586.36-3.288.638A24.986,24.986,0,0,1,176.565,419.274Z" transform="translate(-159.414 -350.118)" fill="#fcaa2e"></path>
    <path id="Path_163" data-name="Path 163" d="M252.558,390.782a40.718,40.718,0,0,0,.833,5.944c-.728-.519-2.56-1.336-3.077-3.428-.63-1.979-.191-4.431,2.323-7.482h.01a8.472,8.472,0,0,1,2.667,6.11,10.149,10.149,0,0,1-1.215,4.61A38.657,38.657,0,0,1,252.558,390.782Z" transform="translate(-222.464 -326.019)" fill="#fcaa2e"></path>
    <path id="Path_164" data-name="Path 164" d="M214.8,444.915a48.383,48.383,0,0,0,5.826-3.072,14.973,14.973,0,0,0-4.959-.362c-2.068.237-4.61,1.276-6.319,4.837h0v.027c4.495,2.594,7.64,1.531,9.277.259a7.568,7.568,0,0,0,2.421-4.129,47.112,47.112,0,0,1-6.245,2.439Z" transform="translate(-190.057 -370.3)" fill="#fcaa2e"></path>
    <path id="Path_165" data-name="Path 165" d="M283.474,403.394a51.273,51.273,0,0,0,2.179,5.673,7.524,7.524,0,0,1-3.8-2.582c-1.088-1.723-1.183-4.318.517-7.833v0c4.926,2.508,4.536,8.322,3.948,10.1a46.477,46.477,0,0,1-2.843-5.359Z" transform="translate(-247.136 -336.235)" fill="#fcaa2e"></path>
    <path id="Path_166" data-name="Path 166" d="M259.29,458.3a55.622,55.622,0,0,0,4.922-4.26,10.263,10.263,0,0,0-4.939.845c-1.936.754-4.12,2.231-4.977,6.144h0c4.972,1.5,7.867-.414,9.1-1.894a7.422,7.422,0,0,0,1.37-4.552,55.681,55.681,0,0,1-5.477,3.716Z" transform="translate(-225.828 -380.303)" fill="#fcaa2e"></path>
    <path id="Path_167" data-name="Path 167" d="M315.161,409.739a47.624,47.624,0,0,0,3.5,5.116c-1.925-.186-7.669-1.388-5.683-9.324,5.379,1.045,6.365,7.158,6.249,8.905a49.29,49.29,0,0,1-4.063-4.7Z" transform="translate(-272.208 -341.712)" fill="#fcaa2e"></path>
    <path id="Path_168" data-name="Path 168" d="M307.742,460.939a51.04,51.04,0,0,0,3.773-5.156c-1.713.225-7.951,1.525-7.99,9.147h.015c10.467-.618,8.994-7.108,8.651-8.739A53.594,53.594,0,0,1,307.742,460.939Z" transform="translate(-265.004 -381.714)" fill="#fcaa2e"></path>
  </g>
</svg>
